Italic_opsz8.ufo
<glyph name="comma" format="2">
	<unicode hex="002C"/>
	<advance width="590"/>
	<outline>
		<contour>
			<point x="90" y="112" type="curve" smooth="yes"/>
			<point x="90" y="56"/>
			<point x="128" y="0"/>
			<point x="202" y="0" type="curve" smooth="yes"/>
			<point x="250" y="0"/>
			<point x="280" y="28"/>
			<point x="280" y="30" type="curve"/>
			<point x="280" y="30"/>
			<point x="280" y="30"/>
			<point x="280" y="30" type="curve"/>
			<point x="280" y="30"/>
			<point x="280" y="30"/>
			<point x="280" y="30" type="curve"/>
			<point x="280" y="-100"/>
			<point x="252" y="-214"/>
			<point x="128" y="-338" type="curve"/>
			<point x="120" y="-344"/>
			<point x="116" y="-348"/>
			<point x="116" y="-358" type="curve" smooth="yes"/>
			<point x="116" y="-374"/>
			<point x="132" y="-386"/>
			<point x="146" y="-386" type="curve" smooth="yes"/>
			<point x="170" y="-386"/>
			<point x="336" y="-228"/>
			<point x="336" y="6" type="curve" smooth="yes"/>
			<point x="336" y="134"/>
			<point x="288" y="222"/>
			<point x="200" y="222" type="curve" smooth="yes"/>
			<point x="130" y="222"/>
			<point x="90" y="166"/>
		</contour>
	</outline>
</glyph>
<glyph name="period" format="2">
  <advance width="295"/>
  <unicode hex="002E"/>
  <outline>
    <contour>
      <point x="203" y="55" type="curve" smooth="yes"/>
      <point x="203" y="89"/>
      <point x="175" y="111"/>
      <point x="148" y="111" type="curve" smooth="yes"/>
      <point x="116" y="111"/>
      <point x="92" y="85"/>
      <point x="92" y="56" type="curve" smooth="yes"/>
      <point x="92" y="22"/>
      <point x="120" y="0"/>
      <point x="147" y="0" type="curve" smooth="yes"/>
      <point x="179" y="0"/>
      <point x="203" y="26"/>
    </contour>
  </outline>
</glyph>
<glyph name="slash" format="2">
	<unicode hex="002F"/>
	<advance width="1062"/>
	<outline>
		<contour>
			<point x="836" y="1416" type="line" smooth="yes"/>
			<point x="848" y="1444"/>
			<point x="848" y="1448"/>
			<point x="848" y="1454" type="curve" smooth="yes"/>
			<point x="848" y="1480"/>
			<point x="828" y="1500"/>
			<point x="802" y="1500" type="curve" smooth="yes"/>
			<point x="770" y="1500"/>
			<point x="762" y="1476"/>
			<point x="754" y="1456" type="curve" smooth="yes"/>
			<point x="36" y="-416" type="line" smooth="yes"/>
			<point x="24" y="-444"/>
			<point x="24" y="-448"/>
			<point x="24" y="-454" type="curve" smooth="yes"/>
			<point x="24" y="-480"/>
			<point x="44" y="-500"/>
			<point x="70" y="-500" type="curve" smooth="yes"/>
			<point x="102" y="-500"/>
			<point x="110" y="-476"/>
			<point x="118" y="-456" type="curve" smooth="yes"/>
		</contour>
	</outline>
</glyph>
<glyph name="zero" format="2">
	<unicode hex="0030"/>
	<advance width="531"/>
	<outline>
		<contour>
			<point x="441" y="213" type="curve" smooth="yes"/>
			<point x="441" y="374"/>
			<point x="362" y="452"/>
			<point x="218" y="452" type="curve" smooth="yes"/>
			<point x="65" y="452"/>
			<point x="-5" y="364"/>
			<point x="-5" y="213" type="curve" smooth="yes"/>
			<point x="-5" y="70"/>
			<point x="60" y="-21"/>
			<point x="218" y="-21" type="curve" smooth="yes"/>
			<point x="379" y="-21"/>
			<point x="441" y="73"/>
		</contour>
		<contour>
			<point x="218" y="7" type="curve" smooth="yes"/>
			<point x="172" y="7"/>
			<point x="141.5579764736" y="18.6694423552"/>
			<point x="121.4130865112" y="38.4869195305" type="curve" smooth="yes"/>
			<point x="82" y="77.2594292736"/>
			<point x="82" y="147.22112"/>
			<point x="82" y="222" type="curve" smooth="yes"/>
			<point x="82" y="291"/>
			<point x="82" y="354.5056"/>
			<point x="117.651584" y="391.18528" type="curve" smooth="yes"/>
			<point x="137.7056" y="411.8176"/>
			<point x="169" y="424"/>
			<point x="218" y="424" type="curve" smooth="yes"/>
			<point x="265.99984" y="424"/>
			<point x="297.0586164704" y="412.2907355016"/>
			<point x="317.1555083734" y="392.3893706002" type="curve" smooth="yes"/>
			<point x="354" y="355.9033469896"/>
			<point x="354" y="292"/>
			<point x="354" y="222" type="curve" smooth="yes"/>
			<point x="354" y="147.22112"/>
			<point x="354" y="77.2594292736"/>
			<point x="314.5869134889" y="38.4869195305" type="curve" smooth="yes"/>
			<point x="294.4420235264" y="18.6694423552"/>
			<point x="264.00064" y="7"/>
		</contour>
	</outline>
</glyph>
<glyph name="one" format="2">
	<unicode hex="0031"/>
	<advance width="1062"/>
	<outline>
		<contour>
			<point x="442.8102388219" y="778" type="curve"/>
			<point x="442.8102388219" y="164" type="line" smooth="yes"/>
			<point x="442.8102388219" y="100"/>
			<point x="442.8102388219" y="76"/>
			<point x="352.8102388219" y="69" type="curve" smooth="yes"/>
			<point x="327.8102388219" y="67"/>
			<point x="296.8102388219" y="66"/>
			<point x="256.8102388219" y="66" type="curve" smooth="yes"/>
			<point x="194.8102388219" y="66"/>
			<point x="176.8102388219" y="66"/>
			<point x="176.8102388219" y="32" type="curve" smooth="yes"/>
			<point x="176.8102388219" y="0"/>
			<point x="206.8102388219" y="0"/>
			<point x="214.8102388219" y="0" type="curve" smooth="yes"/>
			<point x="286.8102388219" y="0"/>
			<point x="362.8102388219" y="6"/>
			<point x="436.8102388219" y="6" type="curve" smooth="yes"/>
			<point x="488.8102388219" y="6"/>
			<point x="540.8102388219" y="6"/>
			<point x="592.8102388219" y="6" type="curve" smooth="yes"/>
			<point x="644.8102388219" y="6"/>
			<point x="774.8102388219" y="0"/>
			<point x="826.8102388219" y="0" type="curve" smooth="yes"/>
			<point x="834.8102388219" y="0"/>
			<point x="864.8102388219" y="0"/>
			<point x="864.8102388219" y="32" type="curve" smooth="yes"/>
			<point x="864.8102388219" y="66"/>
			<point x="844.8102388219" y="66"/>
			<point x="794.8102388219" y="66" type="curve" smooth="yes"/>
			<point x="748.8102388219" y="66"/>
			<point x="694.8102388219" y="66"/>
			<point x="648.8102388219" y="74" type="curve" smooth="yes"/>
			<point x="604.8102388219" y="82"/>
			<point x="598.8102388219" y="98"/>
			<point x="598.8102388219" y="164" type="curve" smooth="yes"/>
			<point x="598.8102388219" y="844" type="line" smooth="yes"/>
			<point x="598.8102388219" y="878"/>
			<point x="598.8102388219" y="904"/>
			<point x="570.8102388219" y="904" type="curve" smooth="yes"/>
			<point x="564.8102388219" y="904"/>
			<point x="560.8102388219" y="902"/>
			<point x="544.8102388219" y="892" type="curve" smooth="yes"/>
			<point x="502.8102388219" y="866"/>
			<point x="418.8102388219" y="820"/>
			<point x="230.8102388219" y="818" type="curve" smooth="yes"/>
			<point x="184.8102388219" y="818"/>
			<point x="166.8102388219" y="818"/>
			<point x="166.8102388219" y="784" type="curve" smooth="yes"/>
			<point x="166.8102388219" y="752"/>
			<point x="186.8102388219" y="752"/>
			<point x="226.8102388219" y="752" type="curve" smooth="yes"/>
			<point x="294.8102388219" y="752"/>
			<point x="380.8102388219" y="762"/>
		</contour>
	</outline>
</glyph>
<glyph name="two" format="2">
	<unicode hex="0032"/>
	<advance width="531"/>
	<outline>
		<contour>
			<point x="116.4051194109" y="0" type="curve" smooth="yes"/>
			<point x="456.4051194109" y="0" type="line" smooth="yes"/>
			<point x="475.4051194109" y="0"/>
			<point x="482.4051194109" y="0"/>
			<point x="485.4051194109" y="11" type="curve"/>
			<point x="488.4051194109" y="18"/>
			<point x="515.4051194109" y="121"/>
			<point x="515.4051194109" y="125" type="curve" smooth="yes"/>
			<point x="515.4051194109" y="130"/>
			<point x="511.4051194109" y="139"/>
			<point x="499.4051194109" y="139" type="curve" smooth="yes"/>
			<point x="487.4051194109" y="139"/>
			<point x="485.4051194109" y="130"/>
			<point x="482.4051194109" y="121" type="curve"/>
			<point x="470.4051194109" y="77"/>
			<point x="465.4051194109" y="77"/>
			<point x="458.4051194109" y="76" type="curve"/>
			<point x="436.4051194109" y="74"/>
			<point x="408.4051194109" y="74"/>
			<point x="386.4051194109" y="74" type="curve" smooth="yes"/>
			<point x="209.4051194109" y="74" type="line"/>
			<point x="288.4051194109" y="121"/>
			<point x="338.4051194109" y="147"/>
			<point x="389.4051194109" y="171" type="curve" smooth="yes"/>
			<point x="454.4051194109" y="201"/>
			<point x="515.4051194109" y="236"/>
			<point x="515.4051194109" y="310" type="curve" smooth="yes"/>
			<point x="515.4051194109" y="407"/>
			<point x="414.4051194109" y="452"/>
			<point x="291.4051194109" y="452" type="curve" smooth="yes"/>
			<point x="168.4051194109" y="452"/>
			<point x="97.4051194109" y="397"/>
			<point x="97.4051194109" y="330" type="curve" smooth="yes"/>
			<point x="97.4051194109" y="290"/>
			<point x="132.4051194109" y="287"/>
			<point x="137.4051194109" y="287" type="curve" smooth="yes"/>
			<point x="154.4051194109" y="287"/>
			<point x="177.4051194109" y="300"/>
			<point x="177.4051194109" y="327" type="curve" smooth="yes"/>
			<point x="177.4051194109" y="343"/>
			<point x="169.4051194109" y="362"/>
			<point x="142.4051194109" y="367" type="curve"/>
			<point x="179.4051194109" y="417"/>
			<point x="253.4051194109" y="419"/>
			<point x="274.4051194109" y="419" type="curve" smooth="yes"/>
			<point x="350.4051194109" y="419"/>
			<point x="422.4051194109" y="385"/>
			<point x="422.4051194109" y="309" type="curve" smooth="yes"/>
			<point x="422.4051194109" y="253"/>
			<point x="381.4051194109" y="217"/>
			<point x="308.4051194109" y="171" type="curve" smooth="yes"/>
			<point x="99.4051194109" y="36" type="line"/>
			<point x="88.4051194109" y="30"/>
			<point x="85.4051194109" y="28"/>
			<point x="85.4051194109" y="17" type="curve" smooth="yes"/>
			<point x="85.4051194109" y="0"/>
			<point x="95.4051194109" y="0"/>
		</contour>
	</outline>
</glyph>
<glyph name="three" format="2">
	<unicode hex="0033"/>
	<advance width="531"/>
	<outline>
		<contour>
			<point x="214" y="-215" type="curve" smooth="yes"/>
			<point x="344" y="-215"/>
			<point x="439" y="-127"/>
			<point x="439" y="-28" type="curve" smooth="yes"/>
			<point x="439" y="46"/>
			<point x="381" y="123"/>
			<point x="273" y="147" type="curve"/>
			<point x="375" y="185"/>
			<point x="409" y="261"/>
			<point x="409" y="318" type="curve" smooth="yes"/>
			<point x="409" y="396"/>
			<point x="320" y="452"/>
			<point x="215" y="452" type="curve" smooth="yes"/>
			<point x="110" y="452"/>
			<point x="27" y="398"/>
			<point x="27" y="321" type="curve" smooth="yes"/>
			<point x="27" y="278"/>
			<point x="62" y="269"/>
			<point x="77" y="269" type="curve" smooth="yes"/>
			<point x="96" y="269"/>
			<point x="126" y="284"/>
			<point x="126" y="319" type="curve" smooth="yes"/>
			<point x="126" y="351"/>
			<point x="101" y="369"/>
			<point x="74" y="369" type="curve"/>
			<point x="107" y="415"/>
			<point x="178" y="426"/>
			<point x="212" y="426" type="curve" smooth="yes"/>
			<point x="258" y="426"/>
			<point x="317" y="403"/>
			<point x="317" y="318" type="curve" smooth="yes"/>
			<point x="317" y="288"/>
			<point x="309" y="234"/>
			<point x="275" y="197" type="curve" smooth="yes"/>
			<point x="244" y="164"/>
			<point x="222" y="163"/>
			<point x="177" y="160" type="curve" smooth="yes"/>
			<point x="147" y="158"/>
			<point x="144" y="157"/>
			<point x="140" y="157" type="curve"/>
			<point x="135" y="156"/>
			<point x="130" y="150"/>
			<point x="130" y="143" type="curve" smooth="yes"/>
			<point x="130" y="129"/>
			<point x="139" y="129"/>
			<point x="159" y="129" type="curve" smooth="yes"/>
			<point x="204" y="129" type="line" smooth="yes"/>
			<point x="302" y="129"/>
			<point x="338" y="55"/>
			<point x="338" y="-28" type="curve" smooth="yes"/>
			<point x="338" y="-146"/>
			<point x="270" y="-185"/>
			<point x="212" y="-185" type="curve" smooth="yes"/>
			<point x="201" y="-185"/>
			<point x="94" y="-185"/>
			<point x="45" y="-112" type="curve"/>
			<point x="97" y="-112"/>
			<point x="103" y="-75"/>
			<point x="103" y="-59" type="curve" smooth="yes"/>
			<point x="103" y="-25"/>
			<point x="75" y="-6"/>
			<point x="50" y="-6" type="curve" smooth="yes"/>
			<point x="36" y="-6"/>
			<point x="-3" y="-15"/>
			<point x="-3" y="-62" type="curve" smooth="yes"/>
			<point x="-3" y="-154"/>
			<point x="98" y="-215"/>
		</contour>
	</outline>
</glyph>
<glyph name="four" format="2">
  <advance width="531"/>
  <unicode hex="0034"/>
  <outline>
    <contour>
      <point x="266.4051194109432" y="-194.0" type="curve" smooth="yes"/>
      <point x="285.4051194109432" y="-194.0"/>
      <point x="309.4051194109432" y="-192.0"/>
      <point x="328.4051194109432" y="-191.0" type="curve"/>
      <point x="347.4051194109432" y="-191.0"/>
      <point x="365.4051194109432" y="-191.0"/>
      <point x="384.4051194109432" y="-191.0" type="curve" smooth="yes"/>
      <point x="408.4051194109432" y="-191.0"/>
      <point x="432.4051194109432" y="-191.0"/>
      <point x="456.4051194109432" y="-191.0" type="curve"/>
      <point x="470.4051194109432" y="-192.0"/>
      <point x="504.4051194109432" y="-194.0"/>
      <point x="517.4051194109433" y="-194.0" type="curve" smooth="yes"/>
      <point x="521.4051194109433" y="-194.0"/>
      <point x="535.4051194109433" y="-194.0"/>
      <point x="535.4051194109433" y="-178.0" type="curve" smooth="yes"/>
      <point x="535.4051194109433" y="-161.0"/>
      <point x="526.4051194109433" y="-161.0"/>
      <point x="502.4051194109432" y="-161.0" type="curve" smooth="yes"/>
      <point x="502.4051194109432" y="-161.0"/>
      <point x="502.4051194109432" y="-161.0"/>
      <point x="502.4051194109432" y="-161.0" type="curve" smooth="yes"/>
      <point x="432.4051194109432" y="-161.0"/>
      <point x="432.4051194109432" y="-154.0"/>
      <point x="432.4051194109432" y="-115.0" type="curve" smooth="yes"/>
      <point x="432.4051194109432" y="0.0" type="line"/>
      <point x="509.4051194109432" y="0.0" type="line" smooth="yes"/>
      <point x="529.4051194109433" y="0.0"/>
      <point x="539.4051194109433" y="0.0"/>
      <point x="539.4051194109433" y="17.0" type="curve" smooth="yes"/>
      <point x="539.4051194109433" y="33.0"/>
      <point x="528.4051194109433" y="33.0"/>
      <point x="509.4051194109432" y="33.0" type="curve" smooth="yes"/>
      <point x="432.4051194109432" y="33.0" type="line"/>
      <point x="432.4051194109432" y="432.0" type="line" smooth="yes"/>
      <point x="432.4051194109432" y="455.0"/>
      <point x="432.4051194109432" y="462.0"/>
      <point x="411.4051194109432" y="462.0" type="curve" smooth="yes"/>
      <point x="396.4051194109432" y="462.0"/>
      <point x="395.4051194109432" y="461.0"/>
      <point x="385.4051194109432" y="448.0" type="curve" smooth="yes"/>
      <point x="77.4051194109432" y="45.0" type="line" smooth="yes"/>
      <point x="67.4051194109432" y="33.0"/>
      <point x="67.4051194109432" y="31.0"/>
      <point x="67.4051194109432" y="21.0" type="curve" smooth="yes"/>
      <point x="67.4051194109432" y="0.0"/>
      <point x="74.4051194109432" y="0.0"/>
      <point x="98.4051194109432" y="0.0" type="curve" smooth="yes"/>
      <point x="351.4051194109432" y="0.0" type="line"/>
      <point x="351.4051194109432" y="-115.0" type="line" smooth="yes"/>
      <point x="351.4051194109432" y="-155.0"/>
      <point x="351.4051194109432" y="-161.0"/>
      <point x="278.4051194109432" y="-161.0" type="curve" smooth="yes"/>
      <point x="278.4051194109432" y="-161.0"/>
      <point x="278.4051194109432" y="-161.0"/>
      <point x="278.4051194109432" y="-161.0" type="curve" smooth="yes"/>
      <point x="258.4051194109432" y="-161.0"/>
      <point x="248.4051194109432" y="-161.0"/>
      <point x="248.4051194109432" y="-178.0" type="curve" smooth="yes"/>
      <point x="248.4051194109432" y="-194.0"/>
      <point x="262.4051194109432" y="-194.0"/>
    </contour>
    <contour>
      <point x="358.4051194109432" y="33.0" type="line"/>
      <point x="104.4051194109432" y="33.0" type="line"/>
      <point x="358.4051194109432" y="365.0" type="line"/>
    </contour>
  </outline>
</glyph>
<glyph name="five" format="2">
	<unicode hex="0035"/>
	<advance width="531"/>
	<outline>
		<contour>
			<point x="285.4051194109" y="-215" type="curve" smooth="yes"/>
			<point x="408.4051194109" y="-215"/>
			<point x="515.4051194109" y="-121"/>
			<point x="515.4051194109" y="0" type="curve" smooth="yes"/>
			<point x="515.4051194109" y="116"/>
			<point x="427.4051194109" y="213"/>
			<point x="315.4051194109" y="213" type="curve" smooth="yes"/>
			<point x="270.4051194109" y="213"/>
			<point x="219.4051194109" y="201"/>
			<point x="178.4051194109" y="164" type="curve"/>
			<point x="178.4051194109" y="352" type="line"/>
			<point x="205.4051194109" y="344"/>
			<point x="242.4051194109" y="338"/>
			<point x="274.4051194109" y="338" type="curve" smooth="yes"/>
			<point x="317.4051194109" y="338"/>
			<point x="359.4051194109" y="349"/>
			<point x="396.4051194109" y="368" type="curve" smooth="yes"/>
			<point x="424.4051194109" y="383"/>
			<point x="474.4051194109" y="420"/>
			<point x="474.4051194109" y="438" type="curve" smooth="yes"/>
			<point x="474.4051194109" y="450"/>
			<point x="465.4051194109" y="451"/>
			<point x="462.4051194109" y="451" type="curve" smooth="yes"/>
			<point x="460.4051194109" y="451"/>
			<point x="458.4051194109" y="451"/>
			<point x="449.4051194109" y="447" type="curve"/>
			<point x="386.4051194109" y="423"/>
			<point x="331.4051194109" y="421"/>
			<point x="310.4051194109" y="421" type="curve" smooth="yes"/>
			<point x="264.4051194109" y="421"/>
			<point x="215.4051194109" y="430"/>
			<point x="170.4051194109" y="447" type="curve"/>
			<point x="161.4051194109" y="451"/>
			<point x="159.4051194109" y="451"/>
			<point x="157.4051194109" y="451" type="curve" smooth="yes"/>
			<point x="145.4051194109" y="451"/>
			<point x="145.4051194109" y="440"/>
			<point x="145.4051194109" y="422" type="curve" smooth="yes"/>
			<point x="145.4051194109" y="140" type="line" smooth="yes"/>
			<point x="145.4051194109" y="122"/>
			<point x="145.4051194109" y="109"/>
			<point x="160.4051194109" y="109" type="curve" smooth="yes"/>
			<point x="168.4051194109" y="109"/>
			<point x="171.4051194109" y="113"/>
			<point x="175.4051194109" y="118" type="curve" smooth="yes"/>
			<point x="189.4051194109" y="136"/>
			<point x="226.4051194109" y="185"/>
			<point x="312.4051194109" y="185" type="curve" smooth="yes"/>
			<point x="356.4051194109" y="185"/>
			<point x="385.4051194109" y="159"/>
			<point x="402.4051194109" y="130" type="curve" smooth="yes"/>
			<point x="417.4051194109" y="104"/>
			<point x="426.4051194109" y="71"/>
			<point x="426.4051194109" y="4" type="curve" smooth="yes"/>
			<point x="426.4051194109" y="-23"/>
			<point x="426.4051194109" y="-86"/>
			<point x="395.4051194109" y="-128" type="curve" smooth="yes"/>
			<point x="367.4051194109" y="-165"/>
			<point x="328.4051194109" y="-185"/>
			<point x="282.4051194109" y="-185" type="curve" smooth="yes"/>
			<point x="216.4051194109" y="-185"/>
			<point x="152.4051194109" y="-144"/>
			<point x="130.4051194109" y="-83" type="curve"/>
			<point x="168.4051194109" y="-88"/>
			<point x="188.4051194109" y="-61"/>
			<point x="188.4051194109" y="-35" type="curve" smooth="yes"/>
			<point x="188.4051194109" y="-9"/>
			<point x="168.4051194109" y="13"/>
			<point x="139.4051194109" y="13" type="curve" smooth="yes"/>
			<point x="135.4051194109" y="13"/>
			<point x="91.4051194109" y="11"/>
			<point x="91.4051194109" y="-39" type="curve" smooth="yes"/>
			<point x="91.4051194109" y="-127"/>
			<point x="170.4051194109" y="-215"/>
		</contour>
	</outline>
</glyph>
<glyph name="six" format="2">
	<unicode hex="0036"/>
	<advance width="531"/>
	<outline>
		<contour>
			<point x="89" y="331" type="curve"/>
			<point x="89" y="382"/>
			<point x="92" y="471"/>
			<point x="124" y="533" type="curve" smooth="yes"/>
			<point x="155" y="590"/>
			<point x="207" y="639"/>
			<point x="278" y="639" type="curve" smooth="yes"/>
			<point x="318" y="639"/>
			<point x="349" y="627"/>
			<point x="368" y="601" type="curve"/>
			<point x="323" y="598"/>
			<point x="320" y="565"/>
			<point x="320" y="555" type="curve" smooth="yes"/>
			<point x="320" y="525"/>
			<point x="344" y="509"/>
			<point x="366" y="509" type="curve" smooth="yes"/>
			<point x="382" y="509"/>
			<point x="412" y="519"/>
			<point x="412" y="557" type="curve" smooth="yes"/>
			<point x="412" y="617"/>
			<point x="367" y="665"/>
			<point x="277" y="665" type="curve" smooth="yes"/>
			<point x="139" y="665"/>
			<point x="-3" y="534"/>
			<point x="-3" y="317" type="curve" smooth="yes"/>
			<point x="-3" y="52"/>
			<point x="119" y="-21"/>
			<point x="220" y="-21" type="curve" smooth="yes"/>
			<point x="299" y="-21"/>
			<point x="342" y="13"/>
			<point x="373" y="44" type="curve" smooth="yes"/>
			<point x="418" y="89"/>
			<point x="439" y="135"/>
			<point x="439" y="203" type="curve" smooth="yes"/>
			<point x="439" y="237"/>
			<point x="436" y="298"/>
			<point x="381" y="357" type="curve" smooth="yes"/>
			<point x="349" y="391"/>
			<point x="306" y="426"/>
			<point x="230" y="426" type="curve" smooth="yes"/>
			<point x="144" y="426"/>
			<point x="104" y="362"/>
		</contour>
		<contour>
			<point x="220" y="9" type="curve" smooth="yes"/>
			<point x="160" y="9"/>
			<point x="128" y="54"/>
			<point x="115" y="79" type="curve" smooth="yes"/>
			<point x="100" y="110"/>
			<point x="92" y="162"/>
			<point x="92" y="226" type="curve" smooth="yes"/>
			<point x="92" y="319"/>
			<point x="143" y="398"/>
			<point x="225" y="398" type="curve" smooth="yes"/>
			<point x="271" y="398"/>
			<point x="302" y="378"/>
			<point x="326" y="337" type="curve" smooth="yes"/>
			<point x="347" y="300"/>
			<point x="347" y="252"/>
			<point x="347" y="204" type="curve" smooth="yes"/>
			<point x="347" y="154"/>
			<point x="347" y="107"/>
			<point x="325" y="70" type="curve" smooth="yes"/>
			<point x="297" y="25"/>
			<point x="262" y="9"/>
		</contour>
	</outline>
</glyph>
<glyph name="seven" format="2">
  <advance width="531"/>
  <unicode hex="0037"/>
  <outline>
    <contour>
      <point x="274.4051194109432" y="-215.0" type="curve" smooth="yes"/>
      <point x="320.4051194109432" y="-215.0"/>
      <point x="320.4051194109432" y="-170.0"/>
      <point x="320.4051194109432" y="-156.0" type="curve" smooth="yes"/>
      <point x="320.4051194109432" y="-115.0" type="line" smooth="yes"/>
      <point x="320.4051194109432" y="44.0"/>
      <point x="347.4051194109432" y="136.0"/>
      <point x="389.4051194109432" y="197.0" type="curve" smooth="yes"/>
      <point x="398.4051194109432" y="210.0"/>
      <point x="432.4051194109432" y="253.0"/>
      <point x="487.4051194109432" y="323.0" type="curve" smooth="yes"/>
      <point x="503.4051194109432" y="344.0"/>
      <point x="520.4051194109433" y="365.0"/>
      <point x="536.4051194109433" y="386.0" type="curve" smooth="yes"/>
      <point x="553.4051194109433" y="406.0"/>
      <point x="553.4051194109433" y="408.0"/>
      <point x="553.4051194109433" y="414.0" type="curve" smooth="yes"/>
      <point x="553.4051194109433" y="431.0"/>
      <point x="543.4051194109433" y="431.0"/>
      <point x="523.4051194109433" y="431.0" type="curve" smooth="yes"/>
      <point x="287.4051194109432" y="431.0" type="line" smooth="yes"/>
      <point x="269.4051194109432" y="431.0"/>
      <point x="236.4051194109432" y="432.0"/>
      <point x="219.4051194109432" y="433.0" type="curve" smooth="yes"/>
      <point x="200.4051194109432" y="435.0"/>
      <point x="175.4051194109432" y="437.0"/>
      <point x="163.4051194109432" y="444.0" type="curve"/>
      <point x="163.4051194109432" y="448.0"/>
      <point x="163.4051194109432" y="463.0"/>
      <point x="148.4051194109432" y="463.0" type="curve" smooth="yes"/>
      <point x="135.4051194109432" y="463.0"/>
      <point x="133.4051194109432" y="455.0"/>
      <point x="130.4051194109432" y="440.0" type="curve" smooth="yes"/>
      <point x="119.4051194109432" y="383.0"/>
      <point x="108.4051194109432" y="325.0"/>
      <point x="97.4051194109432" y="268.0" type="curve"/>
      <point x="97.4051194109432" y="260.0"/>
      <point x="102.4051194109432" y="253.0"/>
      <point x="113.4051194109432" y="253.0" type="curve" smooth="yes"/>
      <point x="125.4051194109432" y="253.0"/>
      <point x="127.4051194109432" y="261.0"/>
      <point x="131.4051194109432" y="280.0" type="curve"/>
      <point x="132.4051194109432" y="288.0"/>
      <point x="144.4051194109432" y="344.0"/>
      <point x="153.4051194109432" y="346.0" type="curve" smooth="yes"/>
      <point x="157.4051194109432" y="347.0"/>
      <point x="197.4051194109432" y="350.0"/>
      <point x="248.4051194109432" y="350.0" type="curve" smooth="yes"/>
      <point x="467.4051194109432" y="350.0" type="line"/>
      <point x="434.4051194109432" y="305.0"/>
      <point x="396.4051194109432" y="259.0"/>
      <point x="370.4051194109432" y="225.0" type="curve" smooth="yes"/>
      <point x="311.4051194109432" y="147.0"/>
      <point x="276.4051194109432" y="72.0"/>
      <point x="256.4051194109432" y="8.0" type="curve" smooth="yes"/>
      <point x="232.4051194109432" y="-66.0"/>
      <point x="228.4051194109432" y="-126.0"/>
      <point x="228.4051194109432" y="-160.0" type="curve" smooth="yes"/>
      <point x="228.4051194109432" y="-169.0"/>
      <point x="228.4051194109432" y="-215.0"/>
    </contour>
  </outline>
</glyph>
<glyph name="eight" format="2">
  <advance width="531"/>
  <unicode hex="0038"/>
  <outline>
    <contour>
      <point x="302.4051194109432" y="-21.0" type="curve" smooth="yes"/>
      <point x="420.4051194109432" y="-21.0"/>
      <point x="524.4051194109433" y="58.0"/>
      <point x="524.4051194109433" y="168.0" type="curve" smooth="yes"/>
      <point x="524.4051194109433" y="265.0"/>
      <point x="446.4051194109432" y="313.0"/>
      <point x="420.4051194109432" y="329.0" type="curve" smooth="yes"/>
      <point x="408.4051194109432" y="336.0"/>
      <point x="379.4051194109432" y="353.0"/>
      <point x="368.4051194109432" y="360.0" type="curve"/>
      <point x="424.4051194109432" y="389.0"/>
      <point x="494.4051194109432" y="435.0"/>
      <point x="494.4051194109432" y="516.0" type="curve" smooth="yes"/>
      <point x="494.4051194109432" y="611.0"/>
      <point x="397.4051194109432" y="665.0"/>
      <point x="304.4051194109432" y="665.0" type="curve" smooth="yes"/>
      <point x="199.4051194109432" y="665.0"/>
      <point x="112.4051194109432" y="593.0"/>
      <point x="112.4051194109432" y="499.0" type="curve" smooth="yes"/>
      <point x="112.4051194109432" y="453.0"/>
      <point x="134.4051194109432" y="403.0"/>
      <point x="186.4051194109432" y="367.0" type="curve" smooth="yes"/>
      <point x="196.4051194109432" y="360.0"/>
      <point x="223.4051194109432" y="344.0"/>
      <point x="234.4051194109432" y="338.0" type="curve"/>
      <point x="168.4051194109432" y="306.0"/>
      <point x="82.4051194109432" y="251.0"/>
      <point x="82.4051194109432" y="152.0" type="curve" smooth="yes"/>
      <point x="82.4051194109432" y="42.0"/>
      <point x="194.4051194109432" y="-21.0"/>
    </contour>
    <contour>
      <point x="304.4051194109432" y="9.0" type="curve" smooth="yes"/>
      <point x="213.4051194109432" y="9.0"/>
      <point x="138.4051194109432" y="70.0"/>
      <point x="138.4051194109432" y="152.0" type="curve" smooth="yes"/>
      <point x="138.4051194109432" y="222.0"/>
      <point x="188.4051194109432" y="283.0"/>
      <point x="266.4051194109432" y="319.0" type="curve"/>
      <point x="310.4051194109432" y="292.0"/>
      <point x="355.4051194109432" y="264.0"/>
      <point x="399.4051194109432" y="237.0" type="curve" smooth="yes"/>
      <point x="434.4051194109432" y="216.0"/>
      <point x="468.4051194109432" y="184.0"/>
      <point x="468.4051194109432" y="134.0" type="curve" smooth="yes"/>
      <point x="468.4051194109432" y="60.0"/>
      <point x="390.4051194109432" y="9.0"/>
    </contour>
    <contour>
      <point x="339.4051194109432" y="378.0" type="curve"/>
      <point x="301.4051194109432" y="400.0"/>
      <point x="263.4051194109432" y="424.0"/>
      <point x="226.4051194109432" y="447.0" type="curve" smooth="yes"/>
      <point x="203.4051194109432" y="461.0"/>
      <point x="162.4051194109432" y="486.0"/>
      <point x="162.4051194109432" y="535.0" type="curve" smooth="yes"/>
      <point x="162.4051194109432" y="600.0"/>
      <point x="232.4051194109432" y="639.0"/>
      <point x="302.4051194109432" y="639.0" type="curve" smooth="yes"/>
      <point x="380.4051194109432" y="639.0"/>
      <point x="444.4051194109432" y="587.0"/>
      <point x="444.4051194109432" y="516.0" type="curve" smooth="yes"/>
      <point x="444.4051194109432" y="457.0"/>
      <point x="400.4051194109432" y="412.0"/>
    </contour>
  </outline>
</glyph>
<glyph name="nine" format="2">
  <advance width="531"/>
  <unicode hex="0039"/>
  <outline>
    <contour>
      <point x="432.4051194109432" y="110.0" type="curve"/>
      <point x="432.4051194109432" y="39.0"/>
      <point x="427.4051194109432" y="-38.0"/>
      <point x="393.4051194109432" y="-97.0" type="curve" smooth="yes"/>
      <point x="366.4051194109432" y="-143.0"/>
      <point x="322.4051194109432" y="-185.0"/>
      <point x="256.4051194109432" y="-185.0" type="curve" smooth="yes"/>
      <point x="245.4051194109432" y="-185.0"/>
      <point x="185.4051194109432" y="-185.0"/>
      <point x="156.4051194109432" y="-152.0" type="curve"/>
      <point x="197.4051194109432" y="-147.0"/>
      <point x="201.4051194109432" y="-117.0"/>
      <point x="201.4051194109432" y="-106.0" type="curve" smooth="yes"/>
      <point x="201.4051194109432" y="-76.0"/>
      <point x="177.4051194109432" y="-60.0"/>
      <point x="155.4051194109432" y="-60.0" type="curve" smooth="yes"/>
      <point x="139.4051194109432" y="-60.0"/>
      <point x="109.4051194109432" y="-70.0"/>
      <point x="109.4051194109432" y="-108.0" type="curve" smooth="yes"/>
      <point x="109.4051194109432" y="-173.0"/>
      <point x="163.4051194109432" y="-215.0"/>
      <point x="257.4051194109432" y="-215.0" type="curve" smooth="yes"/>
      <point x="395.4051194109432" y="-215.0"/>
      <point x="524.4051194109433" y="-82.0"/>
      <point x="524.4051194109433" y="125.0" type="curve" smooth="yes"/>
      <point x="524.4051194109433" y="371.0"/>
      <point x="414.4051194109432" y="452.0"/>
      <point x="306.4051194109432" y="452.0" type="curve" smooth="yes"/>
      <point x="219.4051194109432" y="452.0"/>
      <point x="176.4051194109432" y="413.0"/>
      <point x="149.4051194109432" y="388.0" type="curve" smooth="yes"/>
      <point x="86.4051194109432" y="331.0"/>
      <point x="82.4051194109432" y="269.0"/>
      <point x="82.4051194109432" y="234.0" type="curve" smooth="yes"/>
      <point x="82.4051194109432" y="209.0"/>
      <point x="82.4051194109432" y="141.0"/>
      <point x="146.4051194109432" y="79.0" type="curve" smooth="yes"/>
      <point x="185.4051194109432" y="41.0"/>
      <point x="228.4051194109432" y="17.0"/>
      <point x="291.4051194109432" y="17.0" type="curve" smooth="yes"/>
      <point x="361.4051194109432" y="17.0"/>
      <point x="405.4051194109432" y="58.0"/>
    </contour>
    <contour>
      <point x="296.4051194109432" y="45.0" type="curve" smooth="yes"/>
      <point x="251.4051194109432" y="45.0"/>
      <point x="221.4051194109432" y="63.0"/>
      <point x="197.4051194109432" y="103.0" type="curve" smooth="yes"/>
      <point x="175.4051194109432" y="138.0"/>
      <point x="174.4051194109432" y="181.0"/>
      <point x="174.4051194109432" y="234.0" type="curve" smooth="yes"/>
      <point x="174.4051194109432" y="288.0"/>
      <point x="174.4051194109432" y="330.0"/>
      <point x="200.4051194109432" y="369.0" type="curve" smooth="yes"/>
      <point x="224.4051194109432" y="403.0"/>
      <point x="255.4051194109432" y="426.0"/>
      <point x="307.4051194109432" y="426.0" type="curve" smooth="yes"/>
      <point x="364.4051194109432" y="426.0"/>
      <point x="393.4051194109432" y="382.0"/>
      <point x="404.4051194109432" y="364.0" type="curve" smooth="yes"/>
      <point x="430.4051194109432" y="317.0"/>
      <point x="430.4051194109432" y="226.0"/>
      <point x="430.4051194109432" y="214.0" type="curve" smooth="yes"/>
      <point x="430.4051194109432" y="137.0"/>
      <point x="386.4051194109432" y="45.0"/>
    </contour>
  </outline>
</glyph>
<glyph name="less" format="2">
	<unicode hex="003C"/>
	<advance width="826"/>
	<outline>
		<contour>
			<point x="754.4051194109" y="516" type="line" smooth="yes"/>
			<point x="766.4051194109" y="522"/>
			<point x="775.4051194109" y="528"/>
			<point x="775.4051194109" y="541" type="curve" smooth="yes"/>
			<point x="775.4051194109" y="554"/>
			<point x="765.4051194109" y="564"/>
			<point x="752.4051194109" y="564" type="curve" smooth="yes"/>
			<point x="749.4051194109" y="564"/>
			<point x="747.4051194109" y="564"/>
			<point x="734.4051194109" y="557" type="curve" smooth="yes"/>
			<point x="147.4051194109" y="275" type="line" smooth="yes"/>
			<point x="135.4051194109" y="269"/>
			<point x="126.4051194109" y="263"/>
			<point x="126.4051194109" y="250" type="curve" smooth="yes"/>
			<point x="126.4051194109" y="237"/>
			<point x="135.4051194109" y="231"/>
			<point x="147.4051194109" y="225" type="curve" smooth="yes"/>
			<point x="734.4051194109" y="-57" type="line" smooth="yes"/>
			<point x="747.4051194109" y="-64"/>
			<point x="749.4051194109" y="-64"/>
			<point x="752.4051194109" y="-64" type="curve" smooth="yes"/>
			<point x="765.4051194109" y="-64"/>
			<point x="775.4051194109" y="-54"/>
			<point x="775.4051194109" y="-41" type="curve" smooth="yes"/>
			<point x="775.4051194109" y="-28"/>
			<point x="766.4051194109" y="-22"/>
			<point x="754.4051194109" y="-16" type="curve" smooth="yes"/>
			<point x="202.4051194109" y="250" type="line"/>
		</contour>
	</outline>
</glyph>
<glyph name="greater" format="2">
	<unicode hex="003E"/>
	<advance width="826"/>
	<outline>
		<contour>
			<point x="754.4051194109" y="225" type="line" smooth="yes"/>
			<point x="766.4051194109" y="231"/>
			<point x="775.4051194109" y="237"/>
			<point x="775.4051194109" y="250" type="curve" smooth="yes"/>
			<point x="775.4051194109" y="263"/>
			<point x="766.4051194109" y="269"/>
			<point x="754.4051194109" y="275" type="curve" smooth="yes"/>
			<point x="167.4051194109" y="557" type="line" smooth="yes"/>
			<point x="154.4051194109" y="564"/>
			<point x="152.4051194109" y="564"/>
			<point x="149.4051194109" y="564" type="curve" smooth="yes"/>
			<point x="136.4051194109" y="564"/>
			<point x="126.4051194109" y="554"/>
			<point x="126.4051194109" y="541" type="curve" smooth="yes"/>
			<point x="126.4051194109" y="528"/>
			<point x="135.4051194109" y="522"/>
			<point x="147.4051194109" y="516" type="curve" smooth="yes"/>
			<point x="699.4051194109" y="250" type="line"/>
			<point x="147.4051194109" y="-16" type="line" smooth="yes"/>
			<point x="135.4051194109" y="-22"/>
			<point x="126.4051194109" y="-28"/>
			<point x="126.4051194109" y="-41" type="curve" smooth="yes"/>
			<point x="126.4051194109" y="-54"/>
			<point x="136.4051194109" y="-64"/>
			<point x="149.4051194109" y="-64" type="curve" smooth="yes"/>
			<point x="152.4051194109" y="-64"/>
			<point x="154.4051194109" y="-64"/>
			<point x="167.4051194109" y="-57" type="curve" smooth="yes"/>
		</contour>
	</outline>
</glyph>
<glyph name="A" format="2">
	<unicode hex="0041"/>
	<advance width="1590"/>
	<outline>
		<contour>
			<point x="1096.8102388219" y="462" type="line"/>
			<point x="1103.8102388219" y="405"/>
			<point x="1111.8102388219" y="349"/>
			<point x="1118.8102388219" y="292" type="curve"/>
			<point x="1125.8102388219" y="236"/>
			<point x="1131.8102388219" y="180"/>
			<point x="1138.8102388219" y="124" type="curve"/>
			<point x="1138.8102388219" y="96"/>
			<point x="1102.8102388219" y="66"/>
			<point x="1008.8102388219" y="66" type="curve" smooth="yes"/>
			<point x="978.8102388219" y="66"/>
			<point x="952.8102388219" y="66"/>
			<point x="952.8102388219" y="28" type="curve" smooth="yes"/>
			<point x="952.8102388219" y="26"/>
			<point x="954.8102388219" y="0"/>
			<point x="986.8102388219" y="0" type="curve" smooth="yes"/>
			<point x="1006.8102388219" y="0"/>
			<point x="1082.8102388219" y="6"/>
			<point x="1226.8102388219" y="6" type="curve" smooth="yes"/>
			<point x="1406.8102388219" y="6"/>
			<point x="1440.8102388219" y="0"/>
			<point x="1456.8102388219" y="0" type="curve" smooth="yes"/>
			<point x="1464.8102388219" y="0"/>
			<point x="1496.8102388219" y="0"/>
			<point x="1496.8102388219" y="38" type="curve" smooth="yes"/>
			<point x="1496.8102388219" y="66"/>
			<point x="1470.8102388219" y="66"/>
			<point x="1438.8102388219" y="66" type="curve" smooth="yes"/>
			<point x="1328.8102388219" y="66"/>
			<point x="1326.8102388219" y="84"/>
			<point x="1320.8102388219" y="134" type="curve" smooth="yes"/>
			<point x="1162.8102388219" y="1370" type="line" smooth="yes"/>
			<point x="1156.8102388219" y="1414"/>
			<point x="1154.8102388219" y="1428"/>
			<point x="1120.8102388219" y="1428" type="curve" smooth="yes"/>
			<point x="1084.8102388219" y="1428"/>
			<point x="1072.8102388219" y="1408"/>
			<point x="1060.8102388219" y="1388" type="curve" smooth="yes"/>
			<point x="338.8102388219" y="238" type="line" smooth="yes"/>
			<point x="246.8102388219" y="92"/>
			<point x="164.8102388219" y="72"/>
			<point x="92.8102388219" y="66" type="curve" smooth="yes"/>
			<point x="72.8102388219" y="64"/>
			<point x="48.8102388219" y="62"/>
			<point x="48.8102388219" y="28" type="curve" smooth="yes"/>
			<point x="48.8102388219" y="22"/>
			<point x="52.8102388219" y="0"/>
			<point x="76.8102388219" y="0" type="curve" smooth="yes"/>
			<point x="94.8102388219" y="0"/>
			<point x="106.8102388219" y="6"/>
			<point x="246.8102388219" y="6" type="curve" smooth="yes"/>
			<point x="382.8102388219" y="6"/>
			<point x="428.8102388219" y="0"/>
			<point x="438.8102388219" y="0" type="curve" smooth="yes"/>
			<point x="448.8102388219" y="0"/>
			<point x="478.8102388219" y="0"/>
			<point x="478.8102388219" y="38" type="curve" smooth="yes"/>
			<point x="478.8102388219" y="64"/>
			<point x="452.8102388219" y="66"/>
			<point x="442.8102388219" y="66" type="curve" smooth="yes"/>
			<point x="400.8102388219" y="68"/>
			<point x="358.8102388219" y="84"/>
			<point x="358.8102388219" y="128" type="curve" smooth="yes"/>
			<point x="358.8102388219" y="158"/>
			<point x="374.8102388219" y="184"/>
			<point x="412.8102388219" y="242" type="curve" smooth="yes"/>
			<point x="548.8102388219" y="462" type="line"/>
			<point x="548.8102388219" y="462"/>
			<point x="548.8102388219" y="462"/>
			<point x="548.8102388219" y="462" type="curve"/>
		</contour>
		<contour>
			<point x="590.8102388219" y="528" type="line"/>
			<point x="1004.8102388219" y="1186" type="line"/>
			<point x="1088.8102388219" y="528" type="line"/>
		</contour>
	</outline>
</glyph>
<glyph name="B" format="2">
	<unicode hex="0042"/>
	<advance width="1602"/>
	<outline>
		<contour>
			<point x="1452.8102388219" y="428" type="curve" smooth="yes"/>
			<point x="1452.8102388219" y="574"/>
			<point x="1326.8102388219" y="692"/>
			<point x="1126.8102388219" y="714" type="curve"/>
			<point x="1358.8102388219" y="758"/>
			<point x="1558.8102388219" y="910"/>
			<point x="1558.8102388219" y="1086" type="curve" smooth="yes"/>
			<point x="1558.8102388219" y="1236"/>
			<point x="1412.8102388219" y="1366"/>
			<point x="1160.8102388219" y="1366" type="curve" smooth="yes"/>
			<point x="462.8102388219" y="1366" type="line" smooth="yes"/>
			<point x="426.8102388219" y="1366"/>
			<point x="400.8102388219" y="1366"/>
			<point x="400.8102388219" y="1328" type="curve" smooth="yes"/>
			<point x="400.8102388219" y="1300"/>
			<point x="424.8102388219" y="1300"/>
			<point x="458.8102388219" y="1300" type="curve" smooth="yes"/>
			<point x="466.8102388219" y="1300"/>
			<point x="474.8102388219" y="1300"/>
			<point x="494.8102388219" y="1300" type="curve" smooth="yes"/>
			<point x="562.8102388219" y="1300"/>
			<point x="582.8102388219" y="1288"/>
			<point x="582.8102388219" y="1270" type="curve" smooth="yes"/>
			<point x="582.8102388219" y="1264"/>
			<point x="580.8102388219" y="1256"/>
			<point x="574.8102388219" y="1232" type="curve" smooth="yes"/>
			<point x="306.8102388219" y="158" type="line" smooth="yes"/>
			<point x="288.8102388219" y="82"/>
			<point x="284.8102388219" y="66"/>
			<point x="136.8102388219" y="66" type="curve" smooth="yes"/>
			<point x="98.8102388219" y="66"/>
			<point x="74.8102388219" y="66"/>
			<point x="74.8102388219" y="28" type="curve" smooth="yes"/>
			<point x="74.8102388219" y="0"/>
			<point x="100.8102388219" y="0"/>
			<point x="134.8102388219" y="0" type="curve" smooth="yes"/>
			<point x="876.8102388219" y="0" type="line" smooth="yes"/>
			<point x="1206.8102388219" y="0"/>
			<point x="1452.8102388219" y="234"/>
		</contour>
		<contour>
			<point x="1370.8102388219" y="1090" type="curve" smooth="yes"/>
			<point x="1370.8102388219" y="920"/>
			<point x="1188.8102388219" y="738"/>
			<point x="932.8102388219" y="738" type="curve" smooth="yes"/>
			<point x="618.8102388219" y="738" type="line"/>
			<point x="740.8102388219" y="1226" type="line" smooth="yes"/>
			<point x="758.8102388219" y="1294"/>
			<point x="760.8102388219" y="1300"/>
			<point x="842.8102388219" y="1300" type="curve" smooth="yes"/>
			<point x="1130.8102388219" y="1300" type="line" smooth="yes"/>
			<point x="1326.8102388219" y="1300"/>
			<point x="1370.8102388219" y="1172"/>
		</contour>
		<contour>
			<point x="1258.8102388219" y="444" type="curve" smooth="yes"/>
			<point x="1258.8102388219" y="248"/>
			<point x="1066.8102388219" y="66"/>
			<point x="826.8102388219" y="66" type="curve" smooth="yes"/>
			<point x="480.8102388219" y="66" type="line" smooth="yes"/>
			<point x="442.8102388219" y="66"/>
			<point x="458.8102388219" y="104"/>
			<point x="464.8102388219" y="128" type="curve" smooth="yes"/>
			<point x="604.8102388219" y="682" type="line"/>
			<point x="1010.8102388219" y="682" type="line" smooth="yes"/>
			<point x="1196.8102388219" y="682"/>
			<point x="1258.8102388219" y="556"/>
		</contour>
	</outline>
</glyph>
<glyph name="C" format="2">
	<unicode hex="0043"/>
	<advance width="757"/>
	<outline>
		<contour>
			<point x="6" y="259" type="curve" smooth="yes"/>
			<point x="6" y="85"/>
			<point x="138" y="-21"/>
			<point x="297" y="-21" type="curve" smooth="yes"/>
			<point x="394.36444" y="-21"/>
			<point x="480" y="23"/>
			<point x="540.7578877487" y="77.9106265479" type="curve" smooth="yes"/>
			<point x="618" y="147"/>
			<point x="639" y="233"/>
			<point x="639" y="240" type="curve" smooth="yes"/>
			<point x="639" y="249"/>
			<point x="633" y="253"/>
			<point x="624" y="253" type="curve" smooth="yes"/>
			<point x="612" y="253"/>
			<point x="610" y="248"/>
			<point x="607" y="237" type="curve" smooth="yes"/>
			<point x="590.73718" y="183.56502"/>
			<point x="560.5307226787" y="137.7765507891"/>
			<point x="522.6505689735" y="101.7245726798" type="curve" smooth="yes"/>
			<point x="462.7022737615" y="44.6695078167"/>
			<point x="383.5348" y="12"/>
			<point x="310" y="12" type="curve" smooth="yes"/>
			<point x="208" y="12"/>
			<point x="101" y="72"/>
			<point x="101" y="225" type="curve" smooth="yes"/>
			<point x="101" y="257"/>
			<point x="112" y="424"/>
			<point x="223" y="549" type="curve" smooth="yes"/>
			<point x="298" y="633"/>
			<point x="400" y="671"/>
			<point x="479" y="671" type="curve" smooth="yes"/>
			<point x="605" y="671"/>
			<point x="657" y="570"/>
			<point x="657" y="475" type="curve" smooth="yes"/>
			<point x="657" y="461"/>
			<point x="653" y="442"/>
			<point x="653" y="430" type="curve" smooth="yes"/>
			<point x="653" y="417"/>
			<point x="666" y="417"/>
			<point x="670" y="417" type="curve" smooth="yes"/>
			<point x="683" y="417"/>
			<point x="685" y="421"/>
			<point x="689" y="439" type="curve" smooth="yes"/>
			<point x="749" y="677" type="line" smooth="yes"/>
			<point x="750" y="681"/>
			<point x="752" y="687"/>
			<point x="752" y="692" type="curve" smooth="yes"/>
			<point x="752" y="699"/>
			<point x="746" y="704"/>
			<point x="739" y="704" type="curve" smooth="yes"/>
			<point x="732" y="704"/>
			<point x="729" y="701"/>
			<point x="721" y="692" type="curve" smooth="yes"/>
			<point x="651" y="615" type="line"/>
			<point x="651" y="615"/>
			<point x="651" y="615"/>
			<point x="651" y="615" type="curve"/>
			<point x="651" y="615"/>
			<point x="651" y="615"/>
			<point x="651" y="615" type="curve"/>
			<point x="642" y="628"/>
			<point x="589" y="704"/>
			<point x="472" y="704" type="curve" smooth="yes"/>
			<point x="240" y="704"/>
			<point x="6" y="489"/>
		</contour>
	</outline>
</glyph>
<glyph name="D" format="2">
	<unicode hex="0044"/>
	<advance width="1742"/>
	<outline>
		<contour>
			<point x="1598" y="850" type="curve" smooth="yes"/>
			<point x="1598" y="1156"/>
			<point x="1394" y="1366"/>
			<point x="1096" y="1366" type="curve" smooth="yes"/>
			<point x="396" y="1366" type="line" smooth="yes"/>
			<point x="360" y="1366"/>
			<point x="334" y="1366"/>
			<point x="334" y="1328" type="curve" smooth="yes"/>
			<point x="334" y="1300"/>
			<point x="358" y="1300"/>
			<point x="392" y="1300" type="curve" smooth="yes"/>
			<point x="419" y="1300"/>
			<point x="444" y="1300"/>
			<point x="465" y="1298" type="curve" smooth="yes"/>
			<point x="496" y="1294"/>
			<point x="516" y="1287"/>
			<point x="516" y="1268" type="curve" smooth="yes"/>
			<point x="516" y="1260"/>
			<point x="514" y="1258"/>
			<point x="508" y="1232" type="curve" smooth="yes"/>
			<point x="240" y="158" type="line" smooth="yes"/>
			<point x="222" y="82"/>
			<point x="218" y="66"/>
			<point x="70" y="66" type="curve" smooth="yes"/>
			<point x="32" y="66"/>
			<point x="8" y="66"/>
			<point x="8" y="28" type="curve" smooth="yes"/>
			<point x="8" y="0"/>
			<point x="34" y="0"/>
			<point x="68" y="0" type="curve" smooth="yes"/>
			<point x="756" y="0" type="line" smooth="yes"/>
			<point x="1178" y="0"/>
			<point x="1598" y="404"/>
		</contour>
		<contour>
			<point x="682" y="1226" type="line" smooth="yes"/>
			<point x="700" y="1294"/>
			<point x="702" y="1300"/>
			<point x="784" y="1300" type="curve" smooth="yes"/>
			<point x="1026" y="1300" type="line" smooth="yes"/>
			<point x="1260" y="1300"/>
			<point x="1418" y="1166"/>
			<point x="1418" y="922" type="curve" smooth="yes"/>
			<point x="1418" y="856"/>
			<point x="1390" y="530"/>
			<point x="1216" y="306" type="curve" smooth="yes"/>
			<point x="1128" y="194"/>
			<point x="956" y="66"/>
			<point x="720" y="66" type="curve" smooth="yes"/>
			<point x="426" y="66" type="line" smooth="yes"/>
			<point x="386" y="66"/>
			<point x="398" y="94"/>
			<point x="406" y="128" type="curve" smooth="yes"/>
		</contour>
	</outline>
</glyph>
<glyph name="E" format="2">
	<unicode hex="0045"/>
	<advance width="778"/>
	<outline>
		<contour>
			<point x="204.4051194109" y="79" type="line" smooth="yes"/>
			<point x="195.4051194109" y="41"/>
			<point x="193.4051194109" y="33"/>
			<point x="119.4051194109" y="33" type="curve" smooth="yes"/>
			<point x="100.4051194109" y="33"/>
			<point x="88.4051194109" y="33"/>
			<point x="88.4051194109" y="14" type="curve" smooth="yes"/>
			<point x="88.4051194109" y="0"/>
			<point x="101.4051194109" y="0"/>
			<point x="118.4051194109" y="0" type="curve" smooth="yes"/>
			<point x="659.4051194109" y="0" type="line" smooth="yes"/>
			<point x="684.4051194109" y="0"/>
			<point x="685.4051194109" y="0"/>
			<point x="693.4051194109" y="18" type="curve" smooth="yes"/>
			<point x="787.4051194109" y="232" type="line" smooth="yes"/>
			<point x="789.4051194109" y="236"/>
			<point x="791.4051194109" y="242"/>
			<point x="791.4051194109" y="246" type="curve" smooth="yes"/>
			<point x="791.4051194109" y="248"/>
			<point x="790.4051194109" y="260"/>
			<point x="776.4051194109" y="260" type="curve" smooth="yes"/>
			<point x="765.4051194109" y="260"/>
			<point x="764.4051194109" y="257"/>
			<point x="754.4051194109" y="235" type="curve" smooth="yes"/>
			<point x="690.4051194109" y="89"/>
			<point x="643.4051194109" y="33"/>
			<point x="480.4051194109" y="33" type="curve" smooth="yes"/>
			<point x="298.4051194109" y="33" type="line" smooth="yes"/>
			<point x="279.4051194109" y="33"/>
			<point x="287.4051194109" y="53"/>
			<point x="290.4051194109" y="64" type="curve" smooth="yes"/>
			<point x="359.4051194109" y="337" type="line"/>
			<point x="466.4051194109" y="337" type="line" smooth="yes"/>
			<point x="539.4051194109" y="337"/>
			<point x="554.4051194109" y="325"/>
			<point x="554.4051194109" y="293" type="curve" smooth="yes"/>
			<point x="554.4051194109" y="292"/>
			<point x="554.4051194109" y="276"/>
			<point x="546.4051194109" y="245" type="curve" smooth="yes"/>
			<point x="543.4051194109" y="232"/>
			<point x="544.4051194109" y="220"/>
			<point x="559.4051194109" y="220" type="curve" smooth="yes"/>
			<point x="571.4051194109" y="220"/>
			<point x="573.4051194109" y="226"/>
			<point x="577.4051194109" y="243" type="curve" smooth="yes"/>
			<point x="632.4051194109" y="460" type="line" smooth="yes"/>
			<point x="638.4051194109" y="482"/>
			<point x="627.4051194109" y="487"/>
			<point x="619.4051194109" y="487" type="curve" smooth="yes"/>
			<point x="606.4051194109" y="487"/>
			<point x="605.4051194109" y="480"/>
			<point x="600.4051194109" y="463" type="curve" smooth="yes"/>
			<point x="580.4051194109" y="385"/>
			<point x="553.4051194109" y="370"/>
			<point x="467.4051194109" y="370" type="curve" smooth="yes"/>
			<point x="367.4051194109" y="370" type="line"/>
			<point x="387.3851194109" y="449.587"/>
			<point x="407.3651194109" y="529.174"/>
			<point x="427.4051194109" y="609" type="curve" smooth="yes"/>
			<point x="436.4051194109" y="645"/>
			<point x="437.4051194109" y="647"/>
			<point x="478.4051194109" y="647" type="curve" smooth="yes"/>
			<point x="634.4051194109" y="647" type="line" smooth="yes"/>
			<point x="754.4051194109" y="647"/>
			<point x="792.4051194109" y="623"/>
			<point x="792.4051194109" y="535" type="curve" smooth="yes"/>
			<point x="792.4051194109" y="514"/>
			<point x="787.4051194109" y="489"/>
			<point x="787.4051194109" y="470" type="curve" smooth="yes"/>
			<point x="787.4051194109" y="458"/>
			<point x="794.4051194109" y="453"/>
			<point x="802.4051194109" y="453" type="curve" smooth="yes"/>
			<point x="816.4051194109" y="453"/>
			<point x="817.4051194109" y="462"/>
			<point x="819.4051194109" y="479" type="curve" smooth="yes"/>
			<point x="825.3991194109" y="535.61"/>
			<point x="831.3931194109" y="592.22"/>
			<point x="837.4051194109" y="649" type="curve" smooth="yes"/>
			<point x="840.4051194109" y="678"/>
			<point x="838.4051194109" y="680"/>
			<point x="808.4051194109" y="680" type="curve" smooth="yes"/>
			<point x="281.4051194109" y="680" type="line" smooth="yes"/>
			<point x="262.4051194109" y="680"/>
			<point x="250.4051194109" y="680"/>
			<point x="250.4051194109" y="661" type="curve" smooth="yes"/>
			<point x="250.4051194109" y="647"/>
			<point x="263.4051194109" y="647"/>
			<point x="280.4051194109" y="647" type="curve" smooth="yes"/>
			<point x="283.4051194109" y="647"/>
			<point x="297.4051194109" y="647"/>
			<point x="319.4051194109" y="645" type="curve" smooth="yes"/>
			<point x="344.4051194109" y="642"/>
			<point x="344.4051194109" y="638"/>
			<point x="338.4051194109" y="615" type="curve" smooth="yes"/>
		</contour>
	</outline>
</glyph>
<glyph name="F" format="2">
  <advance width="672"/>
  <unicode hex="0046"/>
  <outline>
    <contour>
      <point x="354.4051194109432" y="324.0" type="line"/>
      <point x="458.4051194109432" y="324.0" type="line" smooth="yes"/>
      <point x="540.4051194109433" y="324.0"/>
      <point x="544.4051194109433" y="308.0"/>
      <point x="544.4051194109433" y="279.0" type="curve" smooth="yes"/>
      <point x="544.4051194109433" y="256.0"/>
      <point x="535.4051194109433" y="231.0"/>
      <point x="535.4051194109433" y="221.0" type="curve" smooth="yes"/>
      <point x="535.4051194109433" y="220.0"/>
      <point x="535.4051194109433" y="207.0"/>
      <point x="550.4051194109433" y="207.0" type="curve" smooth="yes"/>
      <point x="562.4051194109433" y="207.0"/>
      <point x="565.4051194109433" y="217.0"/>
      <point x="568.4051194109433" y="230.0" type="curve" smooth="yes"/>
      <point x="624.4051194109433" y="454.0" type="line" smooth="yes"/>
      <point x="625.4051194109433" y="459.0"/>
      <point x="626.4051194109433" y="474.0"/>
      <point x="609.4051194109433" y="474.0" type="curve" smooth="yes"/>
      <point x="597.4051194109433" y="474.0"/>
      <point x="595.4051194109433" y="465.0"/>
      <point x="592.4051194109433" y="453.0" type="curve" smooth="yes"/>
      <point x="572.4051194109433" y="375.0"/>
      <point x="549.4051194109433" y="357.0"/>
      <point x="460.4051194109432" y="357.0" type="curve" smooth="yes"/>
      <point x="363.4051194109432" y="357.0" type="line"/>
      <point x="384.3841194109432" y="440.916"/>
      <point x="405.3631194109432" y="524.832"/>
      <point x="426.4051194109432" y="609.0" type="curve" smooth="yes"/>
      <point x="435.4051194109432" y="645.0"/>
      <point x="436.4051194109432" y="647.0"/>
      <point x="477.4051194109432" y="647.0" type="curve" smooth="yes"/>
      <point x="624.4051194109433" y="647.0" type="line" smooth="yes"/>
      <point x="743.4051194109433" y="647.0"/>
      <point x="777.4051194109433" y="622.0"/>
      <point x="777.4051194109433" y="536.0" type="curve" smooth="yes"/>
      <point x="777.4051194109433" y="515.0"/>
      <point x="772.4051194109433" y="489.0"/>
      <point x="772.4051194109433" y="470.0" type="curve" smooth="yes"/>
      <point x="772.4051194109433" y="458.0"/>
      <point x="779.4051194109433" y="453.0"/>
      <point x="787.4051194109433" y="453.0" type="curve" smooth="yes"/>
      <point x="801.4051194109433" y="453.0"/>
      <point x="802.4051194109433" y="462.0"/>
      <point x="804.4051194109433" y="479.0" type="curve" smooth="yes"/>
      <point x="823.4051194109433" y="658.0" type="line" smooth="yes"/>
      <point x="825.4051194109433" y="678.0"/>
      <point x="818.4051194109433" y="680.0"/>
      <point x="795.4051194109433" y="680.0" type="curve" smooth="yes"/>
      <point x="280.4051194109432" y="680.0" type="line" smooth="yes"/>
      <point x="262.4051194109432" y="680.0"/>
      <point x="249.4051194109432" y="680.0"/>
      <point x="249.4051194109432" y="662.0" type="curve" smooth="yes"/>
      <point x="249.4051194109432" y="647.0"/>
      <point x="261.4051194109432" y="647.0"/>
      <point x="278.4051194109432" y="647.0" type="curve" smooth="yes"/>
      <point x="285.4051194109432" y="647.0"/>
      <point x="299.4051194109432" y="647.0"/>
      <point x="316.4051194109432" y="645.0" type="curve" smooth="yes"/>
      <point x="337.4051194109432" y="643.0"/>
      <point x="340.4051194109432" y="641.0"/>
      <point x="340.4051194109432" y="631.0" type="curve" smooth="yes"/>
      <point x="340.4051194109432" y="626.0"/>
      <point x="339.4051194109432" y="622.0"/>
      <point x="336.4051194109432" y="611.0" type="curve" smooth="yes"/>
      <point x="203.4051194109432" y="79.0" type="line" smooth="yes"/>
      <point x="194.4051194109432" y="41.0"/>
      <point x="191.4051194109432" y="33.0"/>
      <point x="118.4051194109432" y="33.0" type="curve" smooth="yes"/>
      <point x="99.4051194109432" y="33.0"/>
      <point x="87.4051194109432" y="33.0"/>
      <point x="87.4051194109432" y="14.0" type="curve" smooth="yes"/>
      <point x="87.4051194109432" y="10.0"/>
      <point x="90.4051194109432" y="0.0"/>
      <point x="103.4051194109432" y="0.0" type="curve" smooth="yes"/>
      <point x="124.4051194109432" y="0.0"/>
      <point x="148.4051194109432" y="3.0"/>
      <point x="170.4051194109432" y="3.0" type="curve" smooth="yes"/>
      <point x="216.4051194109432" y="4.0"/>
      <point x="262.4051194109432" y="4.0"/>
      <point x="308.4051194109432" y="3.0" type="curve" smooth="yes"/>
      <point x="327.4051194109432" y="3.0"/>
      <point x="363.4051194109432" y="0.0"/>
      <point x="382.4051194109432" y="0.0" type="curve" smooth="yes"/>
      <point x="389.4051194109432" y="0.0"/>
      <point x="403.4051194109432" y="0.0"/>
      <point x="403.4051194109432" y="19.0" type="curve" smooth="yes"/>
      <point x="403.4051194109432" y="33.0"/>
      <point x="391.4051194109432" y="33.0"/>
      <point x="370.4051194109432" y="33.0" type="curve" smooth="yes"/>
      <point x="349.4051194109432" y="33.0"/>
      <point x="341.4051194109432" y="33.0"/>
      <point x="318.4051194109432" y="35.0" type="curve" smooth="yes"/>
      <point x="291.4051194109432" y="38.0"/>
      <point x="288.4051194109432" y="41.0"/>
      <point x="288.4051194109432" y="53.0" type="curve" smooth="yes"/>
      <point x="288.4051194109432" y="54.0"/>
      <point x="288.4051194109432" y="60.0"/>
      <point x="292.4051194109432" y="75.0" type="curve" smooth="yes"/>
    </contour>
  </outline>
</glyph>
<glyph name="G" format="2">
	<unicode hex="0047"/>
	<advance width="827"/>
	<outline>
		<contour>
			<point x="6" y="259" type="curve" smooth="yes"/>
			<point x="6" y="92"/>
			<point x="130" y="-21"/>
			<point x="300" y="-21" type="curve" smooth="yes"/>
			<point x="408" y="-21"/>
			<point x="488" y="18"/>
			<point x="525" y="61" type="curve"/>
			<point x="537" y="29"/>
			<point x="561" y="1"/>
			<point x="571" y="1" type="curve" smooth="yes"/>
			<point x="575" y="1"/>
			<point x="580" y="3"/>
			<point x="582" y="7" type="curve"/>
			<point x="596" y="50"/>
			<point x="631" y="218"/>
			<point x="641" y="230" type="curve" smooth="yes"/>
			<point x="651" y="242"/>
			<point x="669" y="243"/>
			<point x="699" y="243" type="curve" smooth="yes"/>
			<point x="704" y="243"/>
			<point x="719" y="243"/>
			<point x="719" y="261" type="curve" smooth="yes"/>
			<point x="719" y="271"/>
			<point x="712" y="276"/>
			<point x="704" y="276" type="curve" smooth="yes"/>
			<point x="697" y="276"/>
			<point x="685" y="273"/>
			<point x="632" y="273" type="curve" smooth="yes"/>
			<point x="593" y="273"/>
			<point x="529" y="273"/>
			<point x="514" y="274" type="curve" smooth="yes"/>
			<point x="499" y="275"/>
			<point x="459" y="276"/>
			<point x="444" y="276" type="curve" smooth="yes"/>
			<point x="438" y="276"/>
			<point x="423" y="276"/>
			<point x="423" y="257" type="curve" smooth="yes"/>
			<point x="423" y="243"/>
			<point x="434" y="243"/>
			<point x="460" y="243" type="curve" smooth="yes"/>
			<point x="481" y="243"/>
			<point x="501" y="242"/>
			<point x="524" y="239" type="curve" smooth="yes"/>
			<point x="542" y="237"/>
			<point x="545" y="234"/>
			<point x="545" y="223" type="curve" smooth="yes"/>
			<point x="545" y="215"/>
			<point x="521" y="119"/>
			<point x="515" y="104" type="curve"/>
			<point x="499.808" y="72.19175"/>
			<point x="469.9658084375" y="49.849777625"/>
			<point x="435.4246806252" y="35.155036205" type="curve" smooth="yes"/>
			<point x="397.20935175" y="18.8971890625"/>
			<point x="353.24225" y="12"/>
			<point x="317" y="12" type="curve" smooth="yes"/>
			<point x="218" y="12"/>
			<point x="102" y="64"/>
			<point x="102" y="227" type="curve" smooth="yes"/>
			<point x="102" y="310"/>
			<point x="136" y="454"/>
			<point x="224" y="550" type="curve" smooth="yes"/>
			<point x="320" y="654"/>
			<point x="428" y="671"/>
			<point x="480" y="671" type="curve" smooth="yes"/>
			<point x="602" y="671"/>
			<point x="658" y="575"/>
			<point x="658" y="474" type="curve" smooth="yes"/>
			<point x="658" y="460"/>
			<point x="654" y="442"/>
			<point x="654" y="430" type="curve" smooth="yes"/>
			<point x="654" y="417"/>
			<point x="667" y="417"/>
			<point x="671" y="417" type="curve" smooth="yes"/>
			<point x="684" y="417"/>
			<point x="685" y="421"/>
			<point x="690" y="439" type="curve" smooth="yes"/>
			<point x="752" y="684" type="line" smooth="yes"/>
			<point x="755" y="695"/>
			<point x="752" y="704"/>
			<point x="740" y="704" type="curve" smooth="yes"/>
			<point x="733" y="704"/>
			<point x="730" y="701"/>
			<point x="722" y="692" type="curve" smooth="yes"/>
			<point x="652" y="615" type="line"/>
			<point x="652" y="615"/>
			<point x="652" y="615"/>
			<point x="652" y="615" type="curve"/>
			<point x="606" y="679"/>
			<point x="541" y="704"/>
			<point x="473" y="704" type="curve" smooth="yes"/>
			<point x="239" y="704"/>
			<point x="6" y="488"/>
		</contour>
	</outline>
</glyph>
<glyph name="H" format="2">
  <advance width="872"/>
  <unicode hex="0048"/>
  <outline>
    <contour>
      <point x="359.4051194109432" y="339.0" type="line"/>
      <point x="681.4051194109433" y="339.0" type="line"/>
      <point x="652.4051194109433" y="221.0"/>
      <point x="618.4051194109433" y="87.0"/>
      <point x="612.4051194109433" y="65.0" type="curve" smooth="yes"/>
      <point x="603.4051194109433" y="32.0"/>
      <point x="580.4051194109433" y="34.0"/>
      <point x="525.4051194109433" y="33.0" type="curve" smooth="yes"/>
      <point x="513.4051194109433" y="33.0"/>
      <point x="500.4051194109432" y="33.0"/>
      <point x="500.4051194109432" y="14.0" type="curve" smooth="yes"/>
      <point x="500.4051194109432" y="10.0"/>
      <point x="503.4051194109432" y="0.0"/>
      <point x="516.4051194109433" y="0.0" type="curve" smooth="yes"/>
      <point x="535.4051194109433" y="0.0"/>
      <point x="559.4051194109433" y="3.0"/>
      <point x="611.4051194109433" y="3.0" type="curve" smooth="yes"/>
      <point x="634.3821194109432" y="3.0"/>
      <point x="657.3591194109432" y="3.0"/>
      <point x="680.4051194109433" y="3.0" type="curve" smooth="yes"/>
      <point x="738.4051194109433" y="3.0"/>
      <point x="764.4051194109433" y="0.0"/>
      <point x="771.4051194109433" y="0.0" type="curve" smooth="yes"/>
      <point x="777.4051194109433" y="0.0"/>
      <point x="791.4051194109433" y="0.0"/>
      <point x="791.4051194109433" y="19.0" type="curve" smooth="yes"/>
      <point x="791.4051194109433" y="33.0"/>
      <point x="778.4051194109433" y="33.0"/>
      <point x="761.4051194109433" y="33.0" type="curve" smooth="yes"/>
      <point x="758.4051194109433" y="33.0"/>
      <point x="740.4051194109433" y="33.0"/>
      <point x="723.4051194109433" y="35.0" type="curve" smooth="yes"/>
      <point x="702.4051194109433" y="37.0"/>
      <point x="700.4051194109433" y="40.0"/>
      <point x="700.4051194109433" y="49.0" type="curve" smooth="yes"/>
      <point x="700.4051194109433" y="54.0"/>
      <point x="702.4051194109433" y="60.0"/>
      <point x="703.4051194109433" y="65.0" type="curve" smooth="yes"/>
      <point x="837.4051194109433" y="602.0" type="line" smooth="yes"/>
      <point x="847.4051194109433" y="641.0"/>
      <point x="849.4051194109433" y="650.0"/>
      <point x="919.4051194109433" y="650.0" type="curve" smooth="yes"/>
      <point x="942.4051194109433" y="650.0"/>
      <point x="954.4051194109433" y="650.0"/>
      <point x="954.4051194109433" y="669.0" type="curve" smooth="yes"/>
      <point x="954.4051194109433" y="670.0"/>
      <point x="953.4051194109433" y="683.0"/>
      <point x="937.4051194109433" y="683.0" type="curve" smooth="yes"/>
      <point x="918.4051194109433" y="683.0"/>
      <point x="894.4051194109433" y="680.0"/>
      <point x="845.4051194109433" y="680.0" type="curve" smooth="yes"/>
      <point x="824.4261194109432" y="680.0"/>
      <point x="803.4471194109432" y="680.0"/>
      <point x="782.4051194109433" y="680.0" type="curve" smooth="yes"/>
      <point x="716.4051194109433" y="680.0"/>
      <point x="690.4051194109433" y="683.0"/>
      <point x="683.4051194109433" y="683.0" type="curve" smooth="yes"/>
      <point x="679.4051194109433" y="683.0"/>
      <point x="663.4051194109433" y="683.0"/>
      <point x="663.4051194109433" y="664.0" type="curve" smooth="yes"/>
      <point x="663.4051194109433" y="650.0"/>
      <point x="676.4051194109433" y="650.0"/>
      <point x="692.4051194109433" y="650.0" type="curve" smooth="yes"/>
      <point x="705.7117094109432" y="650.0"/>
      <point x="718.3679216793432" y="650.0"/>
      <point x="728.7346823867432" y="648.9509927491" type="curve" smooth="yes"/>
      <point x="744.0772208568432" y="647.3984890736"/>
      <point x="754.4051194109433" y="643.54832"/>
      <point x="754.4051194109433" y="634.0" type="curve" smooth="yes"/>
      <point x="754.4051194109433" y="630.0"/>
      <point x="753.4051194109433" y="629.0"/>
      <point x="750.4051194109433" y="616.0" type="curve" smooth="yes"/>
      <point x="690.4051194109433" y="372.0" type="line"/>
      <point x="368.4051194109432" y="372.0" type="line"/>
      <point x="426.4051194109432" y="605.0" type="line" smooth="yes"/>
      <point x="435.4051194109432" y="641.0"/>
      <point x="437.4051194109432" y="650.0"/>
      <point x="510.4051194109432" y="650.0" type="curve" smooth="yes"/>
      <point x="530.4051194109433" y="650.0"/>
      <point x="542.4051194109433" y="650.0"/>
      <point x="542.4051194109433" y="669.0" type="curve" smooth="yes"/>
      <point x="542.4051194109433" y="670.0"/>
      <point x="541.4051194109433" y="683.0"/>
      <point x="525.4051194109433" y="683.0" type="curve" smooth="yes"/>
      <point x="506.4051194109432" y="683.0"/>
      <point x="482.4051194109432" y="680.0"/>
      <point x="423.4051194109432" y="680.0" type="curve" smooth="yes"/>
      <point x="402.4261194109432" y="680.0"/>
      <point x="381.4471194109432" y="680.0"/>
      <point x="360.4051194109432" y="680.0" type="curve" smooth="yes"/>
      <point x="304.4051194109432" y="680.0"/>
      <point x="278.4051194109432" y="683.0"/>
      <point x="271.4051194109432" y="683.0" type="curve" smooth="yes"/>
      <point x="267.4051194109432" y="683.0"/>
      <point x="251.4051194109432" y="683.0"/>
      <point x="251.4051194109432" y="664.0" type="curve" smooth="yes"/>
      <point x="251.4051194109432" y="650.0"/>
      <point x="264.4051194109432" y="650.0"/>
      <point x="280.4051194109432" y="650.0" type="curve" smooth="yes"/>
      <point x="293.71170941094323" y="650.0"/>
      <point x="306.3679216793432" y="650.0"/>
      <point x="316.7346823867432" y="648.9509927491" type="curve" smooth="yes"/>
      <point x="332.0772208568432" y="647.3984890736"/>
      <point x="342.4051194109432" y="643.54832"/>
      <point x="342.4051194109432" y="634.0" type="curve" smooth="yes"/>
      <point x="342.4051194109432" y="630.0"/>
      <point x="341.4051194109432" y="629.0"/>
      <point x="338.4051194109432" y="616.0" type="curve" smooth="yes"/>
      <point x="204.4051194109432" y="79.0" type="line" smooth="yes"/>
      <point x="195.4051194109432" y="41.0"/>
      <point x="193.4051194109432" y="33.0"/>
      <point x="119.4051194109432" y="33.0" type="curve" smooth="yes"/>
      <point x="100.4051194109432" y="33.0"/>
      <point x="88.4051194109432" y="33.0"/>
      <point x="88.4051194109432" y="14.0" type="curve" smooth="yes"/>
      <point x="88.4051194109432" y="10.0"/>
      <point x="91.4051194109432" y="0.0"/>
      <point x="104.4051194109432" y="0.0" type="curve" smooth="yes"/>
      <point x="123.4051194109432" y="0.0"/>
      <point x="177.4051194109432" y="3.0"/>
      <point x="198.4051194109432" y="3.0" type="curve" smooth="yes"/>
      <point x="223.3801194109432" y="3.0"/>
      <point x="248.3551194109432" y="3.0"/>
      <point x="273.4051194109432" y="3.0" type="curve" smooth="yes"/>
      <point x="326.4051194109432" y="3.0"/>
      <point x="352.4051194109432" y="0.0"/>
      <point x="359.4051194109432" y="0.0" type="curve" smooth="yes"/>
      <point x="365.4051194109432" y="0.0"/>
      <point x="379.4051194109432" y="0.0"/>
      <point x="379.4051194109432" y="19.0" type="curve" smooth="yes"/>
      <point x="379.4051194109432" y="33.0"/>
      <point x="366.4051194109432" y="33.0"/>
      <point x="349.4051194109432" y="33.0" type="curve" smooth="yes"/>
      <point x="346.4051194109432" y="33.0"/>
      <point x="328.4051194109432" y="33.0"/>
      <point x="311.4051194109432" y="35.0" type="curve" smooth="yes"/>
      <point x="290.4051194109432" y="37.0"/>
      <point x="288.4051194109432" y="40.0"/>
      <point x="288.4051194109432" y="49.0" type="curve" smooth="yes"/>
      <point x="288.4051194109432" y="54.0"/>
      <point x="290.4051194109432" y="60.0"/>
      <point x="291.4051194109432" y="65.0" type="curve" smooth="yes"/>
    </contour>
  </outline>
</glyph>
<glyph name="I" format="2">
	<unicode hex="0049"/>
	<advance width="920"/>
	<outline>
		<contour>
			<point x="300.8102388219" y="158" type="line" smooth="yes"/>
			<point x="282.8102388219" y="86"/>
			<point x="276.8102388219" y="66"/>
			<point x="128.8102388219" y="66" type="curve" smooth="yes"/>
			<point x="80.8102388219" y="66"/>
			<point x="58.8102388219" y="66"/>
			<point x="58.8102388219" y="28" type="curve" smooth="yes"/>
			<point x="58.8102388219" y="18"/>
			<point x="66.8102388219" y="0"/>
			<point x="90.8102388219" y="0" type="curve" smooth="yes"/>
			<point x="118.8102388219" y="0"/>
			<point x="184.8102388219" y="6"/>
			<point x="242.8102388219" y="6" type="curve" smooth="yes"/>
			<point x="311.8102388219" y="6"/>
			<point x="381.8102388219" y="6"/>
			<point x="450.8102388219" y="6" type="curve" smooth="yes"/>
			<point x="520.8102388219" y="6"/>
			<point x="592.8102388219" y="0"/>
			<point x="620.8102388219" y="0" type="curve" smooth="yes"/>
			<point x="632.8102388219" y="0"/>
			<point x="660.8102388219" y="0"/>
			<point x="660.8102388219" y="38" type="curve" smooth="yes"/>
			<point x="660.8102388219" y="66"/>
			<point x="636.8102388219" y="66"/>
			<point x="594.8102388219" y="66" type="curve" smooth="yes"/>
			<point x="564.8102388219" y="66"/>
			<point x="552.8102388219" y="66"/>
			<point x="518.8102388219" y="70" type="curve" smooth="yes"/>
			<point x="484.8102388219" y="74"/>
			<point x="468.8102388219" y="76"/>
			<point x="468.8102388219" y="98" type="curve" smooth="yes"/>
			<point x="468.8102388219" y="108"/>
			<point x="470.8102388219" y="108"/>
			<point x="476.8102388219" y="136" type="curve" smooth="yes"/>
			<point x="744.8102388219" y="1210" type="line" smooth="yes"/>
			<point x="762.8102388219" y="1280"/>
			<point x="766.8102388219" y="1300"/>
			<point x="916.8102388219" y="1300" type="curve" smooth="yes"/>
			<point x="962.8102388219" y="1300"/>
			<point x="986.8102388219" y="1300"/>
			<point x="986.8102388219" y="1338" type="curve" smooth="yes"/>
			<point x="986.8102388219" y="1340"/>
			<point x="984.8102388219" y="1366"/>
			<point x="952.8102388219" y="1366" type="curve" smooth="yes"/>
			<point x="922.8102388219" y="1366"/>
			<point x="860.8102388219" y="1360"/>
			<point x="754.8102388219" y="1360" type="curve" smooth="yes"/>
			<point x="701.8102388219" y="1360"/>
			<point x="649.8102388219" y="1360"/>
			<point x="596.8102388219" y="1360" type="curve" smooth="yes"/>
			<point x="524.8102388219" y="1360"/>
			<point x="452.8102388219" y="1366"/>
			<point x="424.8102388219" y="1366" type="curve" smooth="yes"/>
			<point x="416.8102388219" y="1366"/>
			<point x="384.8102388219" y="1366"/>
			<point x="384.8102388219" y="1328" type="curve" smooth="yes"/>
			<point x="384.8102388219" y="1300"/>
			<point x="408.8102388219" y="1300"/>
			<point x="448.8102388219" y="1300" type="curve" smooth="yes"/>
			<point x="480.8102388219" y="1300"/>
			<point x="504.8102388219" y="1299"/>
			<point x="522.8102388219" y="1298" type="curve" smooth="yes"/>
			<point x="574.8102388219" y="1293"/>
			<point x="574.8102388219" y="1282"/>
			<point x="574.8102388219" y="1264" type="curve" smooth="yes"/>
			<point x="574.8102388219" y="1260"/>
			<point x="574.8102388219" y="1250"/>
			<point x="566.8102388219" y="1218" type="curve" smooth="yes"/>
		</contour>
	</outline>
</glyph>
<glyph name="J" format="2">
	<unicode hex="004A"/>
	<advance width="1160"/>
	<outline>
		<contour>
			<point x="346" y="-42" type="curve" smooth="yes"/>
			<point x="536" y="-42"/>
			<point x="752" y="86"/>
			<point x="802" y="286" type="curve" smooth="yes"/>
			<point x="1034" y="1214" type="line" smooth="yes"/>
			<point x="1052" y="1284"/>
			<point x="1056" y="1300"/>
			<point x="1160" y="1300" type="curve" smooth="yes"/>
			<point x="1188" y="1300"/>
			<point x="1214" y="1300"/>
			<point x="1214" y="1338" type="curve" smooth="yes"/>
			<point x="1214" y="1340"/>
			<point x="1212" y="1366"/>
			<point x="1184" y="1366" type="curve" smooth="yes"/>
			<point x="1172" y="1366"/>
			<point x="1146" y="1360"/>
			<point x="954" y="1360" type="curve" smooth="yes"/>
			<point x="908" y="1360"/>
			<point x="844" y="1360"/>
			<point x="816" y="1362" type="curve" smooth="yes"/>
			<point x="792" y="1364"/>
			<point x="696" y="1366"/>
			<point x="672" y="1366" type="curve" smooth="yes"/>
			<point x="660" y="1366"/>
			<point x="630" y="1366"/>
			<point x="630" y="1328" type="curve" smooth="yes"/>
			<point x="630" y="1300"/>
			<point x="652" y="1300"/>
			<point x="700" y="1300" type="curve" smooth="yes"/>
			<point x="702" y="1300"/>
			<point x="754" y="1300"/>
			<point x="804" y="1296" type="curve" smooth="yes"/>
			<point x="858" y="1292"/>
			<point x="870" y="1284"/>
			<point x="870" y="1260" type="curve" smooth="yes"/>
			<point x="870" y="1252"/>
			<point x="868" y="1250"/>
			<point x="862" y="1224" type="curve" smooth="yes"/>
			<point x="785" y="914"/>
			<point x="707" y="605"/>
			<point x="630" y="294" type="curve" smooth="yes"/>
			<point x="590" y="130"/>
			<point x="458" y="14"/>
			<point x="340" y="14" type="curve" smooth="yes"/>
			<point x="298" y="14"/>
			<point x="186" y="26"/>
			<point x="144" y="122" type="curve"/>
			<point x="284" y="122"/>
			<point x="290" y="238"/>
			<point x="290" y="248" type="curve" smooth="yes"/>
			<point x="290" y="304"/>
			<point x="246" y="334"/>
			<point x="200" y="334" type="curve" smooth="yes"/>
			<point x="152" y="334"/>
			<point x="68" y="296"/>
			<point x="68" y="178" type="curve" smooth="yes"/>
			<point x="68" y="54"/>
			<point x="178" y="-42"/>
		</contour>
	</outline>
</glyph>
<glyph name="K" format="2">
	<unicode hex="004B"/>
	<advance width="896"/>
	<outline>
		<contour>
			<point x="346.4051194109" y="288" type="line"/>
			<point x="425.4051194109" y="605" type="line" smooth="yes"/>
			<point x="434.4051194109" y="641"/>
			<point x="436.4051194109" y="650"/>
			<point x="509.4051194109" y="650" type="curve" smooth="yes"/>
			<point x="529.4051194109" y="650"/>
			<point x="541.4051194109" y="650"/>
			<point x="541.4051194109" y="669" type="curve" smooth="yes"/>
			<point x="541.4051194109" y="670"/>
			<point x="540.4051194109" y="683"/>
			<point x="524.4051194109" y="683" type="curve" smooth="yes"/>
			<point x="505.4051194109" y="683"/>
			<point x="481.4051194109" y="680"/>
			<point x="433.4051194109" y="680" type="curve" smooth="yes"/>
			<point x="408.4051194109" y="680"/>
			<point x="382.4051194109" y="680"/>
			<point x="357.4051194109" y="680" type="curve" smooth="yes"/>
			<point x="303.4051194109" y="680"/>
			<point x="277.4051194109" y="683"/>
			<point x="270.4051194109" y="683" type="curve" smooth="yes"/>
			<point x="265.4051194109" y="683"/>
			<point x="250.4051194109" y="683"/>
			<point x="250.4051194109" y="664" type="curve" smooth="yes"/>
			<point x="250.4051194109" y="650"/>
			<point x="262.4051194109" y="650"/>
			<point x="279.4051194109" y="650" type="curve" smooth="yes"/>
			<point x="293.4051194109" y="650"/>
			<point x="306.4051194109" y="650"/>
			<point x="317.4051194109" y="649" type="curve" smooth="yes"/>
			<point x="331.4051194109" y="647"/>
			<point x="341.4051194109" y="643"/>
			<point x="341.4051194109" y="634" type="curve" smooth="yes"/>
			<point x="341.4051194109" y="631"/>
			<point x="339.4051194109" y="624"/>
			<point x="337.4051194109" y="616" type="curve" smooth="yes"/>
			<point x="203.4051194109" y="79" type="line" smooth="yes"/>
			<point x="194.4051194109" y="41"/>
			<point x="192.4051194109" y="33"/>
			<point x="118.4051194109" y="33" type="curve" smooth="yes"/>
			<point x="99.4051194109" y="33"/>
			<point x="87.4051194109" y="33"/>
			<point x="87.4051194109" y="14" type="curve" smooth="yes"/>
			<point x="87.4051194109" y="10"/>
			<point x="90.4051194109" y="0"/>
			<point x="103.4051194109" y="0" type="curve" smooth="yes"/>
			<point x="122.4051194109" y="0"/>
			<point x="166.4051194109" y="3"/>
			<point x="206.4051194109" y="3" type="curve" smooth="yes"/>
			<point x="226.4051194109" y="3"/>
			<point x="245.4051194109" y="3"/>
			<point x="265.4051194109" y="3" type="curve" smooth="yes"/>
			<point x="310.4051194109" y="3"/>
			<point x="343.4051194109" y="0"/>
			<point x="358.4051194109" y="0" type="curve" smooth="yes"/>
			<point x="363.4051194109" y="0"/>
			<point x="378.4051194109" y="0"/>
			<point x="378.4051194109" y="18" type="curve" smooth="yes"/>
			<point x="378.4051194109" y="33"/>
			<point x="366.4051194109" y="33"/>
			<point x="349.4051194109" y="33" type="curve" smooth="yes"/>
			<point x="342.4051194109" y="33"/>
			<point x="328.4051194109" y="33"/>
			<point x="311.4051194109" y="35" type="curve" smooth="yes"/>
			<point x="290.4051194109" y="37"/>
			<point x="287.4051194109" y="39"/>
			<point x="287.4051194109" y="49" type="curve" smooth="yes"/>
			<point x="287.4051194109" y="55"/>
			<point x="293.4051194109" y="80"/>
			<point x="297.4051194109" y="96" type="curve" smooth="yes"/>
			<point x="310.0591194109" y="146.283"/>
			<point x="322.7131194109" y="196.566"/>
			<point x="335.4051194109" y="247" type="curve"/>
			<point x="335.4051194109" y="247"/>
			<point x="335.4051194109" y="247"/>
			<point x="335.4051194109" y="247" type="curve"/>
			<point x="496.4051194109" y="363" type="line"/>
			<point x="496.4051194109" y="363"/>
			<point x="496.4051194109" y="363"/>
			<point x="496.4051194109" y="363" type="curve"/>
			<point x="542.6921194109" y="267.762"/>
			<point x="588.9791194109" y="172.524"/>
			<point x="635.4051194109" y="77" type="curve" smooth="yes"/>
			<point x="640.4051194109" y="67"/>
			<point x="641.4051194109" y="65"/>
			<point x="641.4051194109" y="61" type="curve" smooth="yes"/>
			<point x="641.4051194109" y="34"/>
			<point x="604.4051194109" y="33"/>
			<point x="593.4051194109" y="33" type="curve" smooth="yes"/>
			<point x="583.4051194109" y="33"/>
			<point x="569.4051194109" y="33"/>
			<point x="569.4051194109" y="14" type="curve" smooth="yes"/>
			<point x="569.4051194109" y="13"/>
			<point x="570.4051194109" y="0"/>
			<point x="586.4051194109" y="0" type="curve" smooth="yes"/>
			<point x="596.4051194109" y="0"/>
			<point x="634.4051194109" y="3"/>
			<point x="653.4051194109" y="3" type="curve" smooth="yes"/>
			<point x="662.4051194109" y="3"/>
			<point x="692.4051194109" y="3"/>
			<point x="720.4051194109" y="3" type="curve" smooth="yes"/>
			<point x="773.4051194109" y="3"/>
			<point x="790.4051194109" y="0"/>
			<point x="803.4051194109" y="0" type="curve" smooth="yes"/>
			<point x="807.4051194109" y="0"/>
			<point x="822.4051194109" y="0"/>
			<point x="822.4051194109" y="19" type="curve" smooth="yes"/>
			<point x="822.4051194109" y="33"/>
			<point x="808.4051194109" y="33"/>
			<point x="802.4051194109" y="33" type="curve" smooth="yes"/>
			<point x="763.4051194109" y="34"/>
			<point x="750.4051194109" y="41"/>
			<point x="734.4051194109" y="75" type="curve" smooth="yes"/>
			<point x="575.4051194109" y="402" type="line" smooth="yes"/>
			<point x="574.4051194109" y="404"/>
			<point x="569.4051194109" y="414"/>
			<point x="569.4051194109" y="415" type="curve" smooth="yes"/>
			<point x="569.4051194109" y="417"/>
			<point x="586.4051194109" y="429"/>
			<point x="596.4051194109" y="436" type="curve" smooth="yes"/>
			<point x="675.4051194109" y="494"/>
			<point x="783.4051194109" y="572"/>
			<point x="816.4051194109" y="593" type="curve" smooth="yes"/>
			<point x="867.4051194109" y="625"/>
			<point x="904.4051194109" y="646"/>
			<point x="949.4051194109" y="650" type="curve" smooth="yes"/>
			<point x="957.4051194109" y="651"/>
			<point x="971.4051194109" y="652"/>
			<point x="971.4051194109" y="670" type="curve" smooth="yes"/>
			<point x="971.4051194109" y="677"/>
			<point x="964.4051194109" y="683"/>
			<point x="957.4051194109" y="683" type="curve" smooth="yes"/>
			<point x="956.4051194109" y="683"/>
			<point x="928.4051194109" y="680"/>
			<point x="895.4051194109" y="680" type="curve" smooth="yes"/>
			<point x="874.4051194109" y="680"/>
			<point x="844.4051194109" y="681"/>
			<point x="830.4051194109" y="681" type="curve" smooth="yes"/>
			<point x="823.4051194109" y="681"/>
			<point x="784.4051194109" y="683"/>
			<point x="777.4051194109" y="683" type="curve" smooth="yes"/>
			<point x="770.4051194109" y="683"/>
			<point x="756.4051194109" y="683"/>
			<point x="756.4051194109" y="664" type="curve" smooth="yes"/>
			<point x="756.4051194109" y="663"/>
			<point x="757.4051194109" y="651"/>
			<point x="772.4051194109" y="650" type="curve" smooth="yes"/>
			<point x="780.4051194109" y="649"/>
			<point x="796.4051194109" y="647"/>
			<point x="796.4051194109" y="635" type="curve" smooth="yes"/>
			<point x="796.4051194109" y="616"/>
			<point x="768.4051194109" y="594"/>
			<point x="754.4051194109" y="584" type="curve" smooth="yes"/>
		</contour>
	</outline>
</glyph>
<glyph name="L" format="2">
	<unicode hex="004C"/>
	<advance width="1444"/>
	<outline>
		<contour>
			<point x="238" y="158" type="line" smooth="yes"/>
			<point x="220" y="82"/>
			<point x="216" y="66"/>
			<point x="68" y="66" type="curve" smooth="yes"/>
			<point x="30" y="66"/>
			<point x="6" y="66"/>
			<point x="6" y="28" type="curve" smooth="yes"/>
			<point x="6" y="0"/>
			<point x="32" y="0"/>
			<point x="66" y="0" type="curve" smooth="yes"/>
			<point x="1032" y="0" type="line" smooth="yes"/>
			<point x="1082" y="0"/>
			<point x="1086" y="2"/>
			<point x="1100" y="40" type="curve" smooth="yes"/>
			<point x="1242" y="416" type="line" smooth="yes"/>
			<point x="1258" y="458"/>
			<point x="1266" y="486"/>
			<point x="1266" y="492" type="curve" smooth="yes"/>
			<point x="1266" y="510"/>
			<point x="1250" y="520"/>
			<point x="1236" y="520" type="curve" smooth="yes"/>
			<point x="1214" y="520"/>
			<point x="1208" y="506"/>
			<point x="1196" y="476" type="curve" smooth="yes"/>
			<point x="1122" y="290"/>
			<point x="1038" y="66"/>
			<point x="680" y="66" type="curve" smooth="yes"/>
			<point x="426" y="66" type="line" smooth="yes"/>
			<point x="408" y="66"/>
			<point x="402" y="70"/>
			<point x="402" y="84" type="curve" smooth="yes"/>
			<point x="402" y="100"/>
			<point x="406" y="116"/>
			<point x="410" y="128" type="curve" smooth="yes"/>
			<point x="682" y="1210" type="line" smooth="yes"/>
			<point x="700" y="1278"/>
			<point x="704" y="1300"/>
			<point x="888" y="1300" type="curve" smooth="yes"/>
			<point x="944" y="1300"/>
			<point x="964" y="1300"/>
			<point x="964" y="1338" type="curve" smooth="yes"/>
			<point x="964" y="1342"/>
			<point x="960" y="1366"/>
			<point x="930" y="1366" type="curve" smooth="yes"/>
			<point x="888" y="1366"/>
			<point x="828" y="1362"/>
			<point x="786" y="1360" type="curve"/>
			<point x="738" y="1360"/>
			<point x="690" y="1360"/>
			<point x="642" y="1360" type="curve" smooth="yes"/>
			<point x="434" y="1360"/>
			<point x="386" y="1366"/>
			<point x="372" y="1366" type="curve" smooth="yes"/>
			<point x="364" y="1366"/>
			<point x="332" y="1366"/>
			<point x="332" y="1328" type="curve" smooth="yes"/>
			<point x="332" y="1300"/>
			<point x="358" y="1300"/>
			<point x="390" y="1300" type="curve" smooth="yes"/>
			<point x="416" y="1300"/>
			<point x="442" y="1300"/>
			<point x="462" y="1298" type="curve" smooth="yes"/>
			<point x="494" y="1294"/>
			<point x="514" y="1288"/>
			<point x="514" y="1268" type="curve" smooth="yes"/>
			<point x="514" y="1260"/>
			<point x="512" y="1258"/>
			<point x="506" y="1232" type="curve" smooth="yes"/>
		</contour>
	</outline>
</glyph>
<glyph name="M" format="2">
	<unicode hex="004D"/>
	<advance width="2040"/>
	<outline>
		<contour>
			<point x="262" y="214" type="line" smooth="yes"/>
			<point x="238" y="114"/>
			<point x="186" y="70"/>
			<point x="52" y="66" type="curve" smooth="yes"/>
			<point x="40" y="66"/>
			<point x="16" y="64"/>
			<point x="16" y="28" type="curve" smooth="yes"/>
			<point x="16" y="16"/>
			<point x="26" y="0"/>
			<point x="46" y="0" type="curve" smooth="yes"/>
			<point x="54" y="0"/>
			<point x="100" y="6"/>
			<point x="244" y="6" type="curve" smooth="yes"/>
			<point x="402" y="6"/>
			<point x="432" y="0"/>
			<point x="450" y="0" type="curve" smooth="yes"/>
			<point x="458" y="0"/>
			<point x="488" y="0"/>
			<point x="488" y="38" type="curve" smooth="yes"/>
			<point x="488" y="62"/>
			<point x="466" y="66"/>
			<point x="452" y="66" type="curve" smooth="yes"/>
			<point x="380" y="68"/>
			<point x="320" y="80"/>
			<point x="320" y="150" type="curve" smooth="yes"/>
			<point x="320" y="160"/>
			<point x="324" y="180"/>
			<point x="326" y="190" type="curve" smooth="yes"/>
			<point x="598" y="1276" type="line"/>
			<point x="600" y="1276" type="line"/>
			<point x="794" y="54" type="line" smooth="yes"/>
			<point x="800" y="22"/>
			<point x="802" y="0"/>
			<point x="830" y="0" type="curve" smooth="yes"/>
			<point x="858" y="0"/>
			<point x="872" y="22"/>
			<point x="884" y="40" type="curve" smooth="yes"/>
			<point x="1706" y="1292" type="line"/>
			<point x="1708" y="1290" type="line"/>
			<point x="1426" y="158" type="line" smooth="yes"/>
			<point x="1408" y="82"/>
			<point x="1404" y="66"/>
			<point x="1256" y="66" type="curve" smooth="yes"/>
			<point x="1218" y="66"/>
			<point x="1194" y="66"/>
			<point x="1194" y="28" type="curve" smooth="yes"/>
			<point x="1194" y="20"/>
			<point x="1200" y="0"/>
			<point x="1226" y="0" type="curve" smooth="yes"/>
			<point x="1252" y="0"/>
			<point x="1352" y="6"/>
			<point x="1380" y="6" type="curve" smooth="yes"/>
			<point x="1428" y="6"/>
			<point x="1474" y="6"/>
			<point x="1522" y="6" type="curve" smooth="yes"/>
			<point x="1614" y="6"/>
			<point x="1702" y="0"/>
			<point x="1716" y="0" type="curve" smooth="yes"/>
			<point x="1728" y="0"/>
			<point x="1756" y="0"/>
			<point x="1756" y="38" type="curve" smooth="yes"/>
			<point x="1756" y="66"/>
			<point x="1730" y="66"/>
			<point x="1696" y="66" type="curve" smooth="yes"/>
			<point x="1690" y="66"/>
			<point x="1654" y="66"/>
			<point x="1620" y="70" type="curve" smooth="yes"/>
			<point x="1578" y="74"/>
			<point x="1574" y="80"/>
			<point x="1574" y="98" type="curve" smooth="yes"/>
			<point x="1574" y="108"/>
			<point x="1578" y="120"/>
			<point x="1580" y="130" type="curve" smooth="yes"/>
			<point x="1848" y="1204" type="line" smooth="yes"/>
			<point x="1868" y="1282"/>
			<point x="1872" y="1300"/>
			<point x="2012" y="1300" type="curve" smooth="yes"/>
			<point x="2058" y="1300"/>
			<point x="2082" y="1300"/>
			<point x="2082" y="1338" type="curve" smooth="yes"/>
			<point x="2082" y="1366"/>
			<point x="2056" y="1366"/>
			<point x="2020" y="1366" type="curve" smooth="yes"/>
			<point x="1762" y="1366" type="line" smooth="yes"/>
			<point x="1708" y="1366"/>
			<point x="1702" y="1366"/>
			<point x="1676" y="1326" type="curve" smooth="yes"/>
			<point x="922" y="184" type="line"/>
			<point x="744" y="1312" type="line" smooth="yes"/>
			<point x="736" y="1362"/>
			<point x="734" y="1366"/>
			<point x="674" y="1366" type="curve" smooth="yes"/>
			<point x="404" y="1366" type="line" smooth="yes"/>
			<point x="368" y="1366"/>
			<point x="342" y="1366"/>
			<point x="342" y="1328" type="curve" smooth="yes"/>
			<point x="342" y="1300"/>
			<point x="368" y="1300"/>
			<point x="400" y="1300" type="curve" smooth="yes"/>
			<point x="424" y="1300"/>
			<point x="442" y="1300"/>
			<point x="468" y="1298" type="curve" smooth="yes"/>
			<point x="502" y="1296"/>
			<point x="524" y="1288"/>
			<point x="524" y="1268" type="curve" smooth="yes"/>
			<point x="524" y="1264"/>
			<point x="522" y="1254"/>
			<point x="516" y="1232" type="curve" smooth="yes"/>
		</contour>
	</outline>
</glyph>
<glyph name="N" format="2">
	<unicode hex="004E"/>
	<advance width="1686"/>
	<outline>
		<contour>
			<point x="252" y="214" type="line" smooth="yes"/>
			<point x="226" y="114"/>
			<point x="176" y="70"/>
			<point x="42" y="66" type="curve"/>
			<point x="30" y="66"/>
			<point x="6" y="64"/>
			<point x="6" y="28" type="curve" smooth="yes"/>
			<point x="6" y="16"/>
			<point x="16" y="0"/>
			<point x="36" y="0" type="curve" smooth="yes"/>
			<point x="44" y="0"/>
			<point x="90" y="6"/>
			<point x="234" y="6" type="curve" smooth="yes"/>
			<point x="392" y="6"/>
			<point x="422" y="0"/>
			<point x="440" y="0" type="curve" smooth="yes"/>
			<point x="448" y="0"/>
			<point x="478" y="0"/>
			<point x="478" y="38" type="curve" smooth="yes"/>
			<point x="478" y="62"/>
			<point x="456" y="66"/>
			<point x="442" y="66" type="curve" smooth="yes"/>
			<point x="370" y="68"/>
			<point x="310" y="80"/>
			<point x="310" y="150" type="curve" smooth="yes"/>
			<point x="310" y="160"/>
			<point x="316" y="188"/>
			<point x="316" y="190" type="curve"/>
			<point x="578" y="1234" type="line"/>
			<point x="579" y="1234"/>
			<point x="579" y="1234"/>
			<point x="580" y="1234" type="curve"/>
			<point x="1136" y="36" type="line" smooth="yes"/>
			<point x="1150" y="4"/>
			<point x="1152" y="0"/>
			<point x="1174" y="0" type="curve" smooth="yes"/>
			<point x="1202" y="0"/>
			<point x="1204" y="8"/>
			<point x="1212" y="42" type="curve" smooth="yes"/>
			<point x="1490" y="1148" type="line" smooth="yes"/>
			<point x="1514" y="1246"/>
			<point x="1558" y="1294"/>
			<point x="1702" y="1300" type="curve" smooth="yes"/>
			<point x="1722" y="1300"/>
			<point x="1738" y="1312"/>
			<point x="1738" y="1338" type="curve" smooth="yes"/>
			<point x="1738" y="1350"/>
			<point x="1728" y="1366"/>
			<point x="1708" y="1366" type="curve" smooth="yes"/>
			<point x="1694" y="1366"/>
			<point x="1656" y="1360"/>
			<point x="1508" y="1360" type="curve" smooth="yes"/>
			<point x="1348" y="1360"/>
			<point x="1322" y="1366"/>
			<point x="1304" y="1366" type="curve" smooth="yes"/>
			<point x="1272" y="1366"/>
			<point x="1266" y="1344"/>
			<point x="1266" y="1328" type="curve" smooth="yes"/>
			<point x="1266" y="1302"/>
			<point x="1292" y="1300"/>
			<point x="1310" y="1300" type="curve" smooth="yes"/>
			<point x="1432" y="1296"/>
			<point x="1432" y="1242"/>
			<point x="1432" y="1214" type="curve" smooth="yes"/>
			<point x="1432" y="1204"/>
			<point x="1432" y="1194"/>
			<point x="1424" y="1162" type="curve" smooth="yes"/>
			<point x="1204" y="286" type="line"/>
			<point x="722" y="1330" type="line" smooth="yes"/>
			<point x="706" y="1366"/>
			<point x="702" y="1366"/>
			<point x="654" y="1366" type="curve" smooth="yes"/>
			<point x="394" y="1366" type="line" smooth="yes"/>
			<point x="358" y="1366"/>
			<point x="332" y="1366"/>
			<point x="332" y="1328" type="curve" smooth="yes"/>
			<point x="332" y="1300"/>
			<point x="356" y="1300"/>
			<point x="398" y="1300" type="curve" smooth="yes"/>
			<point x="414" y="1300"/>
			<point x="474" y="1300"/>
			<point x="520" y="1288" type="curve"/>
			<point x="520" y="1288"/>
			<point x="520" y="1288"/>
			<point x="520" y="1288" type="curve"/>
		</contour>
	</outline>
</glyph>
<glyph name="O" format="2">
	<unicode hex="004F"/>
	<advance width="1612"/>
	<outline>
		<contour>
			<point x="1468" y="860" type="curve" smooth="yes"/>
			<point x="1468" y="1188"/>
			<point x="1240" y="1408"/>
			<point x="920" y="1408" type="curve" smooth="yes"/>
			<point x="454" y="1408"/>
			<point x="8" y="946"/>
			<point x="8" y="500" type="curve" smooth="yes"/>
			<point x="8" y="192"/>
			<point x="224" y="-42"/>
			<point x="560" y="-42" type="curve" smooth="yes"/>
			<point x="1008" y="-42"/>
			<point x="1468" y="388"/>
		</contour>
		<contour>
			<point x="576" y="24" type="curve" smooth="yes"/>
			<point x="372" y="24"/>
			<point x="206" y="170"/>
			<point x="206" y="456" type="curve" smooth="yes"/>
			<point x="206" y="488"/>
			<point x="206" y="822"/>
			<point x="436" y="1106" type="curve" smooth="yes"/>
			<point x="510" y="1196"/>
			<point x="690" y="1346"/>
			<point x="906" y="1346" type="curve" smooth="yes"/>
			<point x="1106" y="1346"/>
			<point x="1282" y="1208"/>
			<point x="1282" y="930" type="curve" smooth="yes"/>
			<point x="1282" y="820"/>
			<point x="1240" y="508"/>
			<point x="1034" y="264" type="curve" smooth="yes"/>
			<point x="918" y="126"/>
			<point x="746" y="24"/>
		</contour>
	</outline>
</glyph>
<glyph name="P" format="2">
  <advance width="673"/>
  <unicode hex="0050"/>
  <outline>
    <contour>
      <point x="205.4051194109432" y="79.0" type="line" smooth="yes"/>
      <point x="196.4051194109432" y="42.0"/>
      <point x="194.4051194109432" y="33.0"/>
      <point x="123.4051194109432" y="33.0" type="curve" smooth="yes"/>
      <point x="100.4051194109432" y="33.0"/>
      <point x="89.4051194109432" y="33.0"/>
      <point x="89.4051194109432" y="14.0" type="curve" smooth="yes"/>
      <point x="89.4051194109432" y="10.0"/>
      <point x="92.4051194109432" y="0.0"/>
      <point x="105.4051194109432" y="0.0" type="curve" smooth="yes"/>
      <point x="124.4051194109432" y="0.0"/>
      <point x="148.4051194109432" y="2.0"/>
      <point x="167.4051194109432" y="3.0" type="curve"/>
      <point x="188.7171194109432" y="3.0"/>
      <point x="210.0291194109432" y="3.0"/>
      <point x="231.4051194109432" y="3.0" type="curve" smooth="yes"/>
      <point x="327.4051194109432" y="3.0"/>
      <point x="353.4051194109432" y="0.0"/>
      <point x="360.4051194109432" y="0.0" type="curve" smooth="yes"/>
      <point x="366.4051194109432" y="0.0"/>
      <point x="380.4051194109432" y="0.0"/>
      <point x="380.4051194109432" y="19.0" type="curve" smooth="yes"/>
      <point x="380.4051194109432" y="33.0"/>
      <point x="367.4051194109432" y="33.0"/>
      <point x="350.4051194109432" y="33.0" type="curve" smooth="yes"/>
      <point x="347.4051194109432" y="33.0"/>
      <point x="329.4051194109432" y="33.0"/>
      <point x="312.4051194109432" y="35.0" type="curve" smooth="yes"/>
      <point x="291.4051194109432" y="37.0"/>
      <point x="289.4051194109432" y="40.0"/>
      <point x="289.4051194109432" y="49.0" type="curve" smooth="yes"/>
      <point x="289.4051194109432" y="54.0"/>
      <point x="291.4051194109432" y="60.0"/>
      <point x="292.4051194109432" y="65.0" type="curve" smooth="yes"/>
      <point x="353.4051194109432" y="312.0" type="line"/>
      <point x="535.4051194109433" y="312.0" type="line" smooth="yes"/>
      <point x="679.4051194109433" y="312.0"/>
      <point x="829.4051194109433" y="412.0"/>
      <point x="829.4051194109433" y="530.0" type="curve" smooth="yes"/>
      <point x="829.4051194109433" y="615.0"/>
      <point x="749.4051194109433" y="683.0"/>
      <point x="620.4051194109433" y="683.0" type="curve" smooth="yes"/>
      <point x="283.4051194109432" y="683.0" type="line" smooth="yes"/>
      <point x="265.4051194109432" y="683.0"/>
      <point x="252.4051194109432" y="683.0"/>
      <point x="252.4051194109432" y="664.0" type="curve" smooth="yes"/>
      <point x="252.4051194109432" y="650.0"/>
      <point x="265.4051194109432" y="650.0"/>
      <point x="281.4051194109432" y="650.0" type="curve" smooth="yes"/>
      <point x="294.71170941094323" y="650.0"/>
      <point x="307.3679216793432" y="650.0"/>
      <point x="317.7346823867432" y="648.9509927491" type="curve" smooth="yes"/>
      <point x="333.0772208568432" y="647.3984890736"/>
      <point x="343.4051194109432" y="643.54832"/>
      <point x="343.4051194109432" y="634.0" type="curve" smooth="yes"/>
      <point x="343.4051194109432" y="632.0"/>
      <point x="341.4051194109432" y="624.0"/>
      <point x="339.4051194109432" y="616.0" type="curve" smooth="yes"/>
    </contour>
    <contour>
      <point x="358.4051194109432" y="342.0" type="line"/>
      <point x="426.4051194109432" y="613.0" type="line" smooth="yes"/>
      <point x="435.4051194109432" y="647.0"/>
      <point x="436.4051194109432" y="650.0"/>
      <point x="477.4051194109432" y="650.0" type="curve" smooth="yes"/>
      <point x="587.4051194109433" y="650.0" type="line" smooth="yes"/>
      <point x="669.4051194109433" y="650.0"/>
      <point x="732.4051194109433" y="626.0"/>
      <point x="732.4051194109433" y="552.0" type="curve" smooth="yes"/>
      <point x="732.4051194109433" y="539.0"/>
      <point x="727.4051194109433" y="450.0"/>
      <point x="671.4051194109433" y="395.0" type="curve" smooth="yes"/>
      <point x="656.4051194109433" y="380.0"/>
      <point x="608.4051194109433" y="342.0"/>
      <point x="510.4051194109432" y="342.0" type="curve" smooth="yes"/>
    </contour>
  </outline>
</glyph>
<glyph name="Q" format="2">
	<unicode hex="0051"/>
	<advance width="1670"/>
	<outline>
		<contour>
			<point x="70.8102388219" y="500" type="curve" smooth="yes"/>
			<point x="70.8102388219" y="192"/>
			<point x="286.8102388219" y="-42"/>
			<point x="622.8102388219" y="-42" type="curve" smooth="yes"/>
			<point x="676.8102388219" y="-42"/>
			<point x="744.8102388219" y="-36"/>
			<point x="824.8102388219" y="-14" type="curve"/>
			<point x="824.8102388219" y="-38"/>
			<point x="820.8102388219" y="-114"/>
			<point x="820.8102388219" y="-130" type="curve" smooth="yes"/>
			<point x="820.8102388219" y="-212"/>
			<point x="820.8102388219" y="-388"/>
			<point x="1002.8102388219" y="-388" type="curve" smooth="yes"/>
			<point x="1240.8102388219" y="-388"/>
			<point x="1350.8102388219" y="-36"/>
			<point x="1350.8102388219" y="0" type="curve" smooth="yes"/>
			<point x="1350.8102388219" y="14"/>
			<point x="1338.8102388219" y="28"/>
			<point x="1322.8102388219" y="28" type="curve" smooth="yes"/>
			<point x="1302.8102388219" y="28"/>
			<point x="1296.8102388219" y="8"/>
			<point x="1294.8102388219" y="2" type="curve" smooth="yes"/>
			<point x="1252.8102388219" y="-130"/>
			<point x="1136.8102388219" y="-186"/>
			<point x="1052.8102388219" y="-186" type="curve" smooth="yes"/>
			<point x="982.8102388219" y="-186"/>
			<point x="934.8102388219" y="-160"/>
			<point x="906.8102388219" y="14" type="curve"/>
			<point x="1218.8102388219" y="126"/>
			<point x="1530.8102388219" y="468"/>
			<point x="1530.8102388219" y="860" type="curve" smooth="yes"/>
			<point x="1530.8102388219" y="1188"/>
			<point x="1302.8102388219" y="1408"/>
			<point x="982.8102388219" y="1408" type="curve" smooth="yes"/>
			<point x="516.8102388219" y="1408"/>
			<point x="70.8102388219" y="946"/>
		</contour>
		<contour>
			<point x="258.8102388219" y="446" type="curve" smooth="yes"/>
			<point x="258.8102388219" y="582"/>
			<point x="304.8102388219" y="842"/>
			<point x="466.8102388219" y="1062" type="curve" smooth="yes"/>
			<point x="596.8102388219" y="1236"/>
			<point x="790.8102388219" y="1346"/>
			<point x="966.8102388219" y="1346" type="curve" smooth="yes"/>
			<point x="1176.8102388219" y="1346"/>
			<point x="1344.8102388219" y="1198"/>
			<point x="1344.8102388219" y="916" type="curve" smooth="yes"/>
			<point x="1344.8102388219" y="810"/>
			<point x="1304.8102388219" y="320"/>
			<point x="894.8102388219" y="88" type="curve"/>
			<point x="870.8102388219" y="202"/>
			<point x="830.8102388219" y="302"/>
			<point x="700.8102388219" y="302" type="curve" smooth="yes"/>
			<point x="586.8102388219" y="302"/>
			<point x="484.8102388219" y="200"/>
			<point x="484.8102388219" y="98" type="curve" smooth="yes"/>
			<point x="484.8102388219" y="80"/>
			<point x="488.8102388219" y="62"/>
			<point x="494.8102388219" y="46" type="curve"/>
			<point x="336.8102388219" y="108"/>
			<point x="258.8102388219" y="252"/>
		</contour>
		<contour>
			<point x="540.8102388219" y="98" type="curve" smooth="yes"/>
			<point x="540.8102388219" y="168"/>
			<point x="614.8102388219" y="246"/>
			<point x="702.8102388219" y="246" type="curve" smooth="yes"/>
			<point x="790.8102388219" y="246"/>
			<point x="824.8102388219" y="192"/>
			<point x="826.8102388219" y="58" type="curve"/>
			<point x="784.8102388219" y="40"/>
			<point x="712.8102388219" y="20"/>
			<point x="636.8102388219" y="20" type="curve" smooth="yes"/>
			<point x="612.8102388219" y="20"/>
			<point x="540.8102388219" y="20"/>
		</contour>
	</outline>
</glyph>
<glyph name="R" format="2">
  <advance width="800"/>
  <unicode hex="0052"/>
  <outline>
    <contour>
      <point x="362.4051194109432" y="356.0" type="line"/>
      <point x="426.4051194109432" y="613.0" type="line" smooth="yes"/>
      <point x="435.4051194109432" y="647.0"/>
      <point x="436.4051194109432" y="650.0"/>
      <point x="477.4051194109432" y="650.0" type="curve" smooth="yes"/>
      <point x="504.3781194109432" y="650.0"/>
      <point x="531.3511194109432" y="650.0"/>
      <point x="558.4051194109433" y="650.0" type="curve" smooth="yes"/>
      <point x="640.4051194109433" y="650.0"/>
      <point x="717.4051194109433" y="629.0"/>
      <point x="717.4051194109433" y="548.0" type="curve" smooth="yes"/>
      <point x="717.4051194109433" y="504.0"/>
      <point x="694.4051194109433" y="434.0"/>
      <point x="648.4051194109433" y="401.0" type="curve" smooth="yes"/>
      <point x="600.4051194109433" y="367.0"/>
      <point x="543.4051194109433" y="356.0"/>
      <point x="485.4051194109432" y="356.0" type="curve" smooth="yes"/>
    </contour>
    <contour>
      <point x="815.4051194109433" y="531.0" type="curve" smooth="yes"/>
      <point x="815.4051194109433" y="618.0"/>
      <point x="717.4051194109433" y="683.0"/>
      <point x="578.4051194109433" y="683.0" type="curve" smooth="yes"/>
      <point x="283.4051194109432" y="683.0" type="line" smooth="yes"/>
      <point x="265.4051194109432" y="683.0"/>
      <point x="252.4051194109432" y="683.0"/>
      <point x="252.4051194109432" y="664.0" type="curve" smooth="yes"/>
      <point x="252.4051194109432" y="650.0"/>
      <point x="265.4051194109432" y="650.0"/>
      <point x="281.4051194109432" y="650.0" type="curve" smooth="yes"/>
      <point x="295.7759594109432" y="650.0"/>
      <point x="309.3882280893432" y="650.0"/>
      <point x="320.1772839516432" y="648.6786294435" type="curve" smooth="yes"/>
      <point x="334.1633173293432" y="646.9657147136"/>
      <point x="342.4051194109432" y="643.0"/>
      <point x="343.4051194109432" y="634.0" type="curve" smooth="yes"/>
      <point x="343.4051194109432" y="631.0"/>
      <point x="342.4051194109432" y="626.0"/>
      <point x="339.4051194109432" y="616.0" type="curve" smooth="yes"/>
      <point x="205.4051194109432" y="79.0" type="line" smooth="yes"/>
      <point x="196.4051194109432" y="41.0"/>
      <point x="194.4051194109432" y="33.0"/>
      <point x="120.4051194109432" y="33.0" type="curve" smooth="yes"/>
      <point x="101.4051194109432" y="33.0"/>
      <point x="89.4051194109432" y="33.0"/>
      <point x="89.4051194109432" y="14.0" type="curve" smooth="yes"/>
      <point x="89.4051194109432" y="10.0"/>
      <point x="92.4051194109432" y="0.0"/>
      <point x="105.4051194109432" y="0.0" type="curve" smooth="yes"/>
      <point x="124.4051194109432" y="0.0"/>
      <point x="147.4051194109432" y="2.0"/>
      <point x="188.4051194109432" y="2.0" type="curve" smooth="yes"/>
      <point x="211.7151194109432" y="2.0"/>
      <point x="235.0251194109432" y="2.0"/>
      <point x="258.4051194109432" y="2.0" type="curve" smooth="yes"/>
      <point x="302.4051194109432" y="2.0"/>
      <point x="351.4051194109432" y="0.0"/>
      <point x="357.4051194109432" y="0.0" type="curve" smooth="yes"/>
      <point x="363.4051194109432" y="0.0"/>
      <point x="377.4051194109432" y="0.0"/>
      <point x="377.4051194109432" y="19.0" type="curve" smooth="yes"/>
      <point x="377.4051194109432" y="33.0"/>
      <point x="364.4051194109432" y="33.0"/>
      <point x="347.4051194109432" y="33.0" type="curve" smooth="yes"/>
      <point x="344.4051194109432" y="33.0"/>
      <point x="326.4051194109432" y="33.0"/>
      <point x="309.4051194109432" y="35.0" type="curve" smooth="yes"/>
      <point x="288.4051194109432" y="37.0"/>
      <point x="286.4051194109432" y="40.0"/>
      <point x="286.4051194109432" y="49.0" type="curve" smooth="yes"/>
      <point x="286.4051194109432" y="52.0"/>
      <point x="288.4051194109432" y="60.0"/>
      <point x="289.4051194109432" y="65.0" type="curve" smooth="yes"/>
      <point x="354.4051194109432" y="328.0" type="line"/>
      <point x="484.4051194109432" y="328.0" type="line" smooth="yes"/>
      <point x="574.4051194109433" y="328.0"/>
      <point x="602.4051194109433" y="280.0"/>
      <point x="602.4051194109433" y="239.0" type="curve" smooth="yes"/>
      <point x="602.4051194109433" y="225.0"/>
      <point x="595.4051194109433" y="197.0"/>
      <point x="590.4051194109433" y="176.0" type="curve" smooth="yes"/>
      <point x="582.4051194109433" y="147.0"/>
      <point x="572.4051194109433" y="107.0"/>
      <point x="572.4051194109433" y="89.0" type="curve" smooth="yes"/>
      <point x="572.4051194109433" y="12.0"/>
      <point x="638.4051194109433" y="-21.0"/>
      <point x="712.4051194109433" y="-21.0" type="curve" smooth="yes"/>
      <point x="799.4051194109433" y="-21.0"/>
      <point x="840.4051194109433" y="77.0"/>
      <point x="840.4051194109433" y="96.0" type="curve" smooth="yes"/>
      <point x="840.4051194109433" y="100.0"/>
      <point x="837.4051194109433" y="110.0"/>
      <point x="824.4051194109433" y="110.0" type="curve" smooth="yes"/>
      <point x="813.4051194109433" y="110.0"/>
      <point x="810.4051194109433" y="101.0"/>
      <point x="809.4051194109433" y="97.0" type="curve"/>
      <point x="787.4051194109433" y="28.0"/>
      <point x="744.4051194109433" y="7.0"/>
      <point x="715.4051194109433" y="7.0" type="curve" smooth="yes"/>
      <point x="678.4051194109433" y="7.0"/>
      <point x="674.4051194109433" y="35.0"/>
      <point x="674.4051194109433" y="68.0" type="curve" smooth="yes"/>
      <point x="674.4051194109433" y="101.0"/>
      <point x="680.4051194109433" y="145.0"/>
      <point x="684.4051194109433" y="178.0" type="curve" smooth="yes"/>
      <point x="688.4051194109433" y="208.0"/>
      <point x="688.4051194109433" y="214.0"/>
      <point x="688.4051194109433" y="224.0" type="curve" smooth="yes"/>
      <point x="688.4051194109433" y="284.0"/>
      <point x="649.4051194109433" y="319.0"/>
      <point x="596.4051194109433" y="340.0" type="curve"/>
      <point x="719.4051194109433" y="371.0"/>
      <point x="815.4051194109433" y="446.0"/>
    </contour>
  </outline>
</glyph>
<glyph name="S" format="2">
	<unicode hex="0053"/>
	<advance width="646"/>
	<outline>
		<contour>
			<point x="220.4051194109" y="473" type="curve" smooth="yes"/>
			<point x="220.4051194109" y="418"/>
			<point x="250.4051194109" y="380"/>
			<point x="256.4051194109" y="374" type="curve" smooth="yes"/>
			<point x="288.4051194109" y="340"/>
			<point x="318.4051194109" y="331"/>
			<point x="390.4051194109" y="314" type="curve" smooth="yes"/>
			<point x="425.4051194109" y="305"/>
			<point x="427.4051194109" y="305"/>
			<point x="456.4051194109" y="298" type="curve" smooth="yes"/>
			<point x="485.4051194109" y="291"/>
			<point x="549.4051194109" y="275"/>
			<point x="549.4051194109" y="192" type="curve" smooth="yes"/>
			<point x="549.4051194109" y="105"/>
			<point x="463.4051194109" y="12"/>
			<point x="358.4051194109" y="12" type="curve" smooth="yes"/>
			<point x="293.4051194109" y="12"/>
			<point x="174.4051194109" y="32"/>
			<point x="174.4051194109" y="156" type="curve" smooth="yes"/>
			<point x="174.4051194109" y="185"/>
			<point x="181.4051194109" y="204"/>
			<point x="181.4051194109" y="214" type="curve" smooth="yes"/>
			<point x="181.4051194109" y="226"/>
			<point x="170.4051194109" y="227"/>
			<point x="166.4051194109" y="227" type="curve" smooth="yes"/>
			<point x="153.4051194109" y="227"/>
			<point x="152.4051194109" y="223"/>
			<point x="147.4051194109" y="200" type="curve" smooth="yes"/>
			<point x="102.4051194109" y="22"/>
			<point x="95.4051194109" y="-5"/>
			<point x="95.4051194109" y="-8" type="curve" smooth="yes"/>
			<point x="95.4051194109" y="-16"/>
			<point x="101.4051194109" y="-21"/>
			<point x="108.4051194109" y="-21" type="curve" smooth="yes"/>
			<point x="115.4051194109" y="-21"/>
			<point x="116.4051194109" y="-20"/>
			<point x="127.4051194109" y="-7" type="curve" smooth="yes"/>
			<point x="143.3891194109" y="11.648"/>
			<point x="159.3731194109" y="30.296"/>
			<point x="175.4051194109" y="49" type="curve"/>
			<point x="198.4051194109" y="19"/>
			<point x="255.4051194109" y="-21"/>
			<point x="356.4051194109" y="-21" type="curve" smooth="yes"/>
			<point x="501.4051194109" y="-21"/>
			<point x="620.4051194109" y="110"/>
			<point x="620.4051194109" y="230" type="curve" smooth="yes"/>
			<point x="620.4051194109" y="276"/>
			<point x="605.4051194109" y="312"/>
			<point x="578.4051194109" y="340" type="curve" smooth="yes"/>
			<point x="548.4051194109" y="373"/>
			<point x="515.4051194109" y="381"/>
			<point x="468.4051194109" y="393" type="curve" smooth="yes"/>
			<point x="439.4051194109" y="400"/>
			<point x="400.4051194109" y="409"/>
			<point x="377.4051194109" y="415" type="curve" smooth="yes"/>
			<point x="347.4051194109" y="422"/>
			<point x="291.4051194109" y="442"/>
			<point x="291.4051194109" y="512" type="curve" smooth="yes"/>
			<point x="291.4051194109" y="590"/>
			<point x="375.4051194109" y="674"/>
			<point x="477.4051194109" y="674" type="curve" smooth="yes"/>
			<point x="567.4051194109" y="674"/>
			<point x="629.4051194109" y="627"/>
			<point x="629.4051194109" y="519" type="curve" smooth="yes"/>
			<point x="629.4051194109" y="495"/>
			<point x="625.4051194109" y="474"/>
			<point x="625.4051194109" y="470" type="curve" smooth="yes"/>
			<point x="625.4051194109" y="458"/>
			<point x="634.4051194109" y="456"/>
			<point x="641.4051194109" y="456" type="curve" smooth="yes"/>
			<point x="653.4051194109" y="456"/>
			<point x="654.4051194109" y="460"/>
			<point x="658.4051194109" y="476" type="curve" smooth="yes"/>
			<point x="711.4051194109" y="685" type="line" smooth="yes"/>
			<point x="714.4051194109" y="695"/>
			<point x="710.4051194109" y="704"/>
			<point x="699.4051194109" y="704" type="curve" smooth="yes"/>
			<point x="692.4051194109" y="704"/>
			<point x="690.4051194109" y="702"/>
			<point x="679.4051194109" y="690" type="curve" smooth="yes"/>
			<point x="668.4051194109" y="677"/>
			<point x="642.4051194109" y="645"/>
			<point x="631.4051194109" y="633" type="curve"/>
			<point x="592.4051194109" y="690"/>
			<point x="529.4051194109" y="704"/>
			<point x="478.4051194109" y="704" type="curve" smooth="yes"/>
			<point x="339.4051194109" y="704"/>
			<point x="220.4051194109" y="587"/>
		</contour>
	</outline>
</glyph>
<glyph name="T" format="2">
	<unicode hex="0054"/>
	<advance width="618"/>
	<outline>
		<contour>
			<point x="184" y="82" type="line" smooth="yes"/>
			<point x="176.2414" y="52.51732"/>
			<point x="173.2984699168" y="39.2875259692"/>
			<point x="123.7972819028" y="34.8380465843" type="curve" smooth="yes"/>
			<point x="109.4967685608" y="33.5526261356"/>
			<point x="91.31056" y="33"/>
			<point x="68" y="33" type="curve" smooth="yes"/>
			<point x="36" y="33"/>
			<point x="26" y="33"/>
			<point x="26" y="14" type="curve" smooth="yes"/>
			<point x="26" y="13"/>
			<point x="26" y="0"/>
			<point x="43" y="0" type="curve" smooth="yes"/>
			<point x="70" y="0"/>
			<point x="139" y="3"/>
			<point x="166" y="3" type="curve" smooth="yes"/>
			<point x="194.305" y="3"/>
			<point x="222.61" y="3"/>
			<point x="251" y="3" type="curve" smooth="yes"/>
			<point x="279" y="3"/>
			<point x="349" y="0"/>
			<point x="377" y="0" type="curve" smooth="yes"/>
			<point x="385" y="0"/>
			<point x="400" y="0"/>
			<point x="400" y="19" type="curve" smooth="yes"/>
			<point x="400" y="33"/>
			<point x="389" y="33"/>
			<point x="362" y="33" type="curve" smooth="yes"/>
			<point x="338" y="33"/>
			<point x="330" y="33"/>
			<point x="304" y="35" type="curve" smooth="yes"/>
			<point x="262" y="39"/>
			<point x="265" y="46"/>
			<point x="272" y="73" type="curve" smooth="yes"/>
			<point x="405" y="605" type="line" smooth="yes"/>
			<point x="414" y="641"/>
			<point x="415" y="643"/>
			<point x="456" y="643" type="curve" smooth="yes"/>
			<point x="481.308" y="643"/>
			<point x="506.616" y="643"/>
			<point x="532" y="643" type="curve" smooth="yes"/>
			<point x="636" y="643"/>
			<point x="648" y="610"/>
			<point x="648" y="560" type="curve" smooth="yes"/>
			<point x="648" y="522"/>
			<point x="638" y="472"/>
			<point x="638" y="465" type="curve" smooth="yes"/>
			<point x="638" y="452"/>
			<point x="647" y="449"/>
			<point x="653" y="449" type="curve" smooth="yes"/>
			<point x="664" y="449"/>
			<point x="668" y="455"/>
			<point x="671" y="474" type="curve" smooth="yes"/>
			<point x="698" y="661" type="line" smooth="yes"/>
			<point x="700" y="676"/>
			<point x="686" y="676"/>
			<point x="668" y="676" type="curve" smooth="yes"/>
			<point x="79" y="676" type="line" smooth="yes"/>
			<point x="54" y="676"/>
			<point x="52" y="676"/>
			<point x="45" y="655" type="curve" smooth="yes"/>
			<point x="-16" y="482" type="line" smooth="yes"/>
			<point x="-18" y="477"/>
			<point x="-21" y="469"/>
			<point x="-21" y="463" type="curve" smooth="yes"/>
			<point x="-21" y="455"/>
			<point x="-14" y="449"/>
			<point x="-6" y="449" type="curve" smooth="yes"/>
			<point x="5" y="449"/>
			<point x="7" y="454"/>
			<point x="13" y="471" type="curve" smooth="yes"/>
			<point x="70" y="631"/>
			<point x="99" y="643"/>
			<point x="251" y="643" type="curve" smooth="yes"/>
			<point x="290" y="643" type="line" smooth="yes"/>
			<point x="320" y="643"/>
			<point x="321" y="642"/>
			<point x="321" y="634" type="curve" smooth="yes"/>
			<point x="321" y="631"/>
			<point x="317" y="611"/>
			<point x="316" y="607" type="curve" smooth="yes"/>
		</contour>
	</outline>
</glyph>
<glyph name="U" format="2">
	<unicode hex="0055"/>
	<advance width="718"/>
	<outline>
		<contour>
			<point x="321.4051194109" y="-21" type="curve" smooth="yes"/>
			<point x="457.4051194109" y="-21"/>
			<point x="585.4051194109" y="94"/>
			<point x="617.4051194109" y="223" type="curve" smooth="yes"/>
			<point x="646.7091194109" y="339.883"/>
			<point x="676.0131194109" y="456.766"/>
			<point x="705.4051194109" y="574" type="curve" smooth="yes"/>
			<point x="717.4051194109" y="623"/>
			<point x="740.4051194109" y="647"/>
			<point x="811.4051194109" y="650" type="curve" smooth="yes"/>
			<point x="821.4051194109" y="650"/>
			<point x="829.4051194109" y="656"/>
			<point x="829.4051194109" y="669" type="curve" smooth="yes"/>
			<point x="829.4051194109" y="675"/>
			<point x="824.4051194109" y="683"/>
			<point x="814.4051194109" y="683" type="curve" smooth="yes"/>
			<point x="811.6778694109" y="683"/>
			<point x="791.9922243684" y="682.1074528925"/>
			<point x="769.4665390572" y="681.2960383171" type="curve" smooth="yes"/>
			<point x="725.4051194109" y="680"/>
			<point x="689.0061094109" y="680.0453"/>
			<point x="661.4390702629" y="681.0222447294" type="curve" smooth="yes"/>
			<point x="636.9082012413" y="681.8915916032"/>
			<point x="618.8756794109" y="683"/>
			<point x="613.4051194109" y="683" type="curve" smooth="yes"/>
			<point x="597.4051194109" y="683"/>
			<point x="594.4051194109" y="672"/>
			<point x="594.4051194109" y="664" type="curve" smooth="yes"/>
			<point x="594.4051194109" y="651"/>
			<point x="607.4051194109" y="650"/>
			<point x="616.4051194109" y="650" type="curve" smooth="yes"/>
			<point x="677.4051194109" y="648"/>
			<point x="677.4051194109" y="621"/>
			<point x="677.4051194109" y="607" type="curve" smooth="yes"/>
			<point x="677.4051194109" y="601"/>
			<point x="676.4051194109" y="596"/>
			<point x="675.4051194109" y="590" type="curve" smooth="yes"/>
			<point x="673.4051194109" y="583"/>
			<point x="589.4051194109" y="248"/>
			<point x="586.4051194109" y="235" type="curve" smooth="yes"/>
			<point x="549.4051194109" y="91"/>
			<point x="424.4051194109" y="12"/>
			<point x="325.4051194109" y="12" type="curve" smooth="yes"/>
			<point x="256.4051194109" y="12"/>
			<point x="194.4051194109" y="53"/>
			<point x="194.4051194109" y="145" type="curve" smooth="yes"/>
			<point x="194.4051194109" y="162"/>
			<point x="197.4051194109" y="189"/>
			<point x="201.4051194109" y="205" type="curve" smooth="yes"/>
			<point x="301.4051194109" y="605" type="line" smooth="yes"/>
			<point x="310.4051194109" y="641"/>
			<point x="312.4051194109" y="650"/>
			<point x="385.4051194109" y="650" type="curve" smooth="yes"/>
			<point x="405.4051194109" y="650"/>
			<point x="417.4051194109" y="650"/>
			<point x="417.4051194109" y="669" type="curve" smooth="yes"/>
			<point x="417.4051194109" y="670"/>
			<point x="416.4051194109" y="683"/>
			<point x="400.4051194109" y="683" type="curve" smooth="yes"/>
			<point x="381.4051194109" y="683"/>
			<point x="357.4051194109" y="680"/>
			<point x="338.4051194109" y="680" type="curve" smooth="yes"/>
			<point x="317.4261194109" y="680"/>
			<point x="296.4471194109" y="680"/>
			<point x="275.4051194109" y="680" type="curve" smooth="yes"/>
			<point x="199.4051194109" y="680"/>
			<point x="153.4051194109" y="683"/>
			<point x="146.4051194109" y="683" type="curve" smooth="yes"/>
			<point x="142.4051194109" y="683"/>
			<point x="126.4051194109" y="683"/>
			<point x="126.4051194109" y="664" type="curve" smooth="yes"/>
			<point x="126.4051194109" y="650"/>
			<point x="139.4051194109" y="650"/>
			<point x="155.4051194109" y="650" type="curve" smooth="yes"/>
			<point x="170.8405394109" y="650"/>
			<point x="185.4008365805" y="650"/>
			<point x="196.5276987154" y="648.3626801892" type="curve" smooth="yes"/>
			<point x="209.1893988905" y="646.4995086784"/>
			<point x="217.4051194109" y="642.51616"/>
			<point x="217.4051194109" y="634" type="curve" smooth="yes"/>
			<point x="217.4051194109" y="629"/>
			<point x="207.4051194109" y="593"/>
			<point x="202.4051194109" y="572" type="curve" smooth="yes"/>
			<point x="177.7631194109" y="472.1"/>
			<point x="153.1211194109" y="372.2"/>
			<point x="128.4051194109" y="272" type="curve" smooth="yes"/>
			<point x="114.4051194109" y="217"/>
			<point x="110.4051194109" y="202"/>
			<point x="110.4051194109" y="175" type="curve" smooth="yes"/>
			<point x="110.4051194109" y="58"/>
			<point x="202.4051194109" y="-21"/>
		</contour>
	</outline>
</glyph>
<glyph name="V" format="2">
	<unicode hex="0056"/>
	<advance width="618"/>
	<outline>
		<contour>
			<point x="304.4051194109" y="-21" type="curve" smooth="yes"/>
			<point x="321.4051194109" y="-21"/>
			<point x="327.4051194109" y="-12"/>
			<point x="334.4051194109" y="-1" type="curve" smooth="yes"/>
			<point x="708.4051194109" y="564" type="line" smooth="yes"/>
			<point x="758.4051194109" y="640"/>
			<point x="796.4051194109" y="648"/>
			<point x="836.4051194109" y="650" type="curve" smooth="yes"/>
			<point x="847.4051194109" y="651"/>
			<point x="851.4051194109" y="661"/>
			<point x="851.4051194109" y="669" type="curve" smooth="yes"/>
			<point x="851.4051194109" y="672"/>
			<point x="849.4051194109" y="683"/>
			<point x="837.4051194109" y="683" type="curve" smooth="yes"/>
			<point x="825.4051194109" y="683"/>
			<point x="829.4051194109" y="680"/>
			<point x="756.4051194109" y="680" type="curve" smooth="yes"/>
			<point x="692.4051194109" y="680"/>
			<point x="665.4051194109" y="683"/>
			<point x="661.4051194109" y="683" type="curve" smooth="yes"/>
			<point x="656.4051194109" y="683"/>
			<point x="641.4051194109" y="683"/>
			<point x="641.4051194109" y="664" type="curve" smooth="yes"/>
			<point x="641.4051194109" y="651"/>
			<point x="654.4051194109" y="650"/>
			<point x="659.4051194109" y="650" type="curve"/>
			<point x="686.4051194109" y="648"/>
			<point x="699.4051194109" y="638"/>
			<point x="699.4051194109" y="620" type="curve" smooth="yes"/>
			<point x="699.4051194109" y="604"/>
			<point x="690.4051194109" y="591"/>
			<point x="685.4051194109" y="583" type="curve" smooth="yes"/>
			<point x="360.4051194109" y="91" type="line"/>
			<point x="277.4051194109" y="605" type="line" smooth="yes"/>
			<point x="276.4051194109" y="614"/>
			<point x="275.4051194109" y="619"/>
			<point x="275.4051194109" y="622" type="curve" smooth="yes"/>
			<point x="275.4051194109" y="635"/>
			<point x="290.4051194109" y="650"/>
			<point x="341.4051194109" y="650" type="curve" smooth="yes"/>
			<point x="353.4051194109" y="650"/>
			<point x="366.4051194109" y="650"/>
			<point x="366.4051194109" y="669" type="curve" smooth="yes"/>
			<point x="366.4051194109" y="673"/>
			<point x="363.4051194109" y="683"/>
			<point x="350.4051194109" y="683" type="curve" smooth="yes"/>
			<point x="341.4051194109" y="683"/>
			<point x="301.4051194109" y="681"/>
			<point x="293.4051194109" y="680" type="curve"/>
			<point x="272.4261194109" y="680"/>
			<point x="251.4471194109" y="680"/>
			<point x="230.4051194109" y="680" type="curve" smooth="yes"/>
			<point x="140.4051194109" y="680"/>
			<point x="127.4051194109" y="683"/>
			<point x="118.4051194109" y="683" type="curve" smooth="yes"/>
			<point x="114.4051194109" y="683"/>
			<point x="99.4051194109" y="683"/>
			<point x="99.4051194109" y="664" type="curve" smooth="yes"/>
			<point x="99.4051194109" y="650"/>
			<point x="112.4051194109" y="650"/>
			<point x="127.4051194109" y="650" type="curve" smooth="yes"/>
			<point x="178.4051194109" y="650"/>
			<point x="179.4051194109" y="641"/>
			<point x="183.4051194109" y="616" type="curve" smooth="yes"/>
			<point x="281.4051194109" y="7" type="line" smooth="yes"/>
			<point x="284.4051194109" y="-13"/>
			<point x="285.4051194109" y="-21"/>
		</contour>
	</outline>
</glyph>
<glyph name="W" format="2">
	<unicode hex="0057"/>
	<advance width="2004"/>
	<outline>
		<contour>
			<point x="1060.8102388219" y="1024" type="line"/>
			<point x="1156.8102388219" y="14" type="line" smooth="yes"/>
			<point x="1160.8102388219" y="-22"/>
			<point x="1162.8102388219" y="-42"/>
			<point x="1194.8102388219" y="-42" type="curve" smooth="yes"/>
			<point x="1228.8102388219" y="-42"/>
			<point x="1240.8102388219" y="-20"/>
			<point x="1252.8102388219" y="0" type="curve" smooth="yes"/>
			<point x="1922.8102388219" y="1126" type="line" smooth="yes"/>
			<point x="2012.8102388219" y="1276"/>
			<point x="2080.8102388219" y="1294"/>
			<point x="2146.8102388219" y="1300" type="curve" smooth="yes"/>
			<point x="2164.8102388219" y="1302"/>
			<point x="2188.8102388219" y="1304"/>
			<point x="2188.8102388219" y="1338" type="curve" smooth="yes"/>
			<point x="2188.8102388219" y="1352"/>
			<point x="2176.8102388219" y="1366"/>
			<point x="2160.8102388219" y="1366" type="curve" smooth="yes"/>
			<point x="2126.8102388219" y="1366"/>
			<point x="2158.8102388219" y="1360"/>
			<point x="2000.8102388219" y="1360" type="curve" smooth="yes"/>
			<point x="1868.8102388219" y="1360"/>
			<point x="1810.8102388219" y="1366"/>
			<point x="1800.8102388219" y="1366" type="curve" smooth="yes"/>
			<point x="1768.8102388219" y="1366"/>
			<point x="1762.8102388219" y="1344"/>
			<point x="1762.8102388219" y="1328" type="curve" smooth="yes"/>
			<point x="1762.8102388219" y="1302"/>
			<point x="1790.8102388219" y="1300"/>
			<point x="1796.8102388219" y="1300" type="curve" smooth="yes"/>
			<point x="1852.8102388219" y="1298"/>
			<point x="1902.8102388219" y="1278"/>
			<point x="1902.8102388219" y="1228" type="curve" smooth="yes"/>
			<point x="1902.8102388219" y="1202"/>
			<point x="1882.8102388219" y="1168"/>
			<point x="1872.8102388219" y="1152" type="curve" smooth="yes"/>
			<point x="1318.8102388219" y="220" type="line"/>
			<point x="1220.8102388219" y="1234" type="line" smooth="yes"/>
			<point x="1218.8102388219" y="1260"/>
			<point x="1242.8102388219" y="1300"/>
			<point x="1356.8102388219" y="1300" type="curve" smooth="yes"/>
			<point x="1386.8102388219" y="1300"/>
			<point x="1410.8102388219" y="1300"/>
			<point x="1410.8102388219" y="1338" type="curve" smooth="yes"/>
			<point x="1410.8102388219" y="1354"/>
			<point x="1398.8102388219" y="1366"/>
			<point x="1378.8102388219" y="1366" type="curve" smooth="yes"/>
			<point x="1358.8102388219" y="1366"/>
			<point x="1284.8102388219" y="1362"/>
			<point x="1264.8102388219" y="1360" type="curve"/>
			<point x="1224.8102388219" y="1360"/>
			<point x="1184.8102388219" y="1360"/>
			<point x="1144.8102388219" y="1360" type="curve" smooth="yes"/>
			<point x="966.8102388219" y="1360"/>
			<point x="944.8102388219" y="1366"/>
			<point x="928.8102388219" y="1366" type="curve" smooth="yes"/>
			<point x="920.8102388219" y="1366"/>
			<point x="888.8102388219" y="1366"/>
			<point x="888.8102388219" y="1328" type="curve" smooth="yes"/>
			<point x="888.8102388219" y="1300"/>
			<point x="914.8102388219" y="1300"/>
			<point x="944.8102388219" y="1300" type="curve" smooth="yes"/>
			<point x="1028.8102388219" y="1300"/>
			<point x="1034.8102388219" y="1284"/>
			<point x="1038.8102388219" y="1256" type="curve"/>
			<point x="1038.8102388219" y="1252"/>
			<point x="1050.8102388219" y="1136"/>
			<point x="1050.8102388219" y="1130" type="curve" smooth="yes"/>
			<point x="1050.8102388219" y="1124"/>
			<point x="1050.8102388219" y="1114"/>
			<point x="1036.8102388219" y="1092" type="curve" smooth="yes"/>
			<point x="516.8102388219" y="220" type="line"/>
			<point x="420.8102388219" y="1222" type="line" smooth="yes"/>
			<point x="418.8102388219" y="1252"/>
			<point x="424.8102388219" y="1300"/>
			<point x="558.8102388219" y="1300" type="curve" smooth="yes"/>
			<point x="580.8102388219" y="1300"/>
			<point x="608.8102388219" y="1300"/>
			<point x="608.8102388219" y="1338" type="curve" smooth="yes"/>
			<point x="608.8102388219" y="1354"/>
			<point x="594.8102388219" y="1366"/>
			<point x="576.8102388219" y="1366" type="curve" smooth="yes"/>
			<point x="556.8102388219" y="1366"/>
			<point x="482.8102388219" y="1362"/>
			<point x="462.8102388219" y="1360" type="curve"/>
			<point x="422.8102388219" y="1360"/>
			<point x="382.8102388219" y="1360"/>
			<point x="342.8102388219" y="1360" type="curve" smooth="yes"/>
			<point x="158.8102388219" y="1360"/>
			<point x="150.8102388219" y="1366"/>
			<point x="126.8102388219" y="1366" type="curve" smooth="yes"/>
			<point x="94.8102388219" y="1366"/>
			<point x="88.8102388219" y="1344"/>
			<point x="88.8102388219" y="1328" type="curve" smooth="yes"/>
			<point x="88.8102388219" y="1300"/>
			<point x="116.8102388219" y="1300"/>
			<point x="138.8102388219" y="1300" type="curve" smooth="yes"/>
			<point x="232.8102388219" y="1300"/>
			<point x="234.8102388219" y="1286"/>
			<point x="238.8102388219" y="1236" type="curve" smooth="yes"/>
			<point x="354.8102388219" y="16" type="line" smooth="yes"/>
			<point x="358.8102388219" y="-22"/>
			<point x="360.8102388219" y="-42"/>
			<point x="394.8102388219" y="-42" type="curve" smooth="yes"/>
			<point x="410.8102388219" y="-42"/>
			<point x="430.8102388219" y="-36"/>
			<point x="452.8102388219" y="0" type="curve" smooth="yes"/>
		</contour>
	</outline>
</glyph>
<glyph name="X" format="2">
  <advance width="873"/>
  <unicode hex="0058"/>
  <outline>
    <contour>
      <point x="560.4051194109433" y="382.0" type="curve"/>
      <point x="608.4051194109433" y="431.0"/>
      <point x="750.4051194109433" y="577.0"/>
      <point x="774.4051194109433" y="596.0" type="curve" smooth="yes"/>
      <point x="816.4051194109433" y="628.0"/>
      <point x="841.4051194109433" y="646.0"/>
      <point x="913.4051194109433" y="650.0" type="curve" smooth="yes"/>
      <point x="919.4051194109433" y="650.0"/>
      <point x="927.4051194109433" y="656.0"/>
      <point x="927.4051194109433" y="669.0" type="curve" smooth="yes"/>
      <point x="927.4051194109433" y="678.0"/>
      <point x="918.4051194109433" y="683.0"/>
      <point x="913.4051194109433" y="683.0" type="curve" smooth="yes"/>
      <point x="903.4051194109433" y="683.0"/>
      <point x="887.4051194109433" y="680.0"/>
      <point x="819.4051194109433" y="680.0" type="curve" smooth="yes"/>
      <point x="744.4051194109433" y="680.0"/>
      <point x="717.4051194109433" y="683.0"/>
      <point x="712.4051194109433" y="683.0" type="curve" smooth="yes"/>
      <point x="708.4051194109433" y="683.0"/>
      <point x="692.4051194109433" y="683.0"/>
      <point x="692.4051194109433" y="664.0" type="curve" smooth="yes"/>
      <point x="692.4051194109433" y="663.0"/>
      <point x="692.4051194109433" y="652.0"/>
      <point x="707.4051194109433" y="650.0" type="curve" smooth="yes"/>
      <point x="714.4051194109433" y="649.0"/>
      <point x="741.4051194109433" y="647.0"/>
      <point x="741.4051194109433" y="624.0" type="curve" smooth="yes"/>
      <point x="741.4051194109433" y="615.0"/>
      <point x="735.4051194109433" y="601.0"/>
      <point x="713.4051194109433" y="579.0" type="curve" smooth="yes"/>
      <point x="546.4051194109433" y="410.0" type="line"/>
      <point x="444.4051194109432" y="622.0" type="line"/>
      <point x="444.4051194109432" y="622.0"/>
      <point x="444.4051194109432" y="622.0"/>
      <point x="444.4051194109432" y="622.0" type="curve"/>
      <point x="458.4051194109432" y="646.0"/>
      <point x="488.4051194109432" y="650.0"/>
      <point x="500.4051194109432" y="650.0" type="curve" smooth="yes"/>
      <point x="505.4051194109432" y="650.0"/>
      <point x="519.4051194109433" y="651.0"/>
      <point x="519.4051194109433" y="668.0" type="curve" smooth="yes"/>
      <point x="519.4051194109433" y="677.0"/>
      <point x="512.4051194109433" y="683.0"/>
      <point x="503.4051194109432" y="683.0" type="curve" smooth="yes"/>
      <point x="493.4051194109432" y="683.0"/>
      <point x="455.4051194109432" y="681.0"/>
      <point x="445.4051194109432" y="681.0" type="curve" smooth="yes"/>
      <point x="419.4051194109432" y="680.0"/>
      <point x="382.4051194109432" y="680.0"/>
      <point x="361.4051194109432" y="680.0" type="curve" smooth="yes"/>
      <point x="328.4051194109432" y="680.0"/>
      <point x="276.4051194109432" y="683.0"/>
      <point x="267.4051194109432" y="683.0" type="curve" smooth="yes"/>
      <point x="263.4051194109432" y="683.0"/>
      <point x="247.4051194109432" y="683.0"/>
      <point x="247.4051194109432" y="664.0" type="curve" smooth="yes"/>
      <point x="247.4051194109432" y="650.0"/>
      <point x="260.4051194109432" y="650.0"/>
      <point x="276.4051194109432" y="650.0" type="curve" smooth="yes"/>
      <point x="326.4051194109432" y="650.0"/>
      <point x="335.4051194109432" y="640.0"/>
      <point x="344.4051194109432" y="621.0" type="curve" smooth="yes"/>
      <point x="388.6941194109432" y="527.76"/>
      <point x="432.9831194109432" y="434.52"/>
      <point x="477.4051194109432" y="341.0" type="curve"/>
      <point x="409.1401194109432" y="271.403"/>
      <point x="340.8751194109432" y="201.806"/>
      <point x="272.4051194109432" y="132.0" type="curve" smooth="yes"/>
      <point x="212.4051194109432" y="72.0"/>
      <point x="165.4051194109432" y="37.0"/>
      <point x="94.4051194109432" y="33.0" type="curve" smooth="yes"/>
      <point x="82.4051194109432" y="32.0"/>
      <point x="70.4051194109432" y="32.0"/>
      <point x="70.4051194109432" y="14.0" type="curve" smooth="yes"/>
      <point x="70.4051194109432" y="8.0"/>
      <point x="75.4051194109432" y="0.0"/>
      <point x="85.4051194109432" y="0.0" type="curve" smooth="yes"/>
      <point x="92.4051194109432" y="0.0"/>
      <point x="103.4051194109432" y="3.0"/>
      <point x="179.4051194109432" y="3.0" type="curve" smooth="yes"/>
      <point x="251.4051194109432" y="3.0"/>
      <point x="282.4051194109432" y="0.0"/>
      <point x="286.4051194109432" y="0.0" type="curve" smooth="yes"/>
      <point x="291.4051194109432" y="0.0"/>
      <point x="306.4051194109432" y="0.0"/>
      <point x="306.4051194109432" y="19.0" type="curve" smooth="yes"/>
      <point x="306.4051194109432" y="21.0"/>
      <point x="305.4051194109432" y="32.0"/>
      <point x="290.4051194109432" y="33.0" type="curve" smooth="yes"/>
      <point x="271.4051194109432" y="34.0"/>
      <point x="257.4051194109432" y="41.0"/>
      <point x="257.4051194109432" y="59.0" type="curve" smooth="yes"/>
      <point x="257.4051194109432" y="75.0"/>
      <point x="270.4051194109432" y="88.0"/>
      <point x="284.4051194109432" y="103.0" type="curve" smooth="yes"/>
      <point x="313.4051194109432" y="134.0"/>
      <point x="433.4051194109432" y="255.0"/>
      <point x="491.4051194109432" y="312.0" type="curve"/>
      <point x="606.4051194109433" y="73.0" type="line" smooth="yes"/>
      <point x="611.4051194109433" y="63.0"/>
      <point x="611.4051194109433" y="62.0"/>
      <point x="611.4051194109433" y="61.0" type="curve" smooth="yes"/>
      <point x="611.4051194109433" y="52.0"/>
      <point x="590.4051194109433" y="35.0"/>
      <point x="557.4051194109433" y="33.0" type="curve" smooth="yes"/>
      <point x="550.4051194109433" y="33.0"/>
      <point x="537.4051194109433" y="32.0"/>
      <point x="537.4051194109433" y="14.0" type="curve" smooth="yes"/>
      <point x="537.4051194109433" y="13.0"/>
      <point x="538.4051194109433" y="0.0"/>
      <point x="554.4051194109433" y="0.0" type="curve" smooth="yes"/>
      <point x="564.4051194109433" y="0.0"/>
      <point x="601.4051194109433" y="3.0"/>
      <point x="636.4051194109433" y="3.0" type="curve" smooth="yes"/>
      <point x="649.3921194109432" y="3.0"/>
      <point x="662.3791194109432" y="3.0"/>
      <point x="675.4051194109433" y="3.0" type="curve" smooth="yes"/>
      <point x="767.4051194109433" y="3.0"/>
      <point x="781.4051194109433" y="0.0"/>
      <point x="790.4051194109433" y="0.0" type="curve" smooth="yes"/>
      <point x="794.4051194109433" y="0.0"/>
      <point x="809.4051194109433" y="0.0"/>
      <point x="809.4051194109433" y="19.0" type="curve" smooth="yes"/>
      <point x="809.4051194109433" y="33.0"/>
      <point x="796.4051194109433" y="33.0"/>
      <point x="781.4051194109433" y="33.0" type="curve" smooth="yes"/>
      <point x="727.4051194109433" y="33.0"/>
      <point x="721.4051194109433" y="45.0"/>
      <point x="714.4051194109433" y="60.0" type="curve" smooth="yes"/>
      <point x="663.1231194109432" y="167.226"/>
      <point x="611.8411194109432" y="274.452"/>
    </contour>
  </outline>
</glyph>
<glyph name="Y" format="2">
	<unicode hex="0059"/>
	<advance width="615"/>
	<outline>
		<contour>
			<point x="320" y="316" type="line"/>
			<point x="194" y="612" type="line"/>
			<point x="192" y="616"/>
			<point x="188" y="626"/>
			<point x="188" y="630" type="curve" smooth="yes"/>
			<point x="188" y="650"/>
			<point x="235" y="650"/>
			<point x="244" y="650" type="curve" smooth="yes"/>
			<point x="254" y="650"/>
			<point x="268" y="650"/>
			<point x="268" y="669" type="curve" smooth="yes"/>
			<point x="268" y="674"/>
			<point x="264" y="683"/>
			<point x="252" y="683" type="curve" smooth="yes"/>
			<point x="238" y="683"/>
			<point x="205" y="681"/>
			<point x="190" y="680" type="curve"/>
			<point x="169.354" y="680"/>
			<point x="148.708" y="680"/>
			<point x="128" y="680" type="curve" smooth="yes"/>
			<point x="36" y="680"/>
			<point x="22" y="683"/>
			<point x="13" y="683" type="curve" smooth="yes"/>
			<point x="-3" y="683"/>
			<point x="-6" y="672"/>
			<point x="-6" y="664" type="curve" smooth="yes"/>
			<point x="-6" y="650"/>
			<point x="7" y="650"/>
			<point x="21" y="650" type="curve" smooth="yes"/>
			<point x="75" y="650"/>
			<point x="80" y="639"/>
			<point x="88" y="620" type="curve" smooth="yes"/>
			<point x="235" y="274" type="line"/>
			<point x="235" y="274"/>
			<point x="235" y="274"/>
			<point x="235" y="274" type="curve"/>
			<point x="220.015" y="213.061"/>
			<point x="205.03" y="152.122"/>
			<point x="190" y="91" type="curve" smooth="yes"/>
			<point x="177" y="37"/>
			<point x="175" y="34"/>
			<point x="98" y="33" type="curve"/>
			<point x="82" y="33"/>
			<point x="70" y="33"/>
			<point x="70" y="14" type="curve" smooth="yes"/>
			<point x="70" y="10"/>
			<point x="73" y="0"/>
			<point x="86" y="0" type="curve" smooth="yes"/>
			<point x="105" y="0"/>
			<point x="128" y="2"/>
			<point x="148" y="3" type="curve" smooth="yes"/>
			<point x="190.291" y="3"/>
			<point x="232.582" y="3"/>
			<point x="275" y="3" type="curve"/>
			<point x="290" y="2"/>
			<point x="324" y="0"/>
			<point x="337" y="0" type="curve" smooth="yes"/>
			<point x="343" y="0"/>
			<point x="358" y="0"/>
			<point x="358" y="19" type="curve" smooth="yes"/>
			<point x="358" y="33"/>
			<point x="345" y="33"/>
			<point x="328" y="33" type="curve" smooth="yes"/>
			<point x="327" y="33"/>
			<point x="306" y="33"/>
			<point x="290" y="35" type="curve" smooth="yes"/>
			<point x="268" y="38"/>
			<point x="267" y="40"/>
			<point x="267" y="50" type="curve" smooth="yes"/>
			<point x="267" y="58"/>
			<point x="279" y="107"/>
			<point x="286" y="136" type="curve" smooth="yes"/>
			<point x="298" y="184"/>
			<point x="307" y="217"/>
			<point x="317" y="259" type="curve" smooth="yes"/>
			<point x="320" y="272"/>
			<point x="321" y="274"/>
			<point x="330" y="284" type="curve" smooth="yes"/>
			<point x="588" y="563" type="line" smooth="yes"/>
			<point x="595" y="571"/>
			<point x="604" y="579"/>
			<point x="612" y="587" type="curve" smooth="yes"/>
			<point x="649" y="621"/>
			<point x="682" y="646"/>
			<point x="738" y="650" type="curve" smooth="yes"/>
			<point x="747" y="651"/>
			<point x="759" y="652"/>
			<point x="759" y="669" type="curve" smooth="yes"/>
			<point x="759" y="676"/>
			<point x="752" y="683"/>
			<point x="745" y="683" type="curve" smooth="yes"/>
			<point x="733" y="683"/>
			<point x="735" y="680"/>
			<point x="662" y="680" type="curve" smooth="yes"/>
			<point x="596" y="680"/>
			<point x="573" y="683"/>
			<point x="567" y="683" type="curve" smooth="yes"/>
			<point x="563" y="683"/>
			<point x="548" y="683"/>
			<point x="548" y="664" type="curve" smooth="yes"/>
			<point x="548" y="655"/>
			<point x="555" y="651"/>
			<point x="564" y="650" type="curve" smooth="yes"/>
			<point x="594" y="648"/>
			<point x="595" y="637"/>
			<point x="595" y="631" type="curve" smooth="yes"/>
			<point x="595" y="612"/>
			<point x="564" y="580"/>
			<point x="564" y="579" type="curve"/>
		</contour>
	</outline>
</glyph>
<glyph name="Z" format="2">
	<unicode hex="005A"/>
	<advance width="1438"/>
	<outline>
		<contour>
			<point x="1200" y="1300" type="line"/>
			<point x="58" y="76" type="line" smooth="yes"/>
			<point x="42" y="58"/>
			<point x="30" y="46"/>
			<point x="30" y="22" type="curve" smooth="yes"/>
			<point x="30" y="0"/>
			<point x="48" y="0"/>
			<point x="84" y="0" type="curve" smooth="yes"/>
			<point x="1008" y="0" type="line" smooth="yes"/>
			<point x="1060" y="0"/>
			<point x="1062" y="2"/>
			<point x="1074" y="40" type="curve" smooth="yes"/>
			<point x="1220" y="498" type="line" smooth="yes"/>
			<point x="1224" y="510"/>
			<point x="1222" y="538"/>
			<point x="1192" y="538" type="curve" smooth="yes"/>
			<point x="1178" y="538"/>
			<point x="1164" y="528"/>
			<point x="1160" y="514" type="curve" smooth="yes"/>
			<point x="1156" y="502"/>
			<point x="1154" y="492"/>
			<point x="1142" y="458" type="curve" smooth="yes"/>
			<point x="1052" y="188"/>
			<point x="936" y="72"/>
			<point x="620" y="72" type="curve" smooth="yes"/>
			<point x="254" y="72" type="line"/>
			<point x="1390" y="1290" type="line" smooth="yes"/>
			<point x="1406" y="1306"/>
			<point x="1418" y="1320"/>
			<point x="1418" y="1344" type="curve" smooth="yes"/>
			<point x="1418" y="1366"/>
			<point x="1402" y="1366"/>
			<point x="1364" y="1366" type="curve" smooth="yes"/>
			<point x="474" y="1366" type="line" smooth="yes"/>
			<point x="422" y="1366"/>
			<point x="420" y="1364"/>
			<point x="408" y="1326" type="curve" smooth="yes"/>
			<point x="296" y="970" type="line" smooth="yes"/>
			<point x="294" y="962"/>
			<point x="290" y="950"/>
			<point x="290" y="940" type="curve" smooth="yes"/>
			<point x="290" y="936"/>
			<point x="292" y="912"/>
			<point x="320" y="912" type="curve" smooth="yes"/>
			<point x="342" y="912"/>
			<point x="346" y="920"/>
			<point x="358" y="960" type="curve" smooth="yes"/>
			<point x="454" y="1232"/>
			<point x="610" y="1300"/>
			<point x="854" y="1300" type="curve" smooth="yes"/>
		</contour>
	</outline>
</glyph>
<glyph name="a" format="2">
  <advance width="564"/>
  <unicode hex="0061"/>
  <outline>
    <contour>
      <point x="81.4051194109432" y="154.0" type="curve" smooth="yes"/>
      <point x="81.4051194109432" y="50.0"/>
      <point x="148.4051194109432" y="-10.0"/>
      <point x="225.4051194109432" y="-10.0" type="curve" smooth="yes"/>
      <point x="289.4051194109432" y="-10.0"/>
      <point x="344.4051194109432" y="41.0"/>
      <point x="362.4051194109432" y="61.0" type="curve"/>
      <point x="380.4051194109432" y="-8.0"/>
      <point x="448.4051194109432" y="-10.0"/>
      <point x="460.4051194109432" y="-10.0" type="curve" smooth="yes"/>
      <point x="506.4051194109432" y="-10.0"/>
      <point x="529.4051194109433" y="28.0"/>
      <point x="537.4051194109433" y="45.0" type="curve"/>
      <point x="557.4051194109433" y="81.0"/>
      <point x="571.4051194109433" y="139.0"/>
      <point x="571.4051194109433" y="143.0" type="curve" smooth="yes"/>
      <point x="571.4051194109433" y="149.0"/>
      <point x="567.4051194109433" y="156.0"/>
      <point x="555.4051194109433" y="156.0" type="curve" smooth="yes"/>
      <point x="543.4051194109433" y="156.0"/>
      <point x="541.4051194109433" y="150.0"/>
      <point x="535.4051194109433" y="125.0" type="curve" smooth="yes"/>
      <point x="521.4051194109433" y="70.0"/>
      <point x="502.4051194109432" y="18.0"/>
      <point x="463.4051194109432" y="18.0" type="curve" smooth="yes"/>
      <point x="440.4051194109432" y="18.0"/>
      <point x="431.4051194109432" y="37.0"/>
      <point x="431.4051194109432" y="65.0" type="curve" smooth="yes"/>
      <point x="431.4051194109432" y="82.0"/>
      <point x="440.4051194109432" y="116.0"/>
      <point x="446.4051194109432" y="141.0" type="curve" smooth="yes"/>
      <point x="452.4051194109432" y="166.0"/>
      <point x="467.4051194109432" y="226.0"/>
      <point x="491.4051194109432" y="320.0" type="curve" smooth="yes"/>
      <point x="497.4051194109432" y="344.0"/>
      <point x="507.4051194109432" y="386.0"/>
      <point x="507.4051194109432" y="391.0" type="curve" smooth="yes"/>
      <point x="507.4051194109432" y="414.0"/>
      <point x="488.4051194109432" y="422.0"/>
      <point x="475.4051194109432" y="422.0" type="curve" smooth="yes"/>
      <point x="460.4051194109432" y="422.0"/>
      <point x="435.4051194109432" y="412.0"/>
      <point x="430.4051194109432" y="381.0" type="curve"/>
      <point x="421.4051194109432" y="398.0"/>
      <point x="392.4051194109432" y="441.0"/>
      <point x="331.4051194109432" y="441.0" type="curve" smooth="yes"/>
      <point x="212.4051194109432" y="441.0"/>
      <point x="81.4051194109432" y="302.0"/>
    </contour>
    <contour>
      <point x="159.4051194109432" y="112.0" type="curve" smooth="yes"/>
      <point x="159.4051194109432" y="159.0"/>
      <point x="186.4051194109432" y="266.0"/>
      <point x="208.4051194109432" y="310.0" type="curve" smooth="yes"/>
      <point x="237.4051194109432" y="371.0"/>
      <point x="286.4051194109432" y="413.0"/>
      <point x="332.4051194109432" y="413.0" type="curve" smooth="yes"/>
      <point x="397.4051194109432" y="413.0"/>
      <point x="416.4051194109432" y="340.0"/>
      <point x="416.4051194109432" y="328.0" type="curve"/>
      <point x="416.4051194109432" y="328.0"/>
      <point x="416.4051194109432" y="328.0"/>
      <point x="416.4051194109432" y="328.0" type="curve"/>
      <point x="416.4051194109432" y="320.0"/>
      <point x="377.4051194109432" y="174.0"/>
      <point x="362.4051194109432" y="108.0" type="curve"/>
      <point x="351.5841194109432" y="93.06702"/>
      <point x="340.6694441781432" y="80.3822455872"/>
      <point x="329.8840988453432" y="69.6719886442" type="curve" smooth="yes"/>
      <point x="290.8341917389432" y="30.8939499444"/>
      <point x="253.4796794109432" y="18.0"/>
      <point x="228.4051194109432" y="18.0" type="curve" smooth="yes"/>
      <point x="182.4051194109432" y="18.0"/>
      <point x="159.4051194109432" y="60.0"/>
    </contour>
  </outline>
</glyph>
<glyph name="b" format="2">
	<unicode hex="0062"/>
	<advance width="454"/>
	<outline>
		<contour>
			<point x="142" y="-10" type="curve" smooth="yes"/>
			<point x="265" y="-10"/>
			<point x="393" y="132"/>
			<point x="393" y="277" type="curve" smooth="yes"/>
			<point x="393" y="376"/>
			<point x="329" y="441"/>
			<point x="249" y="441" type="curve" smooth="yes"/>
			<point x="193" y="441"/>
			<point x="150" y="405"/>
			<point x="128" y="386" type="curve"/>
			<point x="197" y="664" type="line"/>
			<point x="198" y="666"/>
			<point x="201" y="679"/>
			<point x="201" y="680" type="curve" smooth="yes"/>
			<point x="201" y="685"/>
			<point x="197" y="694"/>
			<point x="185" y="694" type="curve" smooth="yes"/>
			<point x="181" y="694"/>
			<point x="150.02812" y="690.64487"/>
			<point x="71" y="685" type="curve" smooth="yes"/>
			<point x="49" y="683"/>
			<point x="39" y="682"/>
			<point x="39" y="664" type="curve" smooth="yes"/>
			<point x="39" y="650"/>
			<point x="53" y="650"/>
			<point x="65" y="650" type="curve" smooth="yes"/>
			<point x="113" y="650"/>
			<point x="113" y="644"/>
			<point x="113" y="635" type="curve" smooth="yes"/>
			<point x="113" y="629"/>
			<point x="103" y="589"/>
			<point x="97" y="566" type="curve" smooth="yes"/>
			<point x="68.029" y="450.116"/>
			<point x="39.058" y="334.232"/>
			<point x="10" y="218" type="curve" smooth="yes"/>
			<point x="2" y="184"/>
			<point x="2" y="169"/>
			<point x="2" y="152" type="curve" smooth="yes"/>
			<point x="2" y="49"/>
			<point x="65" y="-10"/>
		</contour>
		<contour>
			<point x="142" y="18" type="curve" smooth="yes"/>
			<point x="106" y="18"/>
			<point x="70" y="46"/>
			<point x="70" y="119" type="curve" smooth="yes"/>
			<point x="70" y="146"/>
			<point x="74" y="171"/>
			<point x="86" y="219" type="curve" smooth="yes"/>
			<point x="93" y="248"/>
			<point x="100" y="276"/>
			<point x="108" y="305" type="curve" smooth="yes"/>
			<point x="113" y="323"/>
			<point x="113" y="325"/>
			<point x="125" y="340" type="curve" smooth="yes"/>
			<point x="159" y="382"/>
			<point x="204" y="413"/>
			<point x="246" y="413" type="curve" smooth="yes"/>
			<point x="296" y="413"/>
			<point x="315" y="364"/>
			<point x="315" y="319" type="curve" smooth="yes"/>
			<point x="315" y="282"/>
			<point x="293" y="175"/>
			<point x="263" y="116" type="curve" smooth="yes"/>
			<point x="237" y="62"/>
			<point x="189" y="18"/>
		</contour>
	</outline>
</glyph>
<glyph name="c" format="2">
	<unicode hex="0063"/>
	<advance width="920"/>
	<outline>
		<contour>
			<point x="56.8102388219" y="326" type="curve" smooth="yes"/>
			<point x="56.8102388219" y="136"/>
			<point x="186.8102388219" y="-20"/>
			<point x="408.8102388219" y="-20" type="curve" smooth="yes"/>
			<point x="530.8102388219" y="-20"/>
			<point x="630.8102388219" y="10"/>
			<point x="706.8102388219" y="49" type="curve" smooth="yes"/>
			<point x="827.8102388219" y="110"/>
			<point x="890.8102388219" y="192"/>
			<point x="890.8102388219" y="208" type="curve" smooth="yes"/>
			<point x="890.8102388219" y="226"/>
			<point x="870.8102388219" y="240"/>
			<point x="858.8102388219" y="240" type="curve" smooth="yes"/>
			<point x="846.8102388219" y="240"/>
			<point x="840.8102388219" y="234"/>
			<point x="830.8102388219" y="222" type="curve" smooth="yes"/>
			<point x="672.8102388219" y="36"/>
			<point x="448.8102388219" y="36"/>
			<point x="412.8102388219" y="36" type="curve" smooth="yes"/>
			<point x="304.8102388219" y="36"/>
			<point x="218.8102388219" y="102"/>
			<point x="218.8102388219" y="254" type="curve" smooth="yes"/>
			<point x="218.8102388219" y="342"/>
			<point x="258.8102388219" y="554"/>
			<point x="352.8102388219" y="678" type="curve" smooth="yes"/>
			<point x="440.8102388219" y="790"/>
			<point x="540.8102388219" y="826"/>
			<point x="618.8102388219" y="826" type="curve" smooth="yes"/>
			<point x="642.8102388219" y="826"/>
			<point x="734.8102388219" y="824"/>
			<point x="786.8102388219" y="766" type="curve"/>
			<point x="756.8102388219" y="762"/>
			<point x="733.8102388219" y="751"/>
			<point x="716.8102388219" y="737" type="curve" smooth="yes"/>
			<point x="688.8102388219" y="713"/>
			<point x="678.8102388219" y="679"/>
			<point x="678.8102388219" y="654" type="curve" smooth="yes"/>
			<point x="678.8102388219" y="596"/>
			<point x="730.8102388219" y="580"/>
			<point x="756.8102388219" y="580" type="curve" smooth="yes"/>
			<point x="766.8102388219" y="580"/>
			<point x="868.8102388219" y="588"/>
			<point x="868.8102388219" y="710" type="curve" smooth="yes"/>
			<point x="868.8102388219" y="832"/>
			<point x="736.8102388219" y="882"/>
			<point x="616.8102388219" y="882" type="curve" smooth="yes"/>
			<point x="332.8102388219" y="882"/>
			<point x="56.8102388219" y="606"/>
		</contour>
	</outline>
</glyph>
<glyph name="d" format="2">
	<unicode hex="0064"/>
	<advance width="1092"/>
	<outline>
		<contour>
			<point x="342.8102388219" y="-20" type="curve" smooth="yes"/>
			<point x="470.8102388219" y="-20"/>
			<point x="580.8102388219" y="82"/>
			<point x="616.8102388219" y="122" type="curve"/>
			<point x="652.8102388219" y="-16"/>
			<point x="788.8102388219" y="-20"/>
			<point x="812.8102388219" y="-20" type="curve" smooth="yes"/>
			<point x="904.8102388219" y="-20"/>
			<point x="950.8102388219" y="56"/>
			<point x="966.8102388219" y="90" type="curve"/>
			<point x="1006.8102388219" y="162"/>
			<point x="1034.8102388219" y="278"/>
			<point x="1034.8102388219" y="286" type="curve" smooth="yes"/>
			<point x="1034.8102388219" y="298"/>
			<point x="1026.8102388219" y="312"/>
			<point x="1002.8102388219" y="312" type="curve" smooth="yes"/>
			<point x="978.8102388219" y="312"/>
			<point x="974.8102388219" y="300"/>
			<point x="962.8102388219" y="250" type="curve" smooth="yes"/>
			<point x="934.8102388219" y="140"/>
			<point x="896.8102388219" y="36"/>
			<point x="818.8102388219" y="36" type="curve" smooth="yes"/>
			<point x="772.8102388219" y="36"/>
			<point x="754.8102388219" y="74"/>
			<point x="754.8102388219" y="130" type="curve" smooth="yes"/>
			<point x="754.8102388219" y="168"/>
			<point x="760.8102388219" y="190"/>
			<point x="766.8102388219" y="216" type="curve" smooth="yes"/>
			<point x="1044.8102388219" y="1328" type="line"/>
			<point x="1046.8102388219" y="1332"/>
			<point x="1052.8102388219" y="1358"/>
			<point x="1052.8102388219" y="1360" type="curve" smooth="yes"/>
			<point x="1052.8102388219" y="1370"/>
			<point x="1044.8102388219" y="1388"/>
			<point x="1020.8102388219" y="1388" type="curve" smooth="yes"/>
			<point x="1012.8102388219" y="1388"/>
			<point x="950.8102388219" y="1381"/>
			<point x="792.8102388219" y="1370" type="curve" smooth="yes"/>
			<point x="748.8102388219" y="1366"/>
			<point x="728.8102388219" y="1364"/>
			<point x="728.8102388219" y="1328" type="curve" smooth="yes"/>
			<point x="728.8102388219" y="1300"/>
			<point x="756.8102388219" y="1300"/>
			<point x="780.8102388219" y="1300" type="curve" smooth="yes"/>
			<point x="876.8102388219" y="1300"/>
			<point x="876.8102388219" y="1288"/>
			<point x="876.8102388219" y="1270" type="curve" smooth="yes"/>
			<point x="876.8102388219" y="1258"/>
			<point x="860.8102388219" y="1192"/>
			<point x="850.8102388219" y="1152" type="curve" smooth="yes"/>
			<point x="817.8102388219" y="1022"/>
			<point x="785.8102388219" y="892"/>
			<point x="752.8102388219" y="762" type="curve"/>
			<point x="734.8102388219" y="796"/>
			<point x="676.8102388219" y="882"/>
			<point x="554.8102388219" y="882" type="curve" smooth="yes"/>
			<point x="316.8102388219" y="882"/>
			<point x="54.8102388219" y="604"/>
			<point x="54.8102388219" y="308" type="curve" smooth="yes"/>
			<point x="54.8102388219" y="100"/>
			<point x="188.8102388219" y="-20"/>
		</contour>
		<contour>
			<point x="348.8102388219" y="36" type="curve" smooth="yes"/>
			<point x="256.8102388219" y="36"/>
			<point x="210.8102388219" y="120"/>
			<point x="210.8102388219" y="224" type="curve" smooth="yes"/>
			<point x="210.8102388219" y="318"/>
			<point x="264.8102388219" y="532"/>
			<point x="308.8102388219" y="620" type="curve" smooth="yes"/>
			<point x="366.8102388219" y="742"/>
			<point x="464.8102388219" y="826"/>
			<point x="556.8102388219" y="826" type="curve" smooth="yes"/>
			<point x="686.8102388219" y="826"/>
			<point x="724.8102388219" y="680"/>
			<point x="724.8102388219" y="656" type="curve" smooth="yes"/>
			<point x="724.8102388219" y="648"/>
			<point x="674.8102388219" y="452"/>
			<point x="662.8102388219" y="400" type="curve" smooth="yes"/>
			<point x="636.8102388219" y="306"/>
			<point x="636.8102388219" y="302"/>
			<point x="616.8102388219" y="216" type="curve"/>
			<point x="616.8102388219" y="216"/>
			<point x="616.8102388219" y="216"/>
			<point x="616.8102388219" y="216" type="curve"/>
			<point x="516.8102388219" y="78"/>
			<point x="412.8102388219" y="36"/>
		</contour>
	</outline>
</glyph>
<glyph name="e" format="2">
	<unicode hex="0065"/>
	<advance width="492"/>
	<outline>
		<contour>
			<point x="87.4051194109" y="175" type="curve" smooth="yes"/>
			<point x="87.4051194109" y="73"/>
			<point x="149.4051194109" y="-10"/>
			<point x="259.4051194109" y="-10" type="curve" smooth="yes"/>
			<point x="317.2545994109" y="-10"/>
			<point x="365.2030074101" y="3.75148889"/>
			<point x="402.6384076535" y="21.7694624674" type="curve" smooth="yes"/>
			<point x="466.1533087433" y="52.3397195546"/>
			<point x="499.4051194109" y="95.19162"/>
			<point x="499.4051194109" y="104" type="curve" smooth="yes"/>
			<point x="499.4051194109" y="113"/>
			<point x="489.4051194109" y="120"/>
			<point x="483.4051194109" y="120" type="curve" smooth="yes"/>
			<point x="477.4051194109" y="120"/>
			<point x="474.4051194109" y="117"/>
			<point x="469.4051194109" y="111" type="curve" smooth="yes"/>
			<point x="390.4051194109" y="18"/>
			<point x="278.4051194109" y="18"/>
			<point x="261.4051194109" y="18" type="curve" smooth="yes"/>
			<point x="188.4051194109" y="18"/>
			<point x="166.4051194109" y="80"/>
			<point x="166.4051194109" y="136" type="curve" smooth="yes"/>
			<point x="166.4051194109" y="166"/>
			<point x="175.4051194109" y="211"/>
			<point x="179.4051194109" y="228" type="curve"/>
			<point x="199.3851194109" y="228"/>
			<point x="219.3651194109" y="228"/>
			<point x="239.4051194109" y="228" type="curve" smooth="yes"/>
			<point x="261.4051194109" y="228"/>
			<point x="336.4051194109" y="229"/>
			<point x="389.4051194109" y="248" type="curve" smooth="yes"/>
			<point x="476.4051194109" y="278"/>
			<point x="479.4051194109" y="338"/>
			<point x="479.4051194109" y="353" type="curve" smooth="yes"/>
			<point x="479.4051194109" y="409"/>
			<point x="426.4051194109" y="441"/>
			<point x="361.4051194109" y="441" type="curve" smooth="yes"/>
			<point x="248.4051194109" y="441"/>
			<point x="87.4051194109" y="352"/>
		</contour>
		<contour>
			<point x="187.4051194109" y="256" type="curve"/>
			<point x="219.4051194109" y="378"/>
			<point x="310.4051194109" y="413"/>
			<point x="361.4051194109" y="413" type="curve" smooth="yes"/>
			<point x="401.4051194109" y="413"/>
			<point x="439.4051194109" y="393"/>
			<point x="439.4051194109" y="353" type="curve" smooth="yes"/>
			<point x="439.4051194109" y="256"/>
			<point x="275.4051194109" y="256"/>
			<point x="233.4051194109" y="256" type="curve" smooth="yes"/>
			<point x="218.0871194109" y="256"/>
			<point x="202.7691194109" y="256"/>
		</contour>
	</outline>
</glyph>
<glyph name="f" format="2">
	<unicode hex="0066"/>
	<advance width="1020"/>
	<outline>
		<contour>
			<point x="734.8102388219" y="796" type="curve"/>
			<point x="920.8102388219" y="796" type="line" smooth="yes"/>
			<point x="960.8102388219" y="796"/>
			<point x="984.8102388219" y="796"/>
			<point x="984.8102388219" y="834" type="curve" smooth="yes"/>
			<point x="984.8102388219" y="862"/>
			<point x="958.8102388219" y="862"/>
			<point x="924.8102388219" y="862" type="curve" smooth="yes"/>
			<point x="746.8102388219" y="862" type="line"/>
			<point x="778.8102388219" y="1042"/>
			<point x="798.8102388219" y="1156"/>
			<point x="818.8102388219" y="1246" type="curve" smooth="yes"/>
			<point x="826.8102388219" y="1280"/>
			<point x="832.8102388219" y="1302"/>
			<point x="862.8102388219" y="1326" type="curve" smooth="yes"/>
			<point x="888.8102388219" y="1348"/>
			<point x="904.8102388219" y="1352"/>
			<point x="926.8102388219" y="1352" type="curve" smooth="yes"/>
			<point x="956.8102388219" y="1352"/>
			<point x="988.8102388219" y="1346"/>
			<point x="1014.8102388219" y="1330" type="curve"/>
			<point x="960.8102388219" y="1310"/>
			<point x="924.8102388219" y="1272"/>
			<point x="924.8102388219" y="1220" type="curve" smooth="yes"/>
			<point x="924.8102388219" y="1174"/>
			<point x="960.8102388219" y="1146"/>
			<point x="1004.8102388219" y="1146" type="curve" smooth="yes"/>
			<point x="1062.8102388219" y="1146"/>
			<point x="1116.8102388219" y="1196"/>
			<point x="1116.8102388219" y="1266" type="curve" smooth="yes"/>
			<point x="1116.8102388219" y="1360"/>
			<point x="1020.8102388219" y="1408"/>
			<point x="924.8102388219" y="1408" type="curve" smooth="yes"/>
			<point x="856.8102388219" y="1408"/>
			<point x="730.8102388219" y="1376"/>
			<point x="666.8102388219" y="1192" type="curve" smooth="yes"/>
			<point x="648.8102388219" y="1146"/>
			<point x="648.8102388219" y="1142"/>
			<point x="594.8102388219" y="862" type="curve"/>
			<point x="444.8102388219" y="862" type="line" smooth="yes"/>
			<point x="404.8102388219" y="862"/>
			<point x="380.8102388219" y="862"/>
			<point x="380.8102388219" y="824" type="curve" smooth="yes"/>
			<point x="380.8102388219" y="796"/>
			<point x="406.8102388219" y="796"/>
			<point x="440.8102388219" y="796" type="curve" smooth="yes"/>
			<point x="582.8102388219" y="796" type="line"/>
			<point x="563.8102388219" y="691"/>
			<point x="543.8102388219" y="587"/>
			<point x="524.8102388219" y="482" type="curve"/>
			<point x="495.8102388219" y="328"/>
			<point x="467.8102388219" y="174"/>
			<point x="438.8102388219" y="20" type="curve" smooth="yes"/>
			<point x="400.8102388219" y="-182"/>
			<point x="370.8102388219" y="-352"/>
			<point x="264.8102388219" y="-352" type="curve" smooth="yes"/>
			<point x="258.8102388219" y="-352"/>
			<point x="216.8102388219" y="-352"/>
			<point x="178.8102388219" y="-328" type="curve"/>
			<point x="270.8102388219" y="-306"/>
			<point x="270.8102388219" y="-222"/>
			<point x="270.8102388219" y="-220" type="curve" smooth="yes"/>
			<point x="270.8102388219" y="-174"/>
			<point x="234.8102388219" y="-146"/>
			<point x="190.8102388219" y="-146" type="curve" smooth="yes"/>
			<point x="136.8102388219" y="-146"/>
			<point x="78.8102388219" y="-192"/>
			<point x="78.8102388219" y="-268" type="curve" smooth="yes"/>
			<point x="78.8102388219" y="-352"/>
			<point x="164.8102388219" y="-408"/>
			<point x="264.8102388219" y="-408" type="curve" smooth="yes"/>
			<point x="386.8102388219" y="-408"/>
			<point x="470.8102388219" y="-280"/>
			<point x="496.8102388219" y="-230" type="curve" smooth="yes"/>
			<point x="568.8102388219" y="-98"/>
			<point x="614.8102388219" y="152"/>
			<point x="618.8102388219" y="172" type="curve" smooth="yes"/>
			<point x="657.8102388219" y="380"/>
			<point x="695.8102388219" y="588"/>
		</contour>
	</outline>
</glyph>
<glyph name="g" format="2">
	<unicode hex="0067"/>
	<advance width="1010"/>
	<outline>
		<contour>
			<point x="120.8102388219" y="324" type="curve" smooth="yes"/>
			<point x="120.8102388219" y="108"/>
			<point x="262.8102388219" y="0"/>
			<point x="410.8102388219" y="0" type="curve" smooth="yes"/>
			<point x="502.8102388219" y="0"/>
			<point x="584.8102388219" y="50"/>
			<point x="650.8102388219" y="108" type="curve"/>
			<point x="650.8102388219" y="108" type="line"/>
			<point x="635.8102388219" y="48"/>
			<point x="621.8102388219" y="-12"/>
			<point x="606.8102388219" y="-72" type="curve" smooth="yes"/>
			<point x="586.8102388219" y="-156"/>
			<point x="570.8102388219" y="-214"/>
			<point x="492.8102388219" y="-280" type="curve" smooth="yes"/>
			<point x="408.8102388219" y="-352"/>
			<point x="332.8102388219" y="-352"/>
			<point x="282.8102388219" y="-352" type="curve" smooth="yes"/>
			<point x="232.8102388219" y="-352"/>
			<point x="184.8102388219" y="-350"/>
			<point x="136.8102388219" y="-340" type="curve"/>
			<point x="180.8102388219" y="-316"/>
			<point x="200.8102388219" y="-274"/>
			<point x="200.8102388219" y="-240" type="curve" smooth="yes"/>
			<point x="200.8102388219" y="-192"/>
			<point x="164.8102388219" y="-166"/>
			<point x="122.8102388219" y="-166" type="curve" smooth="yes"/>
			<point x="72.8102388219" y="-166"/>
			<point x="10.8102388219" y="-206"/>
			<point x="10.8102388219" y="-286" type="curve" smooth="yes"/>
			<point x="10.8102388219" y="-400"/>
			<point x="166.8102388219" y="-408"/>
			<point x="286.8102388219" y="-408" type="curve" smooth="yes"/>
			<point x="570.8102388219" y="-408"/>
			<point x="712.8102388219" y="-256"/>
			<point x="742.8102388219" y="-134" type="curve" smooth="yes"/>
			<point x="960.8102388219" y="738" type="line" smooth="yes"/>
			<point x="968.8102388219" y="768"/>
			<point x="968.8102388219" y="780"/>
			<point x="968.8102388219" y="782" type="curve" smooth="yes"/>
			<point x="968.8102388219" y="828"/>
			<point x="930.8102388219" y="844"/>
			<point x="904.8102388219" y="844" type="curve" smooth="yes"/>
			<point x="858.8102388219" y="844"/>
			<point x="822.8102388219" y="808"/>
			<point x="814.8102388219" y="766" type="curve"/>
			<point x="798.8102388219" y="796"/>
			<point x="738.8102388219" y="882"/>
			<point x="618.8102388219" y="882" type="curve" smooth="yes"/>
			<point x="380.8102388219" y="882"/>
			<point x="120.8102388219" y="616"/>
		</contour>
		<contour>
			<point x="690.8102388219" y="264" type="line" smooth="yes"/>
			<point x="676.8102388219" y="208"/>
			<point x="632.8102388219" y="168"/>
			<point x="590.8102388219" y="130" type="curve"/>
			<point x="572.8102388219" y="116"/>
			<point x="496.8102388219" y="56"/>
			<point x="414.8102388219" y="56" type="curve" smooth="yes"/>
			<point x="334.8102388219" y="56"/>
			<point x="276.8102388219" y="122"/>
			<point x="276.8102388219" y="242" type="curve" smooth="yes"/>
			<point x="276.8102388219" y="326"/>
			<point x="326.8102388219" y="544"/>
			<point x="380.8102388219" y="646" type="curve" smooth="yes"/>
			<point x="444.8102388219" y="760"/>
			<point x="538.8102388219" y="826"/>
			<point x="618.8102388219" y="826" type="curve" smooth="yes"/>
			<point x="752.8102388219" y="826"/>
			<point x="788.8102388219" y="678"/>
			<point x="788.8102388219" y="660" type="curve"/>
			<point x="786.8102388219" y="651"/>
			<point x="784.8102388219" y="641"/>
			<point x="782.8102388219" y="632" type="curve"/>
		</contour>
	</outline>
</glyph>
<glyph name="h" format="2">
  <advance width="612"/>
  <unicode hex="0068"/>
  <outline>
    <contour>
      <point x="411.4051194109432" y="441.0" type="curve" smooth="yes"/>
      <point x="355.4051194109432" y="441.0"/>
      <point x="302.4051194109432" y="417.0"/>
      <point x="256.4051194109432" y="364.0" type="curve"/>
      <point x="330.4051194109432" y="664.0" type="line"/>
      <point x="331.4051194109432" y="666.0"/>
      <point x="334.4051194109432" y="679.0"/>
      <point x="334.4051194109432" y="680.0" type="curve" smooth="yes"/>
      <point x="334.4051194109432" y="685.0"/>
      <point x="330.4051194109432" y="694.0"/>
      <point x="318.4051194109432" y="694.0" type="curve" smooth="yes"/>
      <point x="314.4051194109432" y="694.0"/>
      <point x="284.4051194109432" y="691.0"/>
      <point x="204.4051194109432" y="685.0" type="curve" smooth="yes"/>
      <point x="182.4051194109432" y="683.0"/>
      <point x="172.4051194109432" y="682.0"/>
      <point x="172.4051194109432" y="664.0" type="curve" smooth="yes"/>
      <point x="172.4051194109432" y="650.0"/>
      <point x="186.4051194109432" y="650.0"/>
      <point x="198.4051194109432" y="650.0" type="curve" smooth="yes"/>
      <point x="246.4051194109432" y="650.0"/>
      <point x="246.4051194109432" y="644.0"/>
      <point x="246.4051194109432" y="635.0" type="curve" smooth="yes"/>
      <point x="246.4051194109432" y="632.0"/>
      <point x="246.4051194109432" y="630.0"/>
      <point x="241.4051194109432" y="612.0" type="curve" smooth="yes"/>
      <point x="99.4051194109432" y="43.0" type="line" smooth="yes"/>
      <point x="95.4051194109432" y="28.0"/>
      <point x="95.4051194109432" y="22.0"/>
      <point x="95.4051194109432" y="21.0" type="curve" smooth="yes"/>
      <point x="95.4051194109432" y="4.0"/>
      <point x="109.4051194109432" y="-10.0"/>
      <point x="128.4051194109432" y="-10.0" type="curve" smooth="yes"/>
      <point x="144.4051194109432" y="-10.0"/>
      <point x="158.4051194109432" y="0.0"/>
      <point x="166.4051194109432" y="13.0" type="curve"/>
      <point x="169.4051194109432" y="19.0"/>
      <point x="177.4051194109432" y="51.0"/>
      <point x="182.4051194109432" y="71.0" type="curve" smooth="yes"/>
      <point x="209.4051194109432" y="175.0"/>
      <point x="218.4051194109432" y="213.0"/>
      <point x="221.4051194109432" y="228.0" type="curve"/>
      <point x="236.4051194109432" y="286.0"/>
      <point x="236.4051194109432" y="288.0"/>
      <point x="258.4051194109432" y="320.0" type="curve" smooth="yes"/>
      <point x="292.4051194109432" y="369.0"/>
      <point x="339.4051194109432" y="413.0"/>
      <point x="406.4051194109432" y="413.0" type="curve" smooth="yes"/>
      <point x="442.4051194109432" y="413.0"/>
      <point x="463.4051194109432" y="392.0"/>
      <point x="463.4051194109432" y="345.0" type="curve" smooth="yes"/>
      <point x="463.4051194109432" y="290.0"/>
      <point x="421.4051194109432" y="176.0"/>
      <point x="402.4051194109432" y="127.0" type="curve" smooth="yes"/>
      <point x="389.4051194109432" y="94.0"/>
      <point x="389.4051194109432" y="88.0"/>
      <point x="389.4051194109432" y="75.0" type="curve" smooth="yes"/>
      <point x="389.4051194109432" y="18.0"/>
      <point x="436.4051194109432" y="-10.0"/>
      <point x="479.4051194109432" y="-10.0" type="curve" smooth="yes"/>
      <point x="577.4051194109433" y="-10.0"/>
      <point x="618.4051194109433" y="130.0"/>
      <point x="618.4051194109433" y="143.0" type="curve" smooth="yes"/>
      <point x="618.4051194109433" y="153.0"/>
      <point x="610.4051194109433" y="156.0"/>
      <point x="603.4051194109433" y="156.0" type="curve" smooth="yes"/>
      <point x="591.4051194109433" y="156.0"/>
      <point x="589.4051194109433" y="149.0"/>
      <point x="586.4051194109433" y="139.0" type="curve" smooth="yes"/>
      <point x="562.4051194109433" y="57.0"/>
      <point x="520.4051194109433" y="18.0"/>
      <point x="482.4051194109432" y="18.0" type="curve" smooth="yes"/>
      <point x="466.4051194109432" y="18.0"/>
      <point x="458.4051194109432" y="28.0"/>
      <point x="458.4051194109432" y="51.0" type="curve" smooth="yes"/>
      <point x="458.4051194109432" y="74.0"/>
      <point x="466.4051194109432" y="96.0"/>
      <point x="476.4051194109432" y="121.0" type="curve" smooth="yes"/>
      <point x="491.4051194109432" y="159.0"/>
      <point x="535.4051194109433" y="274.0"/>
      <point x="535.4051194109433" y="330.0" type="curve" smooth="yes"/>
      <point x="535.4051194109433" y="405.0"/>
      <point x="483.4051194109432" y="441.0"/>
    </contour>
  </outline>
</glyph>
<glyph name="i" format="2">
	<unicode hex="0069"/>
	<advance width="361"/>
	<outline>
		<contour>
			<point x="251" y="624" type="curve" smooth="yes"/>
			<point x="251" y="646"/>
			<point x="235" y="662"/>
			<point x="212" y="662" type="curve" smooth="yes"/>
			<point x="186" y="662"/>
			<point x="157" y="638"/>
			<point x="157" y="608" type="curve" smooth="yes"/>
			<point x="157" y="586"/>
			<point x="173" y="570"/>
			<point x="196" y="570" type="curve" smooth="yes"/>
			<point x="222" y="570"/>
			<point x="251" y="594"/>
		</contour>
		<contour>
			<point x="41" y="75" type="curve" smooth="yes"/>
			<point x="41" y="26"/>
			<point x="79" y="-10"/>
			<point x="132" y="-10" type="curve" smooth="yes"/>
			<point x="229" y="-10"/>
			<point x="270" y="130"/>
			<point x="270" y="143" type="curve" smooth="yes"/>
			<point x="270" y="153"/>
			<point x="262" y="156"/>
			<point x="255" y="156" type="curve" smooth="yes"/>
			<point x="243" y="156"/>
			<point x="241" y="149"/>
			<point x="238" y="139" type="curve" smooth="yes"/>
			<point x="215" y="59"/>
			<point x="174" y="18"/>
			<point x="134" y="18" type="curve" smooth="yes"/>
			<point x="122" y="18"/>
			<point x="110" y="23"/>
			<point x="110" y="50" type="curve" smooth="yes"/>
			<point x="110" y="74"/>
			<point x="117" y="92"/>
			<point x="130" y="123" type="curve" smooth="yes"/>
			<point x="140" y="150"/>
			<point x="150.57912" y="176.77124"/>
			<point x="192" y="285" type="curve" smooth="yes"/>
			<point x="201" y="308"/>
			<point x="213" y="339"/>
			<point x="213" y="356" type="curve" smooth="yes"/>
			<point x="213" y="406"/>
			<point x="173" y="441"/>
			<point x="122" y="441" type="curve" smooth="yes"/>
			<point x="25" y="441"/>
			<point x="-17" y="301"/>
			<point x="-17" y="288" type="curve" smooth="yes"/>
			<point x="-17" y="279"/>
			<point x="-10" y="275"/>
			<point x="-2" y="275" type="curve" smooth="yes"/>
			<point x="11" y="275"/>
			<point x="12" y="281"/>
			<point x="15" y="291" type="curve" smooth="yes"/>
			<point x="43" y="386"/>
			<point x="89" y="413"/>
			<point x="119" y="413" type="curve" smooth="yes"/>
			<point x="133" y="413"/>
			<point x="143" y="408"/>
			<point x="143" y="380" type="curve" smooth="yes"/>
			<point x="143" y="370"/>
			<point x="144" y="355"/>
			<point x="132" y="326" type="curve" smooth="yes"/>
			<point x="105.027" y="257.069"/>
			<point x="78.054" y="188.138"/>
			<point x="51" y="119" type="curve" smooth="yes"/>
			<point x="45" y="104"/>
			<point x="41" y="92"/>
		</contour>
	</outline>
</glyph>
<glyph name="j" format="2">
	<unicode hex="006A"/>
	<advance width="429"/>
	<outline>
		<contour>
			<point x="366" y="624" type="curve" smooth="yes"/>
			<point x="366" y="643"/>
			<point x="351" y="662"/>
			<point x="327" y="662" type="curve" smooth="yes"/>
			<point x="297" y="662"/>
			<point x="271" y="634"/>
			<point x="271" y="608" type="curve" smooth="yes"/>
			<point x="271" y="589"/>
			<point x="286" y="570"/>
			<point x="310" y="570" type="curve" smooth="yes"/>
			<point x="340" y="570"/>
			<point x="366" y="598"/>
		</contour>
		<contour>
			<point x="157" y="-50" type="line" smooth="yes"/>
			<point x="142" y="-111"/>
			<point x="93" y="-176"/>
			<point x="32" y="-176" type="curve" smooth="yes"/>
			<point x="16" y="-176"/>
			<point x="1" y="-172"/>
			<point x="-1" y="-171" type="curve"/>
			<point x="30" y="-156"/>
			<point x="34" y="-129"/>
			<point x="34" y="-120" type="curve" smooth="yes"/>
			<point x="34" y="-96"/>
			<point x="16" y="-83"/>
			<point x="-5" y="-83" type="curve" smooth="yes"/>
			<point x="-34" y="-83"/>
			<point x="-61" y="-108"/>
			<point x="-61" y="-141" type="curve" smooth="yes"/>
			<point x="-61" y="-179"/>
			<point x="-24" y="-204"/>
			<point x="33" y="-204" type="curve" smooth="yes"/>
			<point x="94" y="-204"/>
			<point x="204" y="-166"/>
			<point x="234" y="-46" type="curve" smooth="yes"/>
			<point x="324" y="312" type="line" smooth="yes"/>
			<point x="327" y="324"/>
			<point x="329" y="332"/>
			<point x="329" y="347" type="curve" smooth="yes"/>
			<point x="329" y="402"/>
			<point x="285" y="441"/>
			<point x="227" y="441" type="curve" smooth="yes"/>
			<point x="121" y="441"/>
			<point x="59" y="301"/>
			<point x="59" y="288" type="curve" smooth="yes"/>
			<point x="59" y="279"/>
			<point x="66" y="275"/>
			<point x="74" y="275" type="curve" smooth="yes"/>
			<point x="85" y="275"/>
			<point x="86" y="278"/>
			<point x="93" y="293" type="curve" smooth="yes"/>
			<point x="123" y="362"/>
			<point x="174" y="413"/>
			<point x="224" y="413" type="curve" smooth="yes"/>
			<point x="245" y="413"/>
			<point x="257" y="399"/>
			<point x="257" y="366" type="curve" smooth="yes"/>
			<point x="257" y="352"/>
			<point x="254" y="338"/>
			<point x="251" y="324" type="curve" smooth="yes"/>
		</contour>
	</outline>
</glyph>
<glyph name="k" format="2">
	<unicode hex="006B"/>
	<advance width="1106"/>
	<outline>
		<contour>
			<point x="706" y="-20" type="curve" smooth="yes"/>
			<point x="790" y="-20"/>
			<point x="842" y="42"/>
			<point x="868" y="80" type="curve" smooth="yes"/>
			<point x="916" y="154"/>
			<point x="948" y="274"/>
			<point x="948" y="286" type="curve" smooth="yes"/>
			<point x="948" y="306"/>
			<point x="932" y="312"/>
			<point x="918" y="312" type="curve" smooth="yes"/>
			<point x="894" y="312"/>
			<point x="890" y="300"/>
			<point x="882" y="264" type="curve"/>
			<point x="856" y="170"/>
			<point x="804" y="36"/>
			<point x="710" y="36" type="curve" smooth="yes"/>
			<point x="658" y="36"/>
			<point x="646" y="80"/>
			<point x="646" y="134" type="curve" smooth="yes"/>
			<point x="646" y="160"/>
			<point x="648" y="184"/>
			<point x="658" y="230" type="curve" smooth="yes"/>
			<point x="660" y="238"/>
			<point x="668" y="270"/>
			<point x="668" y="292" type="curve" smooth="yes"/>
			<point x="668" y="456"/>
			<point x="462" y="492"/>
			<point x="360" y="506" type="curve"/>
			<point x="434" y="550"/>
			<point x="502" y="618"/>
			<point x="526" y="644" type="curve" smooth="yes"/>
			<point x="636" y="752"/>
			<point x="726" y="826"/>
			<point x="822" y="826" type="curve" smooth="yes"/>
			<point x="848" y="826"/>
			<point x="872" y="820"/>
			<point x="888" y="800" type="curve"/>
			<point x="780" y="786"/>
			<point x="780" y="692"/>
			<point x="780" y="690" type="curve" smooth="yes"/>
			<point x="780" y="646"/>
			<point x="814" y="616"/>
			<point x="858" y="616" type="curve" smooth="yes"/>
			<point x="912" y="616"/>
			<point x="972" y="660"/>
			<point x="972" y="742" type="curve" smooth="yes"/>
			<point x="972" y="810"/>
			<point x="924" y="882"/>
			<point x="824" y="882" type="curve" smooth="yes"/>
			<point x="708" y="882"/>
			<point x="604" y="794"/>
			<point x="490" y="680" type="curve" smooth="yes"/>
			<point x="374" y="566"/>
			<point x="324" y="544"/>
			<point x="292" y="530" type="curve"/>
			<point x="490" y="1328" type="line"/>
			<point x="492" y="1332"/>
			<point x="498" y="1358"/>
			<point x="498" y="1360" type="curve" smooth="yes"/>
			<point x="498" y="1370"/>
			<point x="490" y="1388"/>
			<point x="466" y="1388" type="curve" smooth="yes"/>
			<point x="458" y="1388"/>
			<point x="396" y="1381"/>
			<point x="238" y="1370" type="curve" smooth="yes"/>
			<point x="194" y="1366"/>
			<point x="174" y="1364"/>
			<point x="174" y="1328" type="curve" smooth="yes"/>
			<point x="174" y="1300"/>
			<point x="202" y="1300"/>
			<point x="226" y="1300" type="curve" smooth="yes"/>
			<point x="322" y="1300"/>
			<point x="322" y="1288"/>
			<point x="322" y="1270" type="curve" smooth="yes"/>
			<point x="322" y="1264"/>
			<point x="322" y="1260"/>
			<point x="312" y="1224" type="curve" smooth="yes"/>
			<point x="28" y="86" type="line" smooth="yes"/>
			<point x="20" y="56"/>
			<point x="20" y="44"/>
			<point x="20" y="42" type="curve" smooth="yes"/>
			<point x="20" y="8"/>
			<point x="48" y="-20"/>
			<point x="86" y="-20" type="curve" smooth="yes"/>
			<point x="154" y="-20"/>
			<point x="170" y="44"/>
			<point x="178" y="72" type="curve" smooth="yes"/>
			<point x="198" y="156"/>
			<point x="250" y="368"/>
			<point x="272" y="452" type="curve"/>
			<point x="382" y="440"/>
			<point x="516" y="402"/>
			<point x="516" y="288" type="curve" smooth="yes"/>
			<point x="516" y="278"/>
			<point x="516" y="268"/>
			<point x="512" y="248" type="curve" smooth="yes"/>
			<point x="506" y="222"/>
			<point x="502" y="194"/>
			<point x="502" y="184" type="curve" smooth="yes"/>
			<point x="502" y="66"/>
			<point x="590" y="-20"/>
		</contour>
	</outline>
</glyph>
<glyph name="l" format="2">
  <advance width="317"/>
  <unicode hex="006C"/>
  <outline>
    <contour>
      <point x="161.4051194109432" y="108.0" type="curve" smooth="yes"/>
      <point x="300.4051194109432" y="664.0" type="line"/>
      <point x="301.4051194109432" y="666.0"/>
      <point x="304.4051194109432" y="679.0"/>
      <point x="304.4051194109432" y="680.0" type="curve" smooth="yes"/>
      <point x="304.4051194109432" y="685.0"/>
      <point x="300.4051194109432" y="694.0"/>
      <point x="288.4051194109432" y="694.0" type="curve"/>
      <point x="254.7721194109432" y="691.336"/>
      <point x="221.1391194109432" y="688.672"/>
      <point x="187.4051194109432" y="686.0" type="curve" smooth="yes"/>
      <point x="150.4051194109432" y="683.0"/>
      <point x="142.4051194109432" y="682.0"/>
      <point x="142.4051194109432" y="664.0" type="curve" smooth="yes"/>
      <point x="142.4051194109432" y="650.0"/>
      <point x="156.4051194109432" y="650.0"/>
      <point x="168.4051194109432" y="650.0" type="curve" smooth="yes"/>
      <point x="216.4051194109432" y="650.0"/>
      <point x="216.4051194109432" y="644.0"/>
      <point x="216.4051194109432" y="635.0" type="curve" smooth="yes"/>
      <point x="216.4051194109432" y="632.0"/>
      <point x="216.4051194109432" y="630.0"/>
      <point x="211.4051194109432" y="612.0" type="curve" smooth="yes"/>
      <point x="87.4051194109432" y="116.0" type="line" smooth="yes"/>
      <point x="83.4051194109432" y="100.0"/>
      <point x="83.4051194109432" y="85.0"/>
      <point x="83.4051194109432" y="84.0" type="curve" smooth="yes"/>
      <point x="83.4051194109432" y="22.0"/>
      <point x="134.4051194109432" y="-10.0"/>
      <point x="184.4051194109432" y="-10.0" type="curve" smooth="yes"/>
      <point x="227.4051194109432" y="-10.0"/>
      <point x="250.4051194109432" y="24.0"/>
      <point x="261.4051194109432" y="46.0" type="curve" smooth="yes"/>
      <point x="279.4051194109432" y="79.0"/>
      <point x="294.4051194109432" y="138.0"/>
      <point x="294.4051194109432" y="143.0" type="curve" smooth="yes"/>
      <point x="294.4051194109432" y="149.0"/>
      <point x="291.4051194109432" y="156.0"/>
      <point x="278.4051194109432" y="156.0" type="curve" smooth="yes"/>
      <point x="266.4051194109432" y="156.0"/>
      <point x="263.4051194109432" y="145.0"/>
      <point x="261.4051194109432" y="136.0" type="curve" smooth="yes"/>
      <point x="243.4051194109432" y="61.0"/>
      <point x="222.4051194109432" y="18.0"/>
      <point x="186.4051194109432" y="18.0" type="curve" smooth="yes"/>
      <point x="162.4051194109432" y="18.0"/>
      <point x="155.4051194109432" y="41.0"/>
      <point x="155.4051194109432" y="65.0" type="curve" smooth="yes"/>
      <point x="155.4051194109432" y="84.0"/>
      <point x="158.4051194109432" y="95.0"/>
    </contour>
  </outline>
</glyph>
<glyph name="m" format="2">
	<unicode hex="006D"/>
	<advance width="1878"/>
	<outline>
		<contour>
			<point x="210.8102388219" y="-20" type="curve" smooth="yes"/>
			<point x="246.8102388219" y="-20"/>
			<point x="276.8102388219" y="4"/>
			<point x="290.8102388219" y="28" type="curve"/>
			<point x="296.8102388219" y="40"/>
			<point x="312.8102388219" y="108"/>
			<point x="322.8102388219" y="150" type="curve" smooth="yes"/>
			<point x="376.8102388219" y="362"/>
			<point x="412.8102388219" y="512"/>
			<point x="422.8102388219" y="552" type="curve"/>
			<point x="426.8102388219" y="562"/>
			<point x="492.8102388219" y="692"/>
			<point x="580.8102388219" y="758" type="curve" smooth="yes"/>
			<point x="648.8102388219" y="810"/>
			<point x="714.8102388219" y="826"/>
			<point x="770.8102388219" y="826" type="curve" smooth="yes"/>
			<point x="844.8102388219" y="826"/>
			<point x="884.8102388219" y="782"/>
			<point x="884.8102388219" y="690" type="curve" smooth="yes"/>
			<point x="884.8102388219" y="642"/>
			<point x="872.8102388219" y="596"/>
			<point x="850.8102388219" y="506" type="curve" smooth="yes"/>
			<point x="836.8102388219" y="454"/>
			<point x="803.8102388219" y="320"/>
			<point x="760.8102388219" y="146" type="curve" smooth="yes"/>
			<point x="750.8102388219" y="112"/>
			<point x="736.8102388219" y="52"/>
			<point x="736.8102388219" y="42" type="curve" smooth="yes"/>
			<point x="736.8102388219" y="-4"/>
			<point x="774.8102388219" y="-20"/>
			<point x="800.8102388219" y="-20" type="curve" smooth="yes"/>
			<point x="836.8102388219" y="-20"/>
			<point x="866.8102388219" y="4"/>
			<point x="880.8102388219" y="28" type="curve"/>
			<point x="886.8102388219" y="40"/>
			<point x="902.8102388219" y="108"/>
			<point x="912.8102388219" y="150" type="curve" smooth="yes"/>
			<point x="966.8102388219" y="358"/>
			<point x="984.8102388219" y="434"/>
			<point x="990.8102388219" y="464" type="curve"/>
			<point x="1018.8102388219" y="572"/>
			<point x="1018.8102388219" y="574"/>
			<point x="1064.8102388219" y="640" type="curve" smooth="yes"/>
			<point x="1130.8102388219" y="738"/>
			<point x="1224.8102388219" y="826"/>
			<point x="1358.8102388219" y="826" type="curve" smooth="yes"/>
			<point x="1430.8102388219" y="826"/>
			<point x="1472.8102388219" y="784"/>
			<point x="1472.8102388219" y="690" type="curve" smooth="yes"/>
			<point x="1472.8102388219" y="580"/>
			<point x="1388.8102388219" y="350"/>
			<point x="1350.8102388219" y="254" type="curve" smooth="yes"/>
			<point x="1330.8102388219" y="202"/>
			<point x="1324.8102388219" y="188"/>
			<point x="1324.8102388219" y="150" type="curve" smooth="yes"/>
			<point x="1324.8102388219" y="36"/>
			<point x="1418.8102388219" y="-20"/>
			<point x="1504.8102388219" y="-20" type="curve" smooth="yes"/>
			<point x="1700.8102388219" y="-20"/>
			<point x="1782.8102388219" y="260"/>
			<point x="1782.8102388219" y="286" type="curve" smooth="yes"/>
			<point x="1782.8102388219" y="306"/>
			<point x="1766.8102388219" y="312"/>
			<point x="1752.8102388219" y="312" type="curve" smooth="yes"/>
			<point x="1728.8102388219" y="312"/>
			<point x="1724.8102388219" y="298"/>
			<point x="1718.8102388219" y="278" type="curve" smooth="yes"/>
			<point x="1670.8102388219" y="112"/>
			<point x="1586.8102388219" y="36"/>
			<point x="1510.8102388219" y="36" type="curve" smooth="yes"/>
			<point x="1478.8102388219" y="36"/>
			<point x="1462.8102388219" y="56"/>
			<point x="1462.8102388219" y="102" type="curve" smooth="yes"/>
			<point x="1462.8102388219" y="148"/>
			<point x="1478.8102388219" y="192"/>
			<point x="1498.8102388219" y="242" type="curve" smooth="yes"/>
			<point x="1528.8102388219" y="318"/>
			<point x="1616.8102388219" y="548"/>
			<point x="1616.8102388219" y="660" type="curve" smooth="yes"/>
			<point x="1616.8102388219" y="810"/>
			<point x="1512.8102388219" y="882"/>
			<point x="1368.8102388219" y="882" type="curve" smooth="yes"/>
			<point x="1230.8102388219" y="882"/>
			<point x="1116.8102388219" y="810"/>
			<point x="1026.8102388219" y="686" type="curve"/>
			<point x="1010.8102388219" y="846"/>
			<point x="882.8102388219" y="882"/>
			<point x="778.8102388219" y="882" type="curve" smooth="yes"/>
			<point x="686.8102388219" y="882"/>
			<point x="564.8102388219" y="850"/>
			<point x="454.8102388219" y="706" type="curve"/>
			<point x="440.8102388219" y="826"/>
			<point x="344.8102388219" y="882"/>
			<point x="250.8102388219" y="882" type="curve" smooth="yes"/>
			<point x="180.8102388219" y="882"/>
			<point x="130.8102388219" y="840"/>
			<point x="96.8102388219" y="772" type="curve" smooth="yes"/>
			<point x="48.8102388219" y="678"/>
			<point x="28.8102388219" y="580"/>
			<point x="28.8102388219" y="576" type="curve" smooth="yes"/>
			<point x="28.8102388219" y="558"/>
			<point x="42.8102388219" y="550"/>
			<point x="58.8102388219" y="550" type="curve" smooth="yes"/>
			<point x="84.8102388219" y="550"/>
			<point x="86.8102388219" y="558"/>
			<point x="100.8102388219" y="610" type="curve" smooth="yes"/>
			<point x="124.8102388219" y="708"/>
			<point x="160.8102388219" y="826"/>
			<point x="244.8102388219" y="826" type="curve" smooth="yes"/>
			<point x="296.8102388219" y="826"/>
			<point x="308.8102388219" y="776"/>
			<point x="308.8102388219" y="732" type="curve" smooth="yes"/>
			<point x="308.8102388219" y="696"/>
			<point x="298.8102388219" y="658"/>
			<point x="282.8102388219" y="592" type="curve" smooth="yes"/>
			<point x="278.8102388219" y="576"/>
			<point x="247.8102388219" y="458"/>
			<point x="166.8102388219" y="130" type="curve" smooth="yes"/>
			<point x="158.8102388219" y="100"/>
			<point x="146.8102388219" y="50"/>
			<point x="146.8102388219" y="42" type="curve" smooth="yes"/>
			<point x="146.8102388219" y="-4"/>
			<point x="184.8102388219" y="-20"/>
		</contour>
	</outline>
</glyph>
<glyph name="n" format="2">
  <advance width="644"/>
  <unicode hex="006E"/>
  <outline>
    <contour>
      <point x="159.4051194109432" y="-10.0" type="curve" smooth="yes"/>
      <point x="177.4051194109432" y="-10.0"/>
      <point x="192.4051194109432" y="2.0"/>
      <point x="199.4051194109432" y="14.0" type="curve" smooth="yes"/>
      <point x="202.4051194109432" y="20.0"/>
      <point x="210.4051194109432" y="54.0"/>
      <point x="215.4051194109432" y="75.0" type="curve" smooth="yes"/>
      <point x="242.4051194109432" y="179.0"/>
      <point x="251.4051194109432" y="217.0"/>
      <point x="254.4051194109432" y="232.0" type="curve"/>
      <point x="268.4051194109432" y="286.0"/>
      <point x="268.4051194109432" y="287.0"/>
      <point x="291.4051194109432" y="320.0" type="curve" smooth="yes"/>
      <point x="324.4051194109432" y="369.0"/>
      <point x="371.4051194109432" y="413.0"/>
      <point x="438.4051194109432" y="413.0" type="curve" smooth="yes"/>
      <point x="474.4051194109432" y="413.0"/>
      <point x="495.4051194109432" y="392.0"/>
      <point x="495.4051194109432" y="345.0" type="curve" smooth="yes"/>
      <point x="495.4051194109432" y="290.0"/>
      <point x="453.4051194109432" y="176.0"/>
      <point x="434.4051194109432" y="127.0" type="curve" smooth="yes"/>
      <point x="421.4051194109432" y="94.0"/>
      <point x="421.4051194109432" y="88.0"/>
      <point x="421.4051194109432" y="75.0" type="curve" smooth="yes"/>
      <point x="421.4051194109432" y="18.0"/>
      <point x="468.4051194109432" y="-10.0"/>
      <point x="511.4051194109432" y="-10.0" type="curve" smooth="yes"/>
      <point x="609.4051194109433" y="-10.0"/>
      <point x="650.4051194109433" y="130.0"/>
      <point x="650.4051194109433" y="143.0" type="curve" smooth="yes"/>
      <point x="650.4051194109433" y="153.0"/>
      <point x="642.4051194109433" y="156.0"/>
      <point x="635.4051194109433" y="156.0" type="curve" smooth="yes"/>
      <point x="623.4051194109433" y="156.0"/>
      <point x="621.4051194109433" y="149.0"/>
      <point x="618.4051194109433" y="139.0" type="curve" smooth="yes"/>
      <point x="594.4051194109433" y="57.0"/>
      <point x="552.4051194109433" y="18.0"/>
      <point x="514.4051194109433" y="18.0" type="curve" smooth="yes"/>
      <point x="498.4051194109432" y="18.0"/>
      <point x="490.4051194109432" y="28.0"/>
      <point x="490.4051194109432" y="51.0" type="curve" smooth="yes"/>
      <point x="490.4051194109432" y="74.0"/>
      <point x="498.4051194109432" y="96.0"/>
      <point x="508.4051194109432" y="121.0" type="curve" smooth="yes"/>
      <point x="523.4051194109433" y="159.0"/>
      <point x="567.4051194109433" y="274.0"/>
      <point x="567.4051194109433" y="330.0" type="curve" smooth="yes"/>
      <point x="567.4051194109433" y="405.0"/>
      <point x="515.4051194109433" y="441.0"/>
      <point x="443.4051194109432" y="441.0" type="curve" smooth="yes"/>
      <point x="362.4051194109432" y="441.0"/>
      <point x="310.4051194109432" y="392.0"/>
      <point x="281.4051194109432" y="354.0" type="curve"/>
      <point x="274.4051194109432" y="409.0"/>
      <point x="230.4051194109432" y="441.0"/>
      <point x="179.4051194109432" y="441.0" type="curve" smooth="yes"/>
      <point x="143.4051194109432" y="441.0"/>
      <point x="118.4051194109432" y="418.0"/>
      <point x="102.4051194109432" y="387.0" type="curve" smooth="yes"/>
      <point x="78.4051194109432" y="340.0"/>
      <point x="68.4051194109432" y="290.0"/>
      <point x="68.4051194109432" y="288.0" type="curve" smooth="yes"/>
      <point x="68.4051194109432" y="279.0"/>
      <point x="75.4051194109432" y="275.0"/>
      <point x="83.4051194109432" y="275.0" type="curve" smooth="yes"/>
      <point x="96.4051194109432" y="275.0"/>
      <point x="97.4051194109432" y="279.0"/>
      <point x="104.4051194109432" y="305.0" type="curve" smooth="yes"/>
      <point x="116.4051194109432" y="354.0"/>
      <point x="134.4051194109432" y="413.0"/>
      <point x="176.4051194109432" y="413.0" type="curve" smooth="yes"/>
      <point x="202.4051194109432" y="413.0"/>
      <point x="208.4051194109432" y="388.0"/>
      <point x="208.4051194109432" y="366.0" type="curve" smooth="yes"/>
      <point x="208.4051194109432" y="348.0"/>
      <point x="203.4051194109432" y="329.0"/>
      <point x="195.4051194109432" y="296.0" type="curve" smooth="yes"/>
      <point x="193.4051194109432" y="288.0"/>
      <point x="177.8921194109432" y="229.13651"/>
      <point x="137.4051194109432" y="65.0" type="curve" smooth="yes"/>
      <point x="133.4051194109432" y="50.0"/>
      <point x="127.4051194109432" y="25.0"/>
      <point x="127.4051194109432" y="21.0" type="curve" smooth="yes"/>
      <point x="127.4051194109432" y="-2.0"/>
      <point x="146.4051194109432" y="-10.0"/>
    </contour>
  </outline>
</glyph>
<glyph name="o" format="2">
	<unicode hex="006F"/>
	<advance width="513"/>
	<outline>
		<contour>
			<point x="536.4051194109" y="268" type="curve" smooth="yes"/>
			<point x="536.4051194109" y="366"/>
			<point x="466.4051194109" y="441"/>
			<point x="362.4051194109" y="441" type="curve" smooth="yes"/>
			<point x="220.4051194109" y="441"/>
			<point x="82.4051194109" y="303"/>
			<point x="82.4051194109" y="163" type="curve" smooth="yes"/>
			<point x="82.4051194109" y="61"/>
			<point x="154.4051194109" y="-10"/>
			<point x="256.4051194109" y="-10" type="curve" smooth="yes"/>
			<point x="399.4051194109" y="-10"/>
			<point x="536.4051194109" y="130"/>
		</contour>
		<contour>
			<point x="257.4051194109" y="18" type="curve" smooth="yes"/>
			<point x="222.4051194109" y="18"/>
			<point x="163.4051194109" y="36"/>
			<point x="163.4051194109" y="128" type="curve" smooth="yes"/>
			<point x="163.4051194109" y="169"/>
			<point x="182.4051194109" y="277"/>
			<point x="230.4051194109" y="339" type="curve" smooth="yes"/>
			<point x="279.4051194109" y="402"/>
			<point x="334.4051194109" y="413"/>
			<point x="361.4051194109" y="413" type="curve" smooth="yes"/>
			<point x="402.4051194109" y="413"/>
			<point x="455.4051194109" y="388"/>
			<point x="455.4051194109" y="304" type="curve" smooth="yes"/>
			<point x="455.4051194109" y="264"/>
			<point x="437.4051194109" y="169"/>
			<point x="399.4051194109" y="109" type="curve" smooth="yes"/>
			<point x="362.4051194109" y="52"/>
			<point x="307.4051194109" y="18"/>
		</contour>
	</outline>
</glyph>
<glyph name="p" format="2">
	<unicode hex="0070"/>
	<advance width="534"/>
	<outline>
		<contour>
			<point x="90.4051194109" y="-121" type="line" smooth="yes"/>
			<point x="82.4051194109" y="-153"/>
			<point x="80.4051194109" y="-161"/>
			<point x="40.4051194109" y="-161" type="curve" smooth="yes"/>
			<point x="26.4051194109" y="-161"/>
			<point x="14.4051194109" y="-161"/>
			<point x="14.4051194109" y="-180" type="curve" smooth="yes"/>
			<point x="14.4051194109" y="-189"/>
			<point x="23.4051194109" y="-194"/>
			<point x="28.4051194109" y="-194" type="curve" smooth="yes"/>
			<point x="38.4051194109" y="-194"/>
			<point x="42.4051194109" y="-191"/>
			<point x="116.4051194109" y="-191" type="curve" smooth="yes"/>
			<point x="188.4051194109" y="-191"/>
			<point x="209.4051194109" y="-194"/>
			<point x="216.4051194109" y="-194" type="curve" smooth="yes"/>
			<point x="220.4051194109" y="-194"/>
			<point x="235.4051194109" y="-194"/>
			<point x="235.4051194109" y="-175" type="curve" smooth="yes"/>
			<point x="235.4051194109" y="-161"/>
			<point x="221.4051194109" y="-161"/>
			<point x="209.4051194109" y="-161" type="curve" smooth="yes"/>
			<point x="161.4051194109" y="-161"/>
			<point x="161.4051194109" y="-155"/>
			<point x="161.4051194109" y="-146" type="curve" smooth="yes"/>
			<point x="161.4051194109" y="-143"/>
			<point x="164.4051194109" y="-131"/>
			<point x="169.4051194109" y="-111" type="curve" smooth="yes"/>
			<point x="182.7251194109" y="-57.72"/>
			<point x="196.0451194109" y="-4.44"/>
			<point x="209.4051194109" y="49" type="curve"/>
			<point x="222.4051194109" y="26"/>
			<point x="253.4051194109" y="-10"/>
			<point x="307.4051194109" y="-10" type="curve" smooth="yes"/>
			<point x="430.4051194109" y="-10"/>
			<point x="558.4051194109" y="132"/>
			<point x="558.4051194109" y="277" type="curve" smooth="yes"/>
			<point x="558.4051194109" y="376"/>
			<point x="494.4051194109" y="441"/>
			<point x="414.4051194109" y="441" type="curve" smooth="yes"/>
			<point x="354.4051194109" y="441"/>
			<point x="306.4051194109" y="400"/>
			<point x="277.4051194109" y="370" type="curve"/>
			<point x="256.4051194109" y="441"/>
			<point x="189.4051194109" y="441"/>
			<point x="179.4051194109" y="441" type="curve" smooth="yes"/>
			<point x="143.4051194109" y="441"/>
			<point x="118.4051194109" y="418"/>
			<point x="102.4051194109" y="387" type="curve" smooth="yes"/>
			<point x="79.4051194109" y="342"/>
			<point x="68.4051194109" y="291"/>
			<point x="68.4051194109" y="288" type="curve" smooth="yes"/>
			<point x="68.4051194109" y="279"/>
			<point x="75.4051194109" y="275"/>
			<point x="83.4051194109" y="275" type="curve" smooth="yes"/>
			<point x="96.4051194109" y="275"/>
			<point x="97.4051194109" y="279"/>
			<point x="104.4051194109" y="305" type="curve" smooth="yes"/>
			<point x="117.4051194109" y="356"/>
			<point x="135.4051194109" y="413"/>
			<point x="176.4051194109" y="413" type="curve" smooth="yes"/>
			<point x="201.4051194109" y="413"/>
			<point x="208.4051194109" y="390"/>
			<point x="208.4051194109" y="366" type="curve" smooth="yes"/>
			<point x="208.4051194109" y="356"/>
			<point x="204.4051194109" y="332"/>
			<point x="202.4051194109" y="324" type="curve" smooth="yes"/>
		</contour>
		<contour>
			<point x="411.4051194109" y="413" type="curve" smooth="yes"/>
			<point x="461.4051194109" y="413"/>
			<point x="480.4051194109" y="364"/>
			<point x="480.4051194109" y="319" type="curve" smooth="yes"/>
			<point x="480.4051194109" y="282"/>
			<point x="458.4051194109" y="175"/>
			<point x="428.4051194109" y="116" type="curve" smooth="yes"/>
			<point x="402.4051194109" y="62"/>
			<point x="354.4051194109" y="18"/>
			<point x="307.4051194109" y="18" type="curve" smooth="yes"/>
			<point x="239.4051194109" y="18"/>
			<point x="223.4051194109" y="96"/>
			<point x="223.4051194109" y="103" type="curve" smooth="yes"/>
			<point x="223.4051194109" y="105"/>
			<point x="225.4051194109" y="116"/>
			<point x="226.4051194109" y="119" type="curve"/>
			<point x="274.4051194109" y="308" type="line" smooth="yes"/>
			<point x="279.4051194109" y="325"/>
			<point x="279.4051194109" y="327"/>
			<point x="294.4051194109" y="345" type="curve" smooth="yes"/>
			<point x="332.4051194109" y="390"/>
			<point x="375.4051194109" y="413"/>
		</contour>
	</outline>
</glyph>
